<?xml version="1.0" encoding="utf-8"?>
<!-- Generator: Adobe Illustrator 17.1.0, SVG Export Plug-In . SVG Version: 6.00 Build 0)  -->
<!DOCTYPE svg PUBLIC "-//W3C//DTD SVG 1.1//EN" "http://www.w3.org/Graphics/SVG/1.1/DTD/svg11.dtd">
<svg version="1.1" id="Laag_1" xmlns="http://www.w3.org/2000/svg" xmlns:xlink="http://www.w3.org/1999/xlink" x="0px" y="0px"
	 viewBox="0 0 400 400" enable-background="new 0 0 400 400" xml:space="preserve">
<g>
	<path fill="#E57A23" d="M57.6,219.9c-1.1,0-2.2-0.6-2.6-1.8l-15.1-42c-0.5-1.4,0.2-2.9,1.6-3.5c1.4-0.5,2.9,0.2,3.5,1.6l14.3,39.5
		l8.4-3l0.2-27.8c0-1.2,0.8-2.2,1.8-2.5c1.1-0.3,2.3,0,3,0.9l17,21.5l106.7-38.3l-14.1-39.6c-0.5-1.4,0.2-2.9,1.6-3.5
		s2.9,0.2,3.5,1.6l15.1,42c0.2,0.6,0.2,1.4-0.1,2.1s-0.9,1.2-1.5,1.4l-111,40c-1.1,0.4-2.3,0-3-0.9l-13.4-17l-0.2,22
		c0,1.1-0.8,2.2-1.8,2.5l-12.7,4.5C58.2,219.8,57.9,219.9,57.6,219.9z"/>
	<path fill="#E57A23" d="M127.4,256.1L127.4,256.1c-6.7,0-9.6-6.8-10.4-10.8l-4.2-21.1c-0.2-1.1,0.2-2.2,1.1-2.7
		c0.9-0.6,2.1-0.6,2.9-0.1c0.2,0.1,5.5,3.5,10.8,7.9c7.8,6.5,11.6,11.9,11.7,16.5c0,1.9-0.5,4.9-3.9,7.1
		C132.5,255.1,129.8,256.1,127.4,256.1z M119.4,229.7l2.9,14.7c0,0.1,1.3,6.4,5.1,6.4l0,0c1.4,0,3.1-0.8,5.1-2.1
		c1.4-1,1.6-1.9,1.5-2.6C133.8,241.9,126.5,235,119.4,229.7z"/>
	<path fill="#E57A23" d="M167,267.3L167,267.3c-6.7,0-9.6-6.8-10.4-10.8l-4.2-21.1c-0.2-1.1,0.2-2.2,1.1-2.7
		c0.9-0.6,2.1-0.6,2.9-0.1c0.2,0.1,5.5,3.5,10.8,7.9c7.8,6.5,11.6,11.9,11.7,16.5c0,1.9-0.5,4.9-3.9,7.1
		C172.2,266.3,169.5,267.3,167,267.3z M158.9,240.8l2.9,14.7c0,0.1,1.3,6.4,5.1,6.4l0,0c1.4,0,3.1-0.8,5.1-2.1
		c1.4-1,1.6-1.9,1.5-2.6C173.5,253,166,246.1,158.9,240.8z"/>
	<path fill="#D4CD4D" d="M84.3,123.3c-0.8,0-1.6-0.3-2.2-1C74,112.2,66.8,98.5,60.7,81.6c-6-17-9.5-33.7-9.5-47.3
		c0-14.5,3.9-23.9,10.9-26.5c7.1-2.6,16.1,2.3,25.3,13.4c8.6,10.5,16.7,25.6,22.8,42.4c6,16.7,9.2,32,9.5,45c0,1.5-1.2,2.7-2.7,2.7
		c-1.5,0-2.7-1.2-2.7-2.7c-0.2-12.3-3.3-27.3-9.2-43.3c-5.8-16.3-13.6-30.9-21.9-40.9C75.8,15.6,68.6,11.2,64,12.9
		c-4.6,1.6-7.3,9.6-7.3,21.4c0,13,3.2,29.2,9.2,45.5c5.8,16.3,12.7,29.5,20.5,39.2c1,1.2,0.8,2.9-0.4,3.8
		C85.4,123.1,84.8,123.3,84.3,123.3z"/>
	<path fill="#D4CD4D" d="M33,180.7c-1.1,0-2.2-0.6-2.6-1.8L24,161c-0.5-1.4,0.2-2.9,1.6-3.5c1.4-0.5,2.9,0.2,3.5,1.6l5.5,15.2
		l155.7-56l-5.5-15.1c-0.5-1.4,0.2-2.9,1.6-3.5c1.4-0.5,2.9,0.2,3.5,1.6l6.4,17.7c0.5,1.4-0.2,2.9-1.6,3.5l-160.8,58
		C33.5,180.7,33.3,180.7,33,180.7z"/>
	<path fill="#D4CD4D" d="M116.9,111.5c-1.1,0-2.2-0.6-2.6-1.8c-0.5-1.4,0.2-2.9,1.6-3.5L160,90.4c5.7-2.1,11.6-3,16.3-2.8
		c5.6,0.2,9.3,2.3,10.5,5.6l3,8.4c0.5,1.4-0.2,2.9-1.6,3.5s-2.9-0.2-3.5-1.6l-3-8.4c-0.3-0.9-2.2-1.8-5.7-2.1
		c-4-0.2-9.2,0.8-14.3,2.6l-44.1,15.9C117.5,111.4,117.2,111.5,116.9,111.5z"/>
	<path fill="#D4CD4D" d="M26.4,162.3c-1.1,0-2.2-0.6-2.6-1.8l-2.9-8.1c-0.6-1.8-1-5.8,4.6-10.8c3.6-3.1,8.6-5.9,14.4-8.1l43.3-15.6
		c1.4-0.5,2.9,0.2,3.5,1.6c0.5,1.4-0.2,2.9-1.6,3.5l-43.2,15.8c-5,1.8-9.6,4.3-12.6,7c-2.9,2.6-3.3,4.3-3.1,4.9l2.8,8.1
		c0.5,1.4-0.2,2.9-1.6,3.5C26.9,162.3,26.6,162.3,26.4,162.3z"/>
	<path fill="#D4CD4D" d="M71.4,43.9c-4.8,0-9.1-3.1-10.8-7.9c-2.2-6,0.6-12.6,6.3-14.7c1.1-0.4,2.3-0.6,3.5-0.6
		c4.8,0,9.1,3.1,10.8,7.9c2.2,6-0.6,12.6-6.3,14.7C73.8,43.7,72.6,43.9,71.4,43.9z M70.4,26.1c-0.5,0-1.1,0.1-1.6,0.3
		c-2.9,1.1-4.2,4.5-3,7.8c1,2.6,3.2,4.3,5.7,4.3c0.5,0,1.1-0.1,1.6-0.3c2.9-1.1,4.2-4.5,3-7.8C75.2,27.8,72.9,26.1,70.4,26.1z"/>
	<path fill="#E57A23" d="M144.6,188.5c-1.1,0-2.2-0.6-2.6-1.8l-9.6-26.7c-0.5-1.4,0.2-2.9,1.6-3.5c1.4-0.5,2.9,0.2,3.5,1.6l9.6,26.7
		c0.5,1.4-0.2,2.9-1.6,3.5C145.3,188.5,145,188.5,144.6,188.5z"/>
	<path fill="#E57A23" d="M155.1,184.8c-1.1,0-2.2-0.6-2.6-1.8l-7.6-21.1c-0.5-1.4,0.2-2.9,1.6-3.5c1.4-0.5,2.9,0.2,3.5,1.6l7.6,21.1
		c0.5,1.4-0.2,2.9-1.6,3.5C155.8,184.8,155.4,184.8,155.1,184.8z"/>
	<path fill="#E57A23" d="M176.1,177.2c-1.1,0-2.2-0.6-2.6-1.8l-7.6-21.1c-0.5-1.4,0.2-2.9,1.6-3.5c1.4-0.5,2.9,0.2,3.5,1.6l7.6,21.1
		c0.5,1.4-0.2,2.9-1.6,3.5C176.7,177.2,176.4,177.2,176.1,177.2z"/>
	<path fill="#E57A23" d="M165.6,181c-1.1,0-2.2-0.6-2.6-1.8l-9.6-26.7c-0.5-1.4,0.2-2.9,1.6-3.5c1.4-0.5,2.9,0.2,3.5,1.6l9.6,26.7
		c0.5,1.4-0.2,2.9-1.6,3.5C166.2,181,165.9,181,165.6,181z"/>
	<path fill="#D4CD4D" d="M297,236.8c-32.6,0-81.2-5.2-81.2-19.5s48.6-19.5,81.2-19.5s81.2,5.2,81.2,19.5S329.6,236.8,297,236.8z
		 M297,203.2c-49.8,0-75.8,9.2-75.8,14.1c0,5,26,14.1,75.8,14.1s75.8-9.2,75.8-14.1C372.8,212.4,346.8,203.2,297,203.2z"/>
	<path fill="#D4CD4D" d="M297,392.2c-32.6,0-81.2-5.2-81.2-19.5c0-1.5,1.2-2.7,2.7-2.7c1.5,0,2.7,1.2,2.7,2.7c0,5,26,14.1,75.8,14.1
		s75.8-9.2,75.8-14.1c0-1.5,1.2-2.7,2.7-2.7c1.5,0,2.7,1.2,2.7,2.7C378.2,387,329.6,392.2,297,392.2z"/>
	<path fill="#E57A23" d="M260.7,254.1c-0.2,0-0.4,0-0.6-0.1c-7.3-1.8-11.8-4-14.1-6.8c-1-1.2-0.8-2.8,0.4-3.8c1.2-1,2.8-0.8,3.8,0.4
		c1.1,1.3,3.9,3.2,11.2,5c1.4,0.3,2.4,1.8,1.9,3.2C263,253.3,261.9,254.1,260.7,254.1z"/>
	<path fill="#E57A23" d="M293.7,257.5c-0.1,0-0.1,0-0.2,0h-0.1c-2.7-0.1-2.7-2.7-2.7-2.7s0-2.6,2.8-2.7l0,0h0.1h0.1l0,0
		c5.3,0,10.2-0.2,15.6-0.5c1.5-0.1,2.8,1,2.9,2.5c0.1,1.5-1,2.8-2.5,2.9c-5.5,0.3-10.4,0.5-15.8,0.5l0,0h-0.1H293.7z"/>
	<path fill="none" stroke="#D4CD4D" stroke-width="5" stroke-linecap="round" stroke-linejoin="round" stroke-miterlimit="10" d="
		M310.2,254.3"/>
	<path fill="#E57A23" d="M343,252.1c-1.1,0-2.1-0.6-2.5-1.7c-0.5-1.4,0.1-2.9,1.5-3.5c1.9-0.8,2.4-1.2,3.3-2.2l1.9,1.8l1.9,1.9
		c-1.4,1.4-2.4,2.4-5.3,3.5C343.7,252.1,343.3,252.1,343,252.1z"/>
	<path fill="#D4CD4D" d="M218.5,375.5c-1.5,0-2.7-1.2-2.7-2.7V217.3c0-1.5,1.2-2.7,2.7-2.7c1.5,0,2.7,1.2,2.7,2.7v155.5
		C221.2,374.3,220,375.5,218.5,375.5z"/>
	<path fill="#D4CD4D" d="M375.5,375.5c-1.5,0-2.7-1.2-2.7-2.7V217.3c0-1.5,1.2-2.7,2.7-2.7c1.5,0,2.7,1.2,2.7,2.7v155.5
		C378.2,374.3,376.9,375.5,375.5,375.5z"/>
	<path fill="#D4CD4D" d="M375.5,220c-1.5,0-2.7-1.2-2.7-2.7v-33.8c0-16.8-33.4-31.1-72.9-31.1h-5.7c-39.5,0-72.9,14.3-72.9,31.1
		v33.8c0,1.5-1.2,2.7-2.7,2.7c-1.5,0-2.7-1.2-2.7-2.7v-33.8c0-20.5,34.3-36.5,78.3-36.5h5.7c44,0,78.3,16.1,78.3,36.5v33.8
		C378.2,218.8,376.9,220,375.5,220z"/>
	<path fill="none" stroke="#D4CD4D" stroke-width="5" stroke-linecap="round" stroke-linejoin="round" stroke-miterlimit="10" d="
		M288.7,261.9"/>
	<path fill="#E57A23" d="M276.7,306.1c-10.4,0-18.8-10.4-18.8-23.2v-31.4c0-1.5,1.2-2.7,2.7-2.7c1.5,0,2.7,1.2,2.7,2.7v31.4
		c0,9.6,6.2,17.8,13.4,17.8c7.2,0,13.5-8.2,13.7-17.8l0.4-28c0-1.5,1.2-2.7,2.7-2.7l0,0c1.5,0,2.7,1.3,2.7,2.7l-0.4,28
		C295.6,295.8,287.1,306.1,276.7,306.1z"/>
	<path fill="#E57A23" d="M326.3,289.2c-10.8,0-19.5-8.2-19.5-18.4v-15.7c0-1.5,1.2-2.7,2.7-2.7c1.5,0,2.7,1.2,2.7,2.7v15.7
		c0,7.1,6.4,13,14.1,13c7.8,0,14.1-6.9,14.1-15.3v-17.9c0-1.5,1.2-2.7,2.7-2.7s2.7,1.2,2.7,2.7v18
		C345.7,279.9,337,289.2,326.3,289.2z"/>
</g>
</svg>
