<?xml version="1.0" encoding="utf-8"?>
<!-- Generator: Adobe Illustrator 17.1.0, SVG Export Plug-In . SVG Version: 6.00 Build 0)  -->
<!DOCTYPE svg PUBLIC "-//W3C//DTD SVG 1.1//EN" "http://www.w3.org/Graphics/SVG/1.1/DTD/svg11.dtd">
<svg version="1.1" id="Laag_1" xmlns="http://www.w3.org/2000/svg" xmlns:xlink="http://www.w3.org/1999/xlink" x="0px" y="0px"
	 viewBox="0 0 400 400" enable-background="new 0 0 400 400" xml:space="preserve">
<g>
	<g>
		<path fill="none" stroke="#B694C4" stroke-width="5" stroke-linecap="round" stroke-linejoin="round" stroke-miterlimit="10" d="
			M295.2,187.2"/>
		<path fill="#B694C4" d="M372.8,337.5c-0.5,0-0.9-0.1-1.4-0.3L281,295.4c-1.6-0.8-2.3-2.7-1.5-4.2c0.8-1.5,2.7-2.3,4.2-1.5
			l85.9,39.8V157.3l-85.9,39.8c-1.6,0.8-3.4,0-4.2-1.5c-0.8-1.6,0-3.4,1.5-4.2l90.3-41.9c1-0.5,2.2-0.4,3,0.3
			c0.9,0.6,1.5,1.6,1.5,2.7v181.9c0,1.1-0.5,2-1.5,2.7C374,337.4,373.4,337.5,372.8,337.5z"/>
		<path fill="#B694C4" d="M282.4,197.4c-1.8,0-3.2-1.4-3.2-3.2v-36.8h-42c-1.8,0-3.2-1.4-3.2-3.2c0-1.8,1.4-3.2,3.2-3.2h45.2
			c1.8,0,3.2,1.4,3.2,3.2v40C285.6,196,284.2,197.4,282.4,197.4z"/>
		<path fill="#B694C4" d="M176.7,157.5h-53c-1.8,0-3.2-1.4-3.2-3.2c0-1.8,1.4-3.2,3.2-3.2h53c1.8,0,3.2,1.4,3.2,3.2
			C179.9,156.1,178.5,157.5,176.7,157.5z"/>
		<path fill="#B694C4" d="M282.4,333.1H32c-1.8,0-3.2-1.4-3.2-3.2V154.3c0-1.8,1.4-3.2,3.2-3.2h35.4c1.8,0,3.2,1.4,3.2,3.2
			c0,1.8-1.4,3.2-3.2,3.2H35.1v169.2h244.1v-34.3c0-1.8,1.4-3.2,3.2-3.2c1.8,0,3.2,1.4,3.2,3.2v37.4
			C285.6,331.7,284.2,333.1,282.4,333.1z"/>
		<path fill="#B694C4" d="M67,157.5c-0.6,0-1.1-0.1-1.6-0.5c-16.1-10.3-25.8-27.9-25.8-47.1c0-30.8,25-55.8,55.8-55.8
			s55.8,25,55.8,55.8c0,19.2-9.6,36.8-25.8,47.1c-1.5,0.9-3.4,0.5-4.4-1c-0.9-1.5-0.5-3.4,1-4.4c14.3-9.1,22.8-24.7,22.8-41.7
			c0-27.3-22.2-49.5-49.5-49.5s-49.5,22.2-49.5,49.5c0,17,8.5,32.6,22.8,41.7c1.5,0.9,1.9,2.9,1,4.4C69,157,68,157.5,67,157.5z"/>
		<path fill="#B694C4" d="M176.5,157.5c-0.6,0-1.3-0.1-1.8-0.6c-14.7-10.4-23.6-27.5-23.6-45.5c0-30.8,25-55.8,55.8-55.8
			s55.8,25,55.8,55.8c0,18-8.8,35.1-23.6,45.5c-1.4,1-3.4,0.6-4.4-0.8c-1-1.4-0.6-3.4,0.8-4.4c13.1-9.3,20.9-24.4,20.9-40.3
			c0-27.3-22.2-49.5-49.5-49.5s-49.5,22.2-49.5,49.5c0,16,7.9,31.1,20.9,40.3c1.4,1,1.8,3,0.8,4.4
			C178.4,157.1,177.4,157.5,176.5,157.5z"/>
	</g>
	<path fill="#49B0D2" d="M212.6,257.6H87.9c-1.8,0-3.2-1.4-3.2-3.2v-65c0-1.8,1.4-3.2,3.2-3.2h124.7c1.8,0,3.2,1.4,3.2,3.2v65
		C215.8,256.2,214.3,257.6,212.6,257.6z M91,251.2h118.4v-58.6H91V251.2z"/>
	<path fill="#B694C4" d="M116.3,304.4c-8.5,0-15.4-6.9-15.4-15.4s6.9-15.4,15.4-15.4c8.5,0,15.4,6.9,15.4,15.4
		S124.8,304.4,116.3,304.4z M116.3,279.9c-4.9,0-9,4.1-9,9c0,4.9,4.1,9,9,9s9-4.1,9-9C125.4,284,121.3,279.9,116.3,279.9z"/>
	<path fill="#B694C4" d="M147.6,304.4c-0.5,0-1.1-0.1-1.6-0.4c-1-0.5-1.5-1.6-1.5-2.8v-24.6c0-1.1,0.6-2.2,1.6-2.8
		c1-0.5,2.2-0.5,3.2,0l21.3,12.3c1,0.5,1.5,1.6,1.5,2.8c0,1.1-0.6,2.2-1.6,2.8L149.1,304C148.7,304.3,148.1,304.4,147.6,304.4z
		 M150.7,282.2v13.6l11.8-6.7L150.7,282.2z"/>
	<path fill="#B694C4" d="M187,303.1c-1.8,0-3.2-1.4-3.2-3.2v-19.4c0-1.8,1.4-3.2,3.2-3.2c1.8,0,3.2,1.4,3.2,3.2v19.4
		C190.2,301.7,188.8,303.1,187,303.1z"/>
	<path fill="#B694C4" d="M196.3,303.1c-1.8,0-3.2-1.4-3.2-3.2v-19.4c0-1.8,1.4-3.2,3.2-3.2c1.8,0,3.2,1.4,3.2,3.2v19.4
		C199.4,301.7,198.1,303.1,196.3,303.1z"/>
</g>
</svg>
