<?xml version="1.0" encoding="utf-8"?>
<!-- Generator: Adobe Illustrator 17.1.0, SVG Export Plug-In . SVG Version: 6.00 Build 0)  -->
<!DOCTYPE svg PUBLIC "-//W3C//DTD SVG 1.1//EN" "http://www.w3.org/Graphics/SVG/1.1/DTD/svg11.dtd">
<svg version="1.1" id="Laag_1" xmlns="http://www.w3.org/2000/svg" xmlns:xlink="http://www.w3.org/1999/xlink" x="0px" y="0px"
	 viewBox="0 0 210 210" enable-background="new 0 0 210 210" xml:space="preserve">
<g>
	<path fill="none" stroke="#B694C4" stroke-width="5" stroke-linecap="round" stroke-linejoin="round" stroke-miterlimit="10" d="
		M140.9,103"/>
	<path fill="#B694C4" d="M169.2,157.9c-0.2,0-0.3,0-0.5-0.1l-33-15.3c-0.6-0.3-0.8-1-0.6-1.5c0.3-0.6,1-0.8,1.5-0.6l31.4,14.6V92.1
		l-31.4,14.6c-0.6,0.3-1.3,0-1.5-0.6c-0.3-0.6,0-1.3,0.6-1.5l33-15.3c0.4-0.2,0.8-0.1,1.1,0.1s0.6,0.6,0.6,1v66.5
		c0,0.4-0.2,0.7-0.6,1C169.7,157.9,169.5,157.9,169.2,157.9z"/>
	<path fill="#B694C4" d="M136.2,106.7c-0.6,0-1.2-0.5-1.2-1.2V92.1h-15.4c-0.6,0-1.2-0.5-1.2-1.2s0.5-1.2,1.2-1.2h16.5
		c0.6,0,1.2,0.5,1.2,1.2v14.6C137.4,106.2,136.9,106.7,136.2,106.7z"/>
	<path fill="#B694C4" d="M97.6,92.1H78.2c-0.6,0-1.2-0.5-1.2-1.2s0.5-1.2,1.2-1.2h19.4c0.6,0,1.2,0.5,1.2,1.2S98.2,92.1,97.6,92.1z"
		/>
	<path fill="#B694C4" d="M136.2,156.3H44.7c-0.6,0-1.2-0.5-1.2-1.2V91c0-0.6,0.5-1.2,1.2-1.2h12.9c0.6,0,1.2,0.5,1.2,1.2
		s-0.5,1.2-1.2,1.2H45.8V154h89.2v-12.5c0-0.6,0.5-1.2,1.2-1.2s1.2,0.5,1.2,1.2v13.7C137.4,155.8,136.9,156.3,136.2,156.3z"/>
	<path fill="#B694C4" d="M57.5,92.1c-0.2,0-0.4,0-0.6-0.2c-5.9-3.8-9.4-10.2-9.4-17.2c0-11.3,9.1-20.4,20.4-20.4s20.4,9.1,20.4,20.4
		c0,7-3.5,13.4-9.4,17.2c-0.6,0.3-1.3,0.2-1.6-0.4c-0.3-0.6-0.2-1.3,0.4-1.6c5.2-3.3,8.3-9,8.3-15.3c0-10-8.1-18.1-18.1-18.1
		s-18.1,8.1-18.1,18.1c0,6.2,3.1,11.9,8.3,15.3c0.6,0.3,0.7,1.1,0.4,1.6C58.2,91.9,57.8,92.1,57.5,92.1z"/>
	<path fill="#B694C4" d="M97.5,92.1c-0.2,0-0.5,0-0.6-0.2c-5.4-3.8-8.6-10.1-8.6-16.6c0-11.3,9.1-20.4,20.4-20.4S129,64,129,75.2
		c0,6.6-3.2,12.8-8.6,16.6c-0.5,0.4-1.3,0.2-1.6-0.3c-0.4-0.5-0.2-1.3,0.3-1.6c4.8-3.4,7.7-8.9,7.7-14.7c0-10-8.1-18.1-18.1-18.1
		s-18.1,8.1-18.1,18.1c0,5.8,2.9,11.4,7.7,14.7c0.5,0.4,0.6,1.1,0.3,1.6C98.2,92,97.8,92.1,97.5,92.1z"/>
</g>
<path fill="#49B0D2" d="M110.7,130.7H65.1c-0.6,0-1.2-0.5-1.2-1.2v-23.7c0-0.6,0.5-1.2,1.2-1.2h45.6c0.6,0,1.2,0.5,1.2,1.2v23.7
	C111.9,130.2,111.3,130.7,110.7,130.7z M66.2,128.4h43.3V107H66.2V128.4z"/>
</svg>
