<?xml version="1.0" encoding="utf-8"?>
<!-- Generator: Adobe Illustrator 17.1.0, SVG Export Plug-In . SVG Version: 6.00 Build 0)  -->
<!DOCTYPE svg PUBLIC "-//W3C//DTD SVG 1.1//EN" "http://www.w3.org/Graphics/SVG/1.1/DTD/svg11.dtd">
<svg version="1.1" id="Laag_1" xmlns="http://www.w3.org/2000/svg" xmlns:xlink="http://www.w3.org/1999/xlink" x="0px" y="0px"
	 viewBox="0 0 400 400" enable-background="new 0 0 400 400" xml:space="preserve">
<g>
	<path fill="none" stroke="#E9E8E9" stroke-width="5" stroke-linecap="round" stroke-linejoin="round" stroke-miterlimit="10" d="
		M116.5,324.6"/>
	<path fill="#6EC1AD" d="M319.6,327.5H190.4c-1.7,0-3-1.3-3-3c0-1.7,1.3-3,3-3h126.2V26.2H83.2v295.3H101c1.7,0,3,1.3,3,3
		c0,1.7-1.3,3-3,3H80.2c-1.7,0-3-1.3-3-3V23.3c0-1.7,1.3-3,3-3h239.4c1.7,0,3,1.3,3,3v301.3C322.5,326.2,321.2,327.5,319.6,327.5z"
		/>
	<g>
		<path fill="#6EC1AD" d="M145.9,298.6c-3.6,0-7.1-0.6-10.5-1.8c-1.5-0.6-2.4-2.3-1.8-3.8s2.3-2.4,3.8-1.8c3,1.1,6.2,1.5,9.4,1.4
			c1.7,0,3,1.2,3.1,2.9c0.1,1.7-1.2,3-2.9,3.1C146.6,298.6,146.3,298.6,145.9,298.6z M157.4,296.2c-1.2,0-2.3-0.7-2.7-1.8
			c-0.7-1.5,0-3.2,1.5-3.9c3-1.3,5.6-3.1,7.7-5.5c1.2-1.2,3-1.2,4.2-0.1c1.2,1.2,1.2,3,0.1,4.2c-2.7,2.9-6,5.1-9.6,6.8
			C158.1,296.1,157.7,296.2,157.4,296.2z M127.2,291.5c-0.7,0-1.4-0.2-2-0.7c-3-2.6-5.4-5.8-7.1-9.4c-0.7-1.4-0.1-3.2,1.3-3.9
			c1.4-0.7,3.2-0.1,3.9,1.3c1.4,2.9,3.3,5.5,5.7,7.6c1.2,1.1,1.3,3,0.2,4.2C128.9,291.2,128.1,291.5,127.2,291.5z M171.8,281.1
			c-0.4,0-0.7-0.1-1.1-0.2c-1.5-0.6-2.3-2.4-1.7-3.9c1.2-3,1.8-6.1,1.8-9.3c0-1.2-0.1-2.5-0.2-3.7c-0.2-1.7,0.8-3.1,2.5-3.3
			s3.1,0.8,3.3,2.5c0.2,1.4,0.4,3,0.4,4.5c0,4-0.7,7.9-2.3,11.6C174.2,280.5,173,281.1,171.8,281.1z M118.1,272.8
			c-1.5,0-2.9-1.2-3-2.7c0-0.7-0.1-1.5-0.1-2.3c0-3.2,0.5-6.4,1.4-9.4c0.5-1.5,2.1-2.4,3.7-1.9c1.5,0.5,2.4,2.1,1.9,3.7
			c-0.8,2.5-1.2,5-1.2,7.6c0,0.6,0,1.2,0.1,1.8c0.1,1.7-1.1,3.1-2.7,3.2L118.1,272.8z M170,256.6c-1.1,0-2-0.5-2.6-1.4
			c-1.7-2.7-3.7-5.1-6.3-7.1c-1.3-1-1.5-2.9-0.6-4.2s2.9-1.5,4.2-0.6c3.1,2.4,5.7,5.4,7.7,8.8c0.8,1.4,0.4,3.2-1.1,4
			C171.1,256.4,170.6,256.6,170,256.6z M124.4,252.9c-0.7,0-1.3-0.2-1.9-0.7c-1.3-1.1-1.4-3-0.4-4.2c2.5-3.1,5.6-5.6,9.2-7.5
			c1.4-0.8,3.2-0.2,4,1.2c0.8,1.4,0.2,3.2-1.2,4c-2.9,1.5-5.4,3.6-7.4,6.1C126.2,252.5,125.3,252.9,124.4,252.9z M153.4,243.8
			c-0.2,0-0.6,0-0.8-0.1c-2.1-0.6-4.4-1-6.8-1c-1,0-1.8,0-2.7,0.1c-1.7,0.1-3.1-1-3.3-2.6s1-3,2.6-3.2c1.1-0.1,2.3-0.1,3.3-0.1l0,0
			c2.9,0,5.6,0.2,8.3,1.1c1.5,0.5,2.5,2,2,3.6C155.9,243,154.7,243.8,153.4,243.8z"/>
		<path fill="#EC923F" d="M159.7,307.3H132c-0.6,0-1.1-0.2-1.5-0.6L109.3,289c-0.5-0.4-0.7-0.8-0.8-1.4l-4.8-27.3
			c-0.1-0.6,0-1.1,0.2-1.5l13.8-24.1c0.2-0.5,0.7-0.8,1.2-1.1l26.1-9.5c0.5-0.2,1.1-0.2,1.7,0l26.1,9.5c0.5,0.2,1,0.6,1.2,1.1
			l13.8,24.1c0.2,0.5,0.4,1.1,0.2,1.5l-4.8,27.3c-0.1,0.6-0.4,1.1-0.8,1.4l-21.2,17.7C160.9,307.1,160.3,307.3,159.7,307.3z
			 M133,302.5h26l19.9-16.7l4.5-25.5l-13-22.5l-24.4-8.9l-24.4,8.9l-13,22.5l4.4,25.5L133,302.5z"/>
		<path fill="#6EC1AD" d="M175.5,378.7c-0.8,0-1.8-0.4-2.3-1.1L145.7,344l-27.5,33.7c-0.8,1-2.1,1.3-3.3,1c-1.2-0.5-2-1.5-2-2.9
			v-73.2c0-1.7,1.3-3,3-3c1.7,0,3,1.3,3,3v64.9l24.5-30c0.6-0.7,1.4-1.1,2.3-1.1c0.8,0,1.8,0.4,2.3,1.1l24.5,30v-64.9
			c0-1.7,1.3-3,3-3c1.7,0,3,1.3,3,3v73.2c0,1.3-0.8,2.4-2,2.9C176.2,378.7,175.8,378.7,175.5,378.7z"/>
	</g>
	<path fill="#EC923F" d="M190.4,65.5h-75c-1.7,0-3-1.3-3-3s1.3-3,3-3h75c1.7,0,3,1.3,3,3S192,65.5,190.4,65.5z"/>
	<path fill="#6EC1AD" d="M238,104.8H115.3c-1.7,0-3-1.3-3-3c0-1.7,1.3-3,3-3H238c1.7,0,3,1.3,3,3C241,103.5,239.7,104.8,238,104.8z"
		/>
	<path fill="#6EC1AD" d="M210.6,132.2h-95.3c-1.7,0-3-1.3-3-3s1.3-3,3-3h95.3c1.7,0,3,1.3,3,3S212.3,132.2,210.6,132.2z"/>
	<path fill="#6EC1AD" d="M190.4,158.4h-75c-1.7,0-3-1.3-3-3c0-1.7,1.3-3,3-3h75c1.7,0,3,1.3,3,3C193.3,157.1,192,158.4,190.4,158.4z
		"/>
</g>
</svg>
