<?xml version="1.0" encoding="utf-8"?>
<!-- Generator: Adobe Illustrator 17.1.0, SVG Export Plug-In . SVG Version: 6.00 Build 0)  -->
<!DOCTYPE svg PUBLIC "-//W3C//DTD SVG 1.1//EN" "http://www.w3.org/Graphics/SVG/1.1/DTD/svg11.dtd">
<svg version="1.1" id="Laag_1" xmlns="http://www.w3.org/2000/svg" xmlns:xlink="http://www.w3.org/1999/xlink" x="0px" y="0px"
	 viewBox="0 0 400 400" enable-background="new 0 0 400 400" xml:space="preserve">
<g>
	<rect x="333" y="206" fill="none" width="31" height="44"/>
	<path fill="none" d="M86.7,140.3c14.1,0,25.5-11.4,25.5-25.5c0-14.1-11.4-25.5-25.5-25.5c-14.1,0-25.5,11.4-25.5,25.5
		C61.1,128.9,72.6,140.3,86.7,140.3z"/>
	<path fill="none" d="M207,206v44h123v-44H207z M278.8,236h-56.1c-0.8,0-1.5-0.7-1.5-1.5s0.7-1.5,1.5-1.5h56.1
		c0.8,0,1.5,0.7,1.5,1.5S279.6,236,278.8,236z M305.3,219h-82.6c-0.8,0-1.5-0.7-1.5-1.5s0.7-1.5,1.5-1.5h82.6c0.8,0,1.5,0.7,1.5,1.5
		S306.1,219,305.3,219z"/>
	<rect x="161" y="206" fill="none" width="31" height="44"/>
	<path fill="none" d="M269.8,134.5c0-0.1,0-0.1-0.1-0.1s-0.1,0-0.1,0.1C269.6,134.6,269.8,134.6,269.8,134.5z"/>
	<rect x="161" y="286" fill="none" width="77" height="56"/>
	<path fill="none" d="M269.8,121.2c0-0.1,0-0.1-0.1-0.1s-0.1,0-0.1,0.1C269.6,121.4,269.8,121.4,269.8,121.2z"/>
	<path fill="none" d="M338.3,120.7C338.3,120.7,338.3,120.7,338.3,120.7c0.2-0.7,0.4-1.3,0.5-1.9c0,0,0-0.1,0-0.1
		c0.1-0.6,0.2-1.2,0.3-1.9c0,0,0-0.1,0-0.1c0.1-0.6,0.1-1.3,0.1-2c0-0.6,0-1.2-0.1-1.8c0-0.2,0-0.3,0-0.5c-0.1-0.6-0.1-1.1-0.3-1.7
		c0,0,0-0.1,0-0.1c-0.1-0.6-0.3-1.1-0.4-1.7c0-0.1-0.1-0.3-0.1-0.4c-0.2-0.5-0.4-1.1-0.6-1.6c0,0,0,0,0,0c-0.2-0.6-0.5-1.1-0.8-1.7
		c0,0,0-0.1-0.1-0.1c-3.4-6.1-9.9-10.3-17.4-10.3c-10.9,0-19.8,8.9-19.8,19.8c0,10.9,8.9,19.8,19.8,19.8c8.2,0,15.2-5,18.2-12.1
		c0,0,0,0,0,0C337.8,121.9,338.1,121.3,338.3,120.7z"/>
	<path fill="none" d="M199.9,57.9c0-0.1,0-0.1-0.1-0.1c-0.1,0-0.1,0-0.1,0.1C199.7,58.1,199.9,58.1,199.9,57.9z"/>
	<path fill="none" d="M24,264h351V67H24V264z M367,251.5c0,0.8-0.7,1.5-1.5,1.5h-160c-0.8,0-1.5-0.7-1.5-1.5v-47
		c0-0.8,0.7-1.5,1.5-1.5H330h3h32.5c0.8,0,1.5,0.7,1.5,1.5V251.5z M319.4,92c8.2,0,15.5,4.4,19.5,10.9c0,0,0,0.1,0.1,0.1
		c0.1,0.2,0.2,0.4,0.4,0.6c0.1,0.1,0.1,0.2,0.2,0.4c0.1,0.2,0.2,0.5,0.4,0.7c0.1,0.2,0.2,0.4,0.3,0.6c0.1,0.2,0.2,0.4,0.3,0.6
		c0.2,0.4,0.3,0.8,0.4,1.1c0.1,0.2,0.1,0.3,0.2,0.5c0.1,0.3,0.2,0.6,0.3,0.9c0,0.1,0.1,0.3,0.1,0.4c0.1,0.4,0.2,0.9,0.3,1.3
		c0,0,0,0,0,0c0.1,0.5,0.2,0.9,0.2,1.4c0,0.1,0,0.2,0,0.4c0,0.4,0.1,0.7,0.1,1.1c0,0.1,0,0.3,0,0.4c0,0.5,0,0.9,0,1.4
		c0,0.4,0,0.8,0,1.2c0,0.2,0,0.4,0,0.6c0,0.2,0,0.4,0,0.6c0,0.3-0.1,0.5-0.1,0.8c0,0.1,0,0.2-0.1,0.4c0,0.3-0.1,0.6-0.2,0.8
		c0,0.1,0,0.2-0.1,0.3c-0.1,0.3-0.1,0.6-0.2,0.9c0,0.1,0,0.2-0.1,0.3c-0.1,0.3-0.2,0.6-0.2,0.9c0,0.1,0,0.2-0.1,0.2
		c-0.1,0.3-0.2,0.6-0.3,0.9c0,0.1-0.1,0.1-0.1,0.2c-0.1,0.3-0.2,0.6-0.3,0.9c0,0,0,0.1-0.1,0.1c-0.1,0.2-0.2,0.5-0.3,0.7
		c0,0,0,0,0,0.1c-3.7,7.7-11.5,13.1-20.6,13.1c-12.6,0-22.8-10.2-22.8-22.8C296.6,102.2,306.8,92,319.4,92z M269.9,91.6
		c1.7,0,3.1,1.4,3.1,3.1c0,1.7-1.4,3.1-3.1,3.1c-1.7,0-3.1-1.4-3.1-3.1C266.8,93,268.2,91.6,269.9,91.6z M269.9,104.9
		c1.7,0,3.1,1.4,3.1,3.1c0,1.7-1.4,3.1-3.1,3.1c-1.7,0-3.1-1.4-3.1-3.1C266.8,106.3,268.2,104.9,269.9,104.9z M269.7,118.1
		c1.7,0,3.1,1.4,3.1,3.1c0,1.7-1.4,3.1-3.1,3.1s-3.1-1.4-3.1-3.1C266.6,119.5,268,118.1,269.7,118.1z M269.7,131.4
		c1.7,0,3.1,1.4,3.1,3.1c0,1.7-1.4,3.1-3.1,3.1s-3.1-1.4-3.1-3.1C266.6,132.8,268,131.4,269.7,131.4z M132.9,109h60.9
		c0.8,0,1.5,0.7,1.5,1.5s-0.7,1.5-1.5,1.5h-60.9c-0.8,0-1.5-0.7-1.5-1.5S132.1,109,132.9,109z M132.9,118H163c0.8,0,1.5,0.7,1.5,1.5
		s-0.7,1.5-1.5,1.5h-30.1c-0.8,0-1.5-0.7-1.5-1.5S132.1,118,132.9,118z M86.7,86.3c15.7,0,28.5,12.8,28.5,28.5
		c0,15.7-12.8,28.5-28.5,28.5s-28.5-12.8-28.5-28.5C58.1,99.1,70.9,86.3,86.7,86.3z M34,173h331.6c0.8,0,1.5,0.7,1.5,1.5
		s-0.7,1.5-1.5,1.5H34c-0.8,0-1.5-0.7-1.5-1.5S33.2,173,34,173z M32,204.5c0-0.8,0.7-1.5,1.5-1.5H158h3h32.5c0.8,0,1.5,0.7,1.5,1.5
		v47c0,0.8-0.7,1.5-1.5,1.5h-160c-0.8,0-1.5-0.7-1.5-1.5V204.5z"/>
	<path fill="none" d="M270,94.7c0-0.1,0-0.1-0.1-0.1c-0.1,0-0.1,0-0.1,0.1C269.8,94.8,270,94.8,270,94.7z"/>
	<path fill="none" d="M383.5,52H16.5C12.4,52,9,55.4,9,59.5v215.9c0,4.2,3.4,7.5,7.5,7.5H158h83h142.5c4.2,0,7.5-3.4,7.5-7.5V59.5
		C391,55.4,387.6,52,383.5,52z M199.8,54.8c1.7,0,3.1,1.4,3.1,3.1c0,1.7-1.4,3.1-3.1,3.1c-1.7,0-3.1-1.4-3.1-3.1
		C196.7,56.2,198.1,54.8,199.8,54.8z M378,264.3c0,1.5-1.2,2.7-2.7,2.7H23.7c-1.5,0-2.7-1.2-2.7-2.7V66.7c0-1.5,1.2-2.7,2.7-2.7
		h351.6c1.5,0,2.7,1.2,2.7,2.7V264.3z"/>
	<path fill="none" d="M270,108c0-0.1,0-0.1-0.1-0.1c-0.1,0-0.1,0-0.1,0.1C269.8,108.1,270,108.1,270,108z"/>
	<path fill="none" d="M158,206H35v44h123V206z M106.4,236H50.3c-0.8,0-1.5-0.7-1.5-1.5s0.7-1.5,1.5-1.5h56.1c0.8,0,1.5,0.7,1.5,1.5
		S107.2,236,106.4,236z M132.9,219H50.3c-0.8,0-1.5-0.7-1.5-1.5s0.7-1.5,1.5-1.5h82.6c0.8,0,1.5,0.7,1.5,1.5S133.7,219,132.9,219z"
		/>
	<path fill="#9198AF" d="M375.3,64H23.7c-1.5,0-2.7,1.2-2.7,2.7v197.6c0,1.5,1.2,2.7,2.7,2.7h351.6c1.5,0,2.7-1.2,2.7-2.7V66.7
		C378,65.2,376.8,64,375.3,64z M375,264H24V67h351V264z"/>
	<path fill="#9198AF" d="M383.5,49H16.5C10.7,49,6,53.7,6,59.5v215.9c0,5.8,4.7,10.5,10.5,10.5H158v56h-20v4h20h83h20v-4h-20v-56
		h142.5c5.8,0,10.5-4.7,10.5-10.5V59.5C394,53.7,389.3,49,383.5,49z M238,342h-77v-56h77V342z M391,275.5c0,4.2-3.4,7.5-7.5,7.5H241
		h-83H16.5c-4.2,0-7.5-3.4-7.5-7.5V59.5c0-4.2,3.4-7.5,7.5-7.5h366.9c4.2,0,7.5,3.4,7.5,7.5V275.5z"/>
	<path fill="#C7C13B" d="M199.8,61.1c1.7,0,3.1-1.4,3.1-3.1c0-1.7-1.4-3.1-3.1-3.1c-1.7,0-3.1,1.4-3.1,3.1
		C196.7,59.7,198.1,61.1,199.8,61.1z M199.8,57.8c0.1,0,0.1,0,0.1,0.1c0,0.1-0.2,0.1-0.2,0C199.7,57.9,199.7,57.8,199.8,57.8z"/>
	<path fill="#2D3244" d="M86.7,143.3c15.7,0,28.5-12.8,28.5-28.5c0-15.7-12.8-28.5-28.5-28.5s-28.5,12.8-28.5,28.5
		C58.1,130.5,70.9,143.3,86.7,143.3z M86.7,89.3c14.1,0,25.5,11.4,25.5,25.5c0,14.1-11.4,25.5-25.5,25.5
		c-14.1,0-25.5-11.4-25.5-25.5C61.1,100.7,72.6,89.3,86.7,89.3z"/>
	<path fill="#9198AF" d="M34,176h331.6c0.8,0,1.5-0.7,1.5-1.5s-0.7-1.5-1.5-1.5H34c-0.8,0-1.5,0.7-1.5,1.5S33.2,176,34,176z"/>
	<path fill="#AA8BBE" d="M33.5,253h160c0.8,0,1.5-0.7,1.5-1.5v-47c0-0.8-0.7-1.5-1.5-1.5H161h-3H33.5c-0.8,0-1.5,0.7-1.5,1.5v47
		C32,252.3,32.7,253,33.5,253z M192,206v44h-31v-44H192z M35,206h123v44H35V206z"/>
	<path fill="#C7C13B" d="M132.9,216H50.3c-0.8,0-1.5,0.7-1.5,1.5s0.7,1.5,1.5,1.5h82.6c0.8,0,1.5-0.7,1.5-1.5S133.7,216,132.9,216z"
		/>
	<path fill="#C7C13B" d="M106.4,233H50.3c-0.8,0-1.5,0.7-1.5,1.5s0.7,1.5,1.5,1.5h56.1c0.8,0,1.5-0.7,1.5-1.5S107.2,233,106.4,233z"
		/>
	<path fill="#AA8BBE" d="M365.5,203H333h-3H205.5c-0.8,0-1.5,0.7-1.5,1.5v47c0,0.8,0.7,1.5,1.5,1.5h160c0.8,0,1.5-0.7,1.5-1.5v-47
		C367,203.7,366.3,203,365.5,203z M207,250v-44h123v44H207z M364,250h-31v-44h31V250z"/>
	<path fill="#C7C13B" d="M305.3,216h-82.6c-0.8,0-1.5,0.7-1.5,1.5s0.7,1.5,1.5,1.5h82.6c0.8,0,1.5-0.7,1.5-1.5S306.1,216,305.3,216z
		"/>
	<path fill="#C7C13B" d="M278.8,233h-56.1c-0.8,0-1.5,0.7-1.5,1.5s0.7,1.5,1.5,1.5h56.1c0.8,0,1.5-0.7,1.5-1.5S279.6,233,278.8,233z
		"/>
	<path fill="#C7C13B" d="M132.9,112h60.9c0.8,0,1.5-0.7,1.5-1.5s-0.7-1.5-1.5-1.5h-60.9c-0.8,0-1.5,0.7-1.5,1.5S132.1,112,132.9,112
		z"/>
	<path fill="#C7C13B" d="M132.9,121H163c0.8,0,1.5-0.7,1.5-1.5s-0.7-1.5-1.5-1.5h-30.1c-0.8,0-1.5,0.7-1.5,1.5S132.1,121,132.9,121z
		"/>
	<path fill="#56BFA0" d="M269.9,111.1c1.7,0,3.1-1.4,3.1-3.1c0-1.7-1.4-3.1-3.1-3.1c-1.7,0-3.1,1.4-3.1,3.1
		C266.8,109.7,268.2,111.1,269.9,111.1z M269.9,107.9c0.1,0,0.1,0,0.1,0.1c0,0.1-0.2,0.1-0.2,0C269.8,107.9,269.8,107.9,269.9,107.9
		z"/>
	<path fill="#3FAECD" d="M269.9,97.8c1.7,0,3.1-1.4,3.1-3.1c0-1.7-1.4-3.1-3.1-3.1c-1.7,0-3.1,1.4-3.1,3.1
		C266.8,96.4,268.2,97.8,269.9,97.8z M269.9,94.6c0.1,0,0.1,0,0.1,0.1c0,0.1-0.2,0.1-0.2,0C269.8,94.7,269.8,94.6,269.9,94.6z"/>
	<path fill="#E47E31" d="M269.7,124.4c1.7,0,3.1-1.4,3.1-3.1c0-1.7-1.4-3.1-3.1-3.1s-3.1,1.4-3.1,3.1
		C266.6,123,268,124.4,269.7,124.4z M269.7,121.1c0.1,0,0.1,0,0.1,0.1c0,0.1-0.2,0.1-0.2,0C269.6,121.2,269.7,121.1,269.7,121.1z"/>
	<path fill="#AA8BBE" d="M269.7,137.6c1.7,0,3.1-1.4,3.1-3.1c0-1.7-1.4-3.1-3.1-3.1s-3.1,1.4-3.1,3.1
		C266.6,136.2,268,137.6,269.7,137.6z M269.7,134.4c0.1,0,0.1,0,0.1,0.1c0,0.1-0.2,0.1-0.2,0C269.6,134.5,269.7,134.4,269.7,134.4z"
		/>
	<path fill="#AA8BBE" d="M342,111.9c0,0.4,0.1,0.7,0.1,1.1C342.1,112.7,342,112.3,342,111.9z"/>
	<path fill="#AA8BBE" d="M342.1,113.4c0,0.5,0,0.9,0,1.4C342.2,114.3,342.2,113.9,342.1,113.4z"/>
	<path fill="#AA8BBE" d="M336.8,105.4c0.3,0.5,0.6,1.1,0.8,1.7C337.4,106.5,337.1,106,336.8,105.4z"/>
	<path fill="#AA8BBE" d="M341.4,108.9c0.1,0.4,0.2,0.9,0.3,1.3C341.6,109.7,341.5,109.3,341.4,108.9z"/>
	<path fill="#AA8BBE" d="M341,107.5c0.1,0.3,0.2,0.6,0.3,0.9C341.2,108.1,341.1,107.8,341,107.5z"/>
	<path fill="#AA8BBE" d="M341.7,110.2c0.1,0.5,0.2,0.9,0.2,1.4C341.9,111.1,341.8,110.7,341.7,110.2z"/>
	<path fill="#AA8BBE" d="M338.8,110.9c0.1,0.5,0.2,1.1,0.3,1.7C339,112,338.9,111.4,338.8,110.9z"/>
	<path fill="#AA8BBE" d="M338.3,109.1c0.2,0.6,0.3,1.1,0.4,1.7C338.6,110.2,338.5,109.7,338.3,109.1z"/>
	<path fill="#AA8BBE" d="M339.1,113c0.1,0.6,0.1,1.2,0.1,1.8C339.2,114.2,339.1,113.6,339.1,113z"/>
	<path fill="#AA8BBE" d="M320.9,93.5c0,0.8-0.7,1.5-1.5,1.5c7.5,0,14,4.2,17.4,10.3c-0.1-0.2-0.3-0.5-0.4-0.7
		c-0.4-0.7-0.2-1.6,0.5-2.1c0.7-0.4,1.6-0.2,2,0.4c-4-6.6-11.2-10.9-19.5-10.9C320.2,92,320.9,92.7,320.9,93.5z"/>
	<path fill="#AA8BBE" d="M337.6,107.1c0.2,0.5,0.4,1.1,0.6,1.6C338,108.2,337.8,107.7,337.6,107.1z"/>
	<path fill="#AA8BBE" d="M339.3,103.7c0.1,0.1,0.1,0.2,0.2,0.4C339.4,103.9,339.3,103.8,339.3,103.7z"/>
	<path fill="#AA8BBE" d="M339.8,104.8c0.1,0.2,0.2,0.4,0.3,0.6C340,105.1,339.9,104.9,339.8,104.8z"/>
	<path fill="#AA8BBE" d="M340.4,105.9c0.2,0.4,0.3,0.8,0.4,1.1C340.7,106.7,340.5,106.3,340.4,105.9z"/>
	<path fill="#3FAECD" d="M319.4,137.6c9.1,0,17-5.4,20.6-13.1c-0.3,0.5-0.8,0.8-1.3,0.8c-0.2,0-0.4,0-0.6-0.1
		c-0.8-0.4-1.1-1.3-0.7-2c0.1-0.2,0.2-0.5,0.3-0.7c-3,7.1-10,12.1-18.2,12.1c-10.9,0-19.8-8.9-19.8-19.8c0,0.8-0.7,1.5-1.5,1.5
		c-0.8,0-1.5-0.7-1.5-1.5C296.6,127.4,306.8,137.6,319.4,137.6z"/>
	<path fill="#3FAECD" d="M338.3,120.7c-0.2,0.6-0.4,1.2-0.7,1.8C337.9,121.9,338.1,121.3,338.3,120.7z"/>
	<path fill="#3FAECD" d="M338.7,118.8c-0.1,0.6-0.3,1.2-0.5,1.8C338.5,120.1,338.6,119.4,338.7,118.8z"/>
	<path fill="#3FAECD" d="M339.1,116.9c-0.1,0.6-0.2,1.3-0.3,1.9C338.9,118.1,339,117.5,339.1,116.9z"/>
	<path fill="#3FAECD" d="M339.2,114.8c0,0.7,0,1.3-0.1,2C339.1,116.1,339.2,115.5,339.2,114.8z"/>
	<path fill="#3FAECD" d="M340.8,122.6c0,0.1-0.1,0.1-0.1,0.2C340.8,122.7,340.8,122.6,340.8,122.6z"/>
	<path fill="#3FAECD" d="M342,118c0,0.1,0,0.2-0.1,0.4C341.9,118.2,341.9,118.1,342,118z"/>
	<path fill="#3FAECD" d="M341.7,119.2c0,0.1,0,0.2-0.1,0.3C341.7,119.4,341.7,119.3,341.7,119.2z"/>
	<path fill="#3FAECD" d="M341.2,121.5c0,0.1,0,0.2-0.1,0.2C341.1,121.6,341.2,121.5,341.2,121.5z"/>
	<path fill="#3FAECD" d="M342.1,116.6c0,0.2,0,0.4,0,0.6C342.1,117,342.1,116.8,342.1,116.6z"/>
	<path fill="#3FAECD" d="M342.2,114.8c0,0.4,0,0.8,0,1.2C342.2,115.6,342.2,115.2,342.2,114.8z"/>
	<path fill="#3FAECD" d="M341.5,120.3c0,0.1,0,0.2-0.1,0.3C341.5,120.5,341.5,120.4,341.5,120.3z"/>
	<path fill="#3FAECD" d="M340.4,123.6c0,0,0,0.1-0.1,0.1C340.4,123.7,340.4,123.7,340.4,123.6z"/>
	<path fill="#56BFA0" d="M298.1,116.3c0.8,0,1.5-0.7,1.5-1.5c0-10.9,8.9-19.8,19.8-19.8c0.8,0,1.5-0.7,1.5-1.5
		c0-0.8-0.7-1.5-1.5-1.5c-12.6,0-22.8,10.2-22.8,22.8C296.6,115.6,297.2,116.3,298.1,116.3z"/>
	<path fill="#E47E31" d="M336.8,102.5c-0.7,0.4-0.9,1.4-0.5,2.1c0.1,0.2,0.3,0.5,0.4,0.7c0,0,0,0.1,0.1,0.1c0.3,0.5,0.6,1.1,0.8,1.7
		c0,0,0,0,0,0c0.2,0.5,0.4,1.1,0.6,1.6c0,0.1,0.1,0.3,0.1,0.4c0.2,0.6,0.3,1.1,0.4,1.7c0,0,0,0.1,0,0.1c0.1,0.5,0.2,1.1,0.3,1.7
		c0,0.2,0,0.3,0,0.5c0.1,0.6,0.1,1.2,0.1,1.8c0,0.7,0,1.3-0.1,2c0,0,0,0.1,0,0.1c-0.1,0.6-0.2,1.3-0.3,1.9c0,0,0,0.1,0,0.1
		c-0.1,0.6-0.3,1.2-0.5,1.8c0,0,0,0.1,0,0.1c-0.2,0.6-0.4,1.2-0.7,1.8c0,0,0,0,0,0c-0.1,0.2-0.2,0.5-0.3,0.7c-0.4,0.8,0,1.7,0.7,2
		c0.2,0.1,0.4,0.1,0.6,0.1c0.5,0,1.1-0.3,1.3-0.8c0,0,0,0,0-0.1c0.1-0.2,0.2-0.5,0.3-0.7c0,0,0-0.1,0.1-0.1c0.1-0.3,0.2-0.6,0.3-0.9
		c0-0.1,0.1-0.1,0.1-0.2c0.1-0.3,0.2-0.6,0.3-0.9c0-0.1,0-0.2,0.1-0.2c0.1-0.3,0.2-0.6,0.2-0.9c0-0.1,0-0.2,0.1-0.3
		c0.1-0.3,0.1-0.6,0.2-0.9c0-0.1,0-0.2,0.1-0.3c0.1-0.3,0.1-0.6,0.2-0.8c0-0.1,0-0.2,0.1-0.4c0-0.3,0.1-0.5,0.1-0.8
		c0-0.2,0-0.4,0-0.6c0-0.2,0-0.4,0-0.6c0-0.4,0-0.8,0-1.2c0-0.5,0-0.9,0-1.4c0-0.1,0-0.3,0-0.4c0-0.4-0.1-0.7-0.1-1.1
		c0-0.1,0-0.2,0-0.4c-0.1-0.5-0.1-0.9-0.2-1.4c0,0,0,0,0,0c-0.1-0.4-0.2-0.9-0.3-1.3c0-0.1-0.1-0.3-0.1-0.4
		c-0.1-0.3-0.2-0.6-0.3-0.9c-0.1-0.2-0.1-0.3-0.2-0.5c-0.1-0.4-0.3-0.8-0.4-1.1c-0.1-0.2-0.2-0.4-0.3-0.6c-0.1-0.2-0.2-0.4-0.3-0.6
		c-0.1-0.2-0.2-0.5-0.4-0.7c-0.1-0.1-0.1-0.2-0.2-0.4c-0.1-0.2-0.2-0.4-0.4-0.6c0,0,0-0.1-0.1-0.1
		C338.4,102.3,337.5,102.1,336.8,102.5z"/>
</g>
</svg>
