<?xml version="1.0" encoding="utf-8"?>
<!-- Generator: Adobe Illustrator 17.1.0, SVG Export Plug-In . SVG Version: 6.00 Build 0)  -->
<!DOCTYPE svg PUBLIC "-//W3C//DTD SVG 1.1//EN" "http://www.w3.org/Graphics/SVG/1.1/DTD/svg11.dtd">
<svg version="1.1" id="Laag_1" xmlns="http://www.w3.org/2000/svg" xmlns:xlink="http://www.w3.org/1999/xlink" x="0px" y="0px"
	 viewBox="0 0 210 210" enable-background="new 0 0 210 210" xml:space="preserve">
<g>
	<g>
		<path fill="none" stroke="#D2CB4B" stroke-width="5" stroke-linecap="round" stroke-linejoin="round" stroke-miterlimit="10" d="
			M86.2,127.5c2.6,5.5,1.6,11.4-2.3,13.3c-3.8,1.8-9.1-1.1-11.7-6.6L66.9,123c-2.6-5.5-1.6-11.4,2.3-13.3c3.8-1.8,9.1,1.1,11.7,6.6
			L86.2,127.5z"/>
	</g>
	<g>
		<path fill="none" stroke="#D2CB4B" stroke-width="5" stroke-linecap="round" stroke-linejoin="round" stroke-miterlimit="10" d="
			M102.7,120.1c2.6,5.5,1.6,11.4-2.3,13.3s-9.1-1.1-11.7-6.6l-8.6-18c-2.6-5.5-1.6-11.4,2.3-13.3s9.1,1.1,11.7,6.6L102.7,120.1z"/>
	</g>
	<g>
		<path fill="none" stroke="#D2CB4B" stroke-width="5" stroke-linecap="round" stroke-linejoin="round" stroke-miterlimit="10" d="
			M89.7,89.4l-9.8-40.1c-1.4-5.9,0.8-11.5,4.9-12.5s8.7,3,10.1,8.9l10.2,41.8"/>
	</g>
	<g>
		<path fill="none" stroke="#D2CB4B" stroke-width="5" stroke-linecap="round" stroke-linejoin="round" stroke-miterlimit="10" d="
			M112.8,87.6l15.6-40.1c2.2-5.6,7.2-9,11.2-7.4c4,1.5,5.4,7.4,3.2,13.1L126.6,95"/>
	</g>
	<path fill="none" stroke="#D2CB4B" stroke-width="5" stroke-linecap="round" stroke-linejoin="round" stroke-miterlimit="10" d="
		M68.5,126.2c0,0,3.8,31.2,12.7,37.5c0,0,0.7,2.8,1.2,5.5c0.5,2.7,0.5,2.7,0.5,2.7s22,5.3,36.5,0v-10.7c0,0,11.8-20.2,14.5-27.7
		c0,0-6-26-14.5-34c0,0-3.3-4.8-23-5.3c0,0-2.6,15.2,14.8,18.7l1,12.5"/>
</g>
</svg>
