<?xml version="1.0" encoding="utf-8"?>
<!-- Generator: Adobe Illustrator 17.1.0, SVG Export Plug-In . SVG Version: 6.00 Build 0)  -->
<!DOCTYPE svg PUBLIC "-//W3C//DTD SVG 1.1//EN" "http://www.w3.org/Graphics/SVG/1.1/DTD/svg11.dtd">
<svg version="1.1" id="Laag_1" xmlns="http://www.w3.org/2000/svg" xmlns:xlink="http://www.w3.org/1999/xlink" x="0px" y="0px"
	 viewBox="0 0 400 400" enable-background="new 0 0 400 400" xml:space="preserve">
<g>
	<g>
		<path fill="#60BCA0" d="M175.4,120.2c-0.9,0-1.8-0.4-2.4-1.2c-0.9-1.2-0.6-3,0.7-3.9l17.5-12.1c1.2-0.9,3-0.6,3.9,0.7
			s0.6,3-0.7,3.9L177,119.6C176.4,120.1,175.8,120.2,175.4,120.2z"/>
		<path fill="#60BCA0" d="M249.6,227.5c-0.9,0-1.8-0.4-2.4-1.2c-0.9-1.2-0.6-3,0.7-3.9l17.5-12.1c1.2-0.9,3-0.6,3.9,0.7
			s0.6,3-0.7,3.9L251.2,227C250.7,227.3,250.1,227.5,249.6,227.5z"/>
		<path fill="#60BCA0" d="M324.7,334.2c-0.9,0-1.8-0.4-2.4-1.2c-0.9-1.2-0.6-3,0.7-3.9l17.5-12.1c1.2-0.9,3-0.6,3.9,0.7
			s0.6,3-0.7,3.9l-17.5,12.1C325.9,334.1,325.3,334.2,324.7,334.2z"/>
		<path fill="#60BCA0" d="M198.2,153.2c-0.9,0-1.8-0.4-2.4-1.2c-0.9-1.2-0.6-3,0.7-3.9l11.9-8.2c1.2-0.9,3-0.6,3.9,0.7
			s0.6,3-0.7,3.9l-11.9,8.2C199.3,153.1,198.8,153.2,198.2,153.2z"/>
		<path fill="#60BCA0" d="M223.7,190.1c-0.9,0-1.8-0.4-2.4-1.2c-0.9-1.2-0.6-3,0.7-3.9l11.9-8.2c1.2-0.9,3-0.6,3.9,0.7
			s0.6,3-0.7,3.9l-11.9,8.2C224.8,189.9,224.3,190.1,223.7,190.1z"/>
		<path fill="#60BCA0" d="M274.6,263.7c-0.9,0-1.8-0.4-2.4-1.2c-0.9-1.2-0.6-3,0.7-3.9l12-8.2c1.2-0.9,3-0.6,3.9,0.7s0.6,3-0.7,3.9
			l-11.9,8.2C275.7,263.5,275.2,263.7,274.6,263.7z"/>
		<path fill="#60BCA0" d="M300.1,300.5c-0.9,0-1.8-0.4-2.4-1.2c-0.9-1.2-0.6-3,0.7-3.9l11.9-8.2c1.2-0.9,3-0.6,3.9,0.7
			s0.6,3-0.7,3.9l-11.9,8.2C301.3,300.4,300.7,300.5,300.1,300.5z"/>
		<path fill="#9C9FB6" d="M341.5,298.9c-0.9,0-1.8-0.4-2.4-1.2c-0.9-1.2-0.6-3,0.7-3.9c48.9-33.8,61.1-101.2,27.3-150.2
			c-16.4-23.7-41-39.6-69.5-44.7c-28.3-5.2-57,1-80.7,17.4c-1.2,0.9-3,0.6-3.9-0.7s-0.6-3,0.7-3.9c25-17.3,55.1-23.8,84.9-18.3
			c29.8,5.4,55.7,22.1,73.1,47.1c35.6,51.5,22.7,122.3-28.7,157.9C342.5,298.8,341.9,298.9,341.5,298.9z"/>
		<path fill="#9C9FB6" d="M323.7,272.5c-0.9,0-1.8-0.4-2.4-1.2c-0.9-1.2-0.6-3,0.7-3.9c18.1-12.6,30.2-30.7,34.1-51
			c3.8-20-0.6-40.2-12.3-57.2c-24.5-35.4-71.1-42.6-108.5-16.9c-1.2,0.9-3,0.6-3.9-0.7s-0.6-3,0.7-3.9c19.4-13.4,42-18.9,63.6-15.3
			c21.4,3.5,40,15.4,52.6,33.6s17.3,40,13.1,61.5c-4.2,21.8-17.1,41.2-36.4,54.6C324.9,272.3,324.3,272.5,323.7,272.5z"/>
		<path fill="#9C9FB6" d="M322.6,273.3c-0.9,0-1.8-0.4-2.4-1.2l-89.8-129.7c-0.9-1.2-0.6-3,0.7-3.9s3-0.6,3.9,0.7l89.8,129.7
			c0.9,1.2,0.6,3-0.7,3.9C323.7,273.2,323.2,273.3,322.6,273.3z"/>
		<path fill="none" stroke="#DC696B" stroke-width="5" stroke-linecap="round" stroke-linejoin="round" stroke-miterlimit="10" d="
			M224.4,128.6"/>
		<path fill="#9C9FB6" d="M341.2,359.8c-0.9,0-1.8-0.4-2.4-1.2L156.3,94.8c-0.4-0.6-0.6-1.3-0.4-2.1c0.1-0.8,0.6-1.3,1.1-1.8
			l27.9-19.3c0.6-0.4,1.3-0.6,2.1-0.4s1.3,0.6,1.8,1.1L217,113c0.9,1.2,0.6,3-0.7,3.9s-3,0.6-3.9-0.7l-26.6-38.4l-23.3,16.1
			l179.5,259.2l23.3-16.2l-26.7-38.7c-0.9-1.2-0.6-3,0.7-3.9s3-0.6,3.9,0.7l28.4,41c0.4,0.6,0.6,1.3,0.4,2.1
			c-0.1,0.8-0.6,1.3-1.1,1.8L343,359.3C342.3,359.6,341.7,359.8,341.2,359.8z"/>
	</g>
	<g>
		<path fill="#60BCA0" d="M99.1,127.3c-1.3,0-2.5-1-2.8-2.4c-0.2-1.6,0.8-3,2.2-3.3l27.1-4.7c1.6-0.2,3,0.8,3.3,2.2
			c0.2,1.6-0.8,3-2.2,3.3l-27.1,4.7C99.4,127.3,99.2,127.3,99.1,127.3z"/>
		<path fill="#60BCA0" d="M52.8,135.4c-1.3,0-2.5-1-2.8-2.4c-0.2-1.6,0.8-3,2.2-3.3l33.3-5.8c1.6-0.2,3,0.8,3.3,2.2
			c0.2,1.6-0.8,3-2.2,3.3l-33.3,5.8C53.1,135.4,53,135.4,52.8,135.4z"/>
		<path fill="#60BCA0" d="M133.9,129c-5.2,0-9.6-3.7-10.5-8.8c-0.4-2.8,0.1-5.6,1.8-8c1.7-2.4,4-3.9,6.9-4.4
			c0.6-0.1,1.2-0.1,1.9-0.1c5.2,0,9.6,3.7,10.5,8.8c1,5.7-2.8,11.4-8.7,12.4C135.1,128.9,134.5,129,133.9,129z M133.9,113.2
			c-0.3,0-0.6,0-0.9,0.1c-1.3,0.2-2.5,1-3.3,2c-0.8,1.1-1,2.5-0.8,3.7c0.4,2.7,3.1,4.6,5.8,4c2.7-0.4,4.6-3.1,4-5.8
			C138.4,115,136.4,113.2,133.9,113.2z"/>
		<path fill="#60BCA0" d="M28.7,83.9c-0.8,0-1.6-0.3-2.1-1c-4.3-5.2-7.2-11.5-8.3-18.1c-1.8-10.3,0.4-20.7,6.5-29.3
			c6-8.5,14.9-14.3,25.3-16.1s20.7,0.4,29.3,6.5c8.5,6,14.3,14.9,16.1,25.3c1.1,6.6,0.6,13.5-1.7,19.9c-0.6,1.5-2.1,2.2-3.6,1.7
			c-1.5-0.6-2.2-2.1-1.7-3.6c1.9-5.4,2.4-11.4,1.3-17C86.7,34,69.2,21.8,51,24.9c-18.2,3.3-30.5,20.7-27.2,38.9
			c1,5.7,3.5,11,7.1,15.5c1,1.2,0.8,2.9-0.3,3.9C29.9,83.8,29.4,83.9,28.7,83.9z"/>
		<path fill="#9C9FB6" d="M39.8,313.3C39.8,313.3,39.7,313.3,39.8,313.3c-1.3,0-2.4-0.9-2.7-2l-5.7-19.4c-0.1-0.3-0.1-0.6-0.1-0.9
			l8.2-223c0.1-1.6,1.3-2.8,2.9-2.7l12.8,0.4c1.6,0.1,2.8,1.3,2.7,2.9l-8.2,223c0,0.3-0.1,0.6-0.2,0.9l-7.1,19
			C42.1,312.5,41,313.3,39.8,313.3z M37,290.6l3.1,10.9l4-10.7l8.1-219.6L45.1,71L37,290.6z"/>
		<path fill="#9C9FB6" d="M159.2,292.2c-0.8,0-1.6-0.3-2.1-1l-13.1-15.4c-0.2-0.2-0.3-0.4-0.4-0.8L59.4,68.4c-0.6-1.5,0.1-3,1.6-3.7
			l11.9-4.8c0.7-0.2,1.5-0.2,2.1,0c0.7,0.3,1.2,0.8,1.5,1.6l84.1,206.7c0.1,0.2,0.2,0.6,0.2,0.9l1.3,20.2c0.1,1.2-0.7,2.4-1.8,2.8
			C159.9,292.2,159.5,292.2,159.2,292.2z M148.4,272.5l7.4,8.7l-0.8-11.4L72.3,66.1l-6.6,2.7L148.4,272.5z"/>
	</g>
	<g>
		<path fill="#60BCA0" d="M271,361.5c-1.5,0-2.7-1.1-2.8-2.6l-1.6-21.8c-0.1-1.6,1-2.9,2.6-3s2.9,1,3,2.6l1.6,21.8
			c0.1,1.6-1,2.9-2.6,3C271.1,361.5,271,361.5,271,361.5z"/>
		<path fill="#60BCA0" d="M64.2,376.7c-1.5,0-2.7-1.1-2.8-2.6l-1.6-21.8c-0.1-1.6,1-2.9,2.6-3c1.6-0.1,2.9,1,3,2.6l1.6,21.8
			c0.1,1.6-1,2.9-2.6,3C64.3,376.6,64.3,376.7,64.2,376.7z"/>
		<path fill="#60BCA0" d="M19.4,358c-1.5,0-2.7-1.1-2.8-2.6l-0.8-11.2c-0.1-1.6,1-2.9,2.6-3c1.6-0.1,2.9,1,3,2.6l0.8,11.2
			c0.1,1.6-1,2.9-2.6,3C19.5,358,19.4,358,19.4,358z"/>
		<path fill="#60BCA0" d="M18.5,346.8c-1.5,0-2.7-1.1-2.8-2.6c-0.1-1.6,1-2.9,2.6-3l64.7-4.7c1.6-0.1,2.9,1,3,2.6
			c0.1,1.6-1,2.9-2.6,3l-64.7,4.7C18.7,346.8,18.6,346.8,18.5,346.8z"/>
		<path fill="#9C9FB6" d="M10.4,380.6c-1.5,0-2.7-1.1-2.8-2.6L6,356.2c0-0.8,0.2-1.5,0.7-2s1.1-0.9,1.9-1l260.6-19.1
			c0.3,0,0.7,0,1,0.1l29.7,8.8c1.1,0.3,1.9,1.3,2,2.5s-0.6,2.2-1.6,2.8l-28.1,13c-0.3,0.1-0.7,0.2-1,0.2L10.6,380.6
			C10.5,380.6,10.4,380.6,10.4,380.6z M11.7,358.6l1.2,16.2l257.3-18.9l20.8-9.7l-22-6.5L11.7,358.6z"/>
	</g>
</g>
</svg>
