<?xml version="1.0" encoding="utf-8"?>
<!-- Generator: Adobe Illustrator 17.1.0, SVG Export Plug-In . SVG Version: 6.00 Build 0)  -->
<!DOCTYPE svg PUBLIC "-//W3C//DTD SVG 1.1//EN" "http://www.w3.org/Graphics/SVG/1.1/DTD/svg11.dtd">
<svg version="1.1" id="Laag_1" xmlns="http://www.w3.org/2000/svg" xmlns:xlink="http://www.w3.org/1999/xlink" x="0px" y="0px"
	 viewBox="0 0 400 400" enable-background="new 0 0 400 400" xml:space="preserve">
<g>
	<path fill="#E38381" d="M261,113h-24c-1.4,0-2.5-1.1-2.5-2.5s1.1-2.5,2.5-2.5h24c1.4,0,2.5,1.1,2.5,2.5S262.4,113,261,113z"/>
	<path fill="#E38381" d="M264,121h-27c-1.4,0-2.5-1.1-2.5-2.5s1.1-2.5,2.5-2.5h27c1.4,0,2.5,1.1,2.5,2.5S265.4,121,264,121z"/>
	<path fill="#E38381" d="M257,129h-20c-1.4,0-2.5-1.1-2.5-2.5s1.1-2.5,2.5-2.5h20c1.4,0,2.5,1.1,2.5,2.5S258.4,129,257,129z"/>
	<path fill="#E38381" d="M250.6,145c-14.9,0-27.1-12.2-27.1-27.1s12.2-27.1,27.1-27.1s27.1,12.2,27.1,27.1S265.6,145,250.6,145z
		 M250.6,95.8c-12.2,0-22.1,9.9-22.1,22.1s9.9,22.1,22.1,22.1s22.1-9.9,22.1-22.1S262.8,95.8,250.6,95.8z"/>
</g>
<g>
	<path fill="#B89EC9" d="M153.5,162.5c-1.4,0-2.5-1.1-2.5-2.5v-21c0-1.4,1.1-2.5,2.5-2.5s2.5,1.1,2.5,2.5v21
		C156,161.4,154.9,162.5,153.5,162.5z"/>
	<path fill="#B89EC9" d="M161.5,162.5c-1.4,0-2.5-1.1-2.5-2.5v-14c0-1.4,1.1-2.5,2.5-2.5s2.5,1.1,2.5,2.5v14
		C164,161.4,162.9,162.5,161.5,162.5z"/>
	<path fill="#B89EC9" d="M168.5,162.5c-1.4,0-2.5-1.1-2.5-2.5v-9c0-1.4,1.1-2.5,2.5-2.5s2.5,1.1,2.5,2.5v9
		C171,161.4,169.9,162.5,168.5,162.5z"/>
	<path fill="#B89EC9" d="M171,168h-20c-1.4,0-2.5-1.1-2.5-2.5s1.1-2.5,2.5-2.5h20c1.4,0,2.5,1.1,2.5,2.5S172.4,168,171,168z"/>
	<path fill="#B89EC9" d="M160.5,179.6c-14.9,0-27.1-12.2-27.1-27.1s12.2-27.1,27.1-27.1s27.1,12.2,27.1,27.1
		S175.4,179.6,160.5,179.6z M160.5,130.4c-12.2,0-22.1,9.9-22.1,22.1c0,12.2,9.9,22.1,22.1,22.1s22.1-9.9,22.1-22.1
		C182.5,140.4,172.6,130.4,160.5,130.4z"/>
</g>
<path fill="none" stroke="#4BBAD6" stroke-width="5" stroke-linecap="round" stroke-linejoin="round" stroke-miterlimit="10" d="
	M230.1,186.8"/>
<path fill="none" stroke="#4BBAD6" stroke-width="5" stroke-linecap="round" stroke-linejoin="round" stroke-miterlimit="10" d="
	M235.2,181.6"/>
<path fill="#4BBAD6" d="M225.5,185.5c-1.4,0-2.5-1.1-2.5-2.5v-16c0-0.9,0.4-1.7,1.2-2.1c0.7-0.5,1.7-0.5,2.4-0.1l22.4,11.1
	c0.8,0.4,1.4,1.3,1.4,2.2c0,0.9-0.5,1.8-1.4,2.2l-9.1,4.6c-1.2,0.6-2.7,0.1-3.4-1.1c-0.6-1.2-0.1-2.7,1.1-3.4l4.7-2.4L228,171v12
	C228,184.4,226.9,185.5,225.5,185.5z"/>
<path fill="#4BBAD6" d="M211.2,188.3c-1,0-2-0.6-2.3-1.6c-1.1-3-1.7-6.3-1.7-9.5c0-14.9,12.2-27.1,27.1-27.1s27.1,12.2,27.1,27.1
	c0,3.3-0.6,6.5-1.7,9.5c-0.5,1.3-1.9,1.9-3.2,1.5c-1.3-0.5-1.9-1.9-1.5-3.2c0.9-2.5,1.4-5.1,1.4-7.8c0-12.2-9.9-22.1-22.1-22.1
	s-22.1,9.9-22.1,22.1c0,2.7,0.5,5.3,1.4,7.8c0.5,1.3-0.2,2.7-1.5,3.2C211.8,188.2,211.5,188.3,211.2,188.3z"/>
<g>
	<path fill="#65C7AF" d="M191.4,122.2c-14.9,0-27.1-12.2-27.1-27.1s12.2-27.1,27.1-27.1c14.9,0,27.1,12.2,27.1,27.1
		S206.4,122.2,191.4,122.2z M191.4,73.1c-12.2,0-22.1,9.9-22.1,22.1s9.9,22.1,22.1,22.1s22.1-9.9,22.1-22.1S203.6,73.1,191.4,73.1z"
		/>
	<path fill="#65C7AF" d="M191.3,110.4c-0.7,0-1.3-0.3-1.8-0.7c-0.5-0.5-0.7-1.1-0.7-1.8c0-0.7,0.3-1.3,0.7-1.8
		c0.9-0.9,2.6-0.9,3.5,0c0.5,0.5,0.7,1.1,0.7,1.8c0,0.7-0.3,1.3-0.7,1.8C192.6,110.1,192,110.4,191.3,110.4z"/>
	<path fill="#65C7AF" d="M191,104.3c-1.3,0-2.4-1.1-2.5-2.4l0-0.2c-0.1-2.5-0.3-7.6,2.6-10.9c1.3-1.5,2.6-3.7,2.3-5
		c-0.1-0.3-0.2-0.8-1.1-1.3c-2.4-1.3-3.8,0.8-4.1,1.3c-0.7,1.2-2.3,1.5-3.4,0.8c-1.2-0.7-1.5-2.3-0.8-3.4c1.7-2.7,5.9-5.7,10.8-3
		c2.5,1.4,3.4,3.4,3.6,4.8c0.6,3.3-1.5,6.9-3.5,9.2c-1.6,1.7-1.4,5.7-1.4,7.3l0,0.2C193.6,103.1,192.5,104.3,191,104.3
		C191.1,104.3,191.1,104.3,191,104.3z"/>
</g>
<path fill="none" stroke="#A1A8BC" stroke-width="5" stroke-linecap="round" stroke-linejoin="round" stroke-miterlimit="10" d="
	M189.5,277.4"/>
<path fill="#A1A8BC" d="M209.3,280.4c-0.5,0-1.1-0.2-1.5-0.5c-1.1-0.9-1.3-2.4-0.4-3.5l64-81.3H229c-1.4,0-2.5-1.1-2.5-2.5
	s1.1-2.5,2.5-2.5h47.5c1,0,1.8,0.5,2.2,1.4c0.4,0.9,0.3,1.9-0.3,2.6l-67.2,85.4C210.8,280.1,210.1,280.4,209.3,280.4z"/>
<path fill="#A1A8BC" d="M229,195h-4c-1.4,0-2.5-1.1-2.5-2.5s1.1-2.5,2.5-2.5h4c1.4,0,2.5,1.1,2.5,2.5S230.4,195,229,195z"/>
<path fill="#A1A8BC" d="M189.3,280.4c-0.7,0-1.5-0.3-2-1L121.5,194c-0.6-0.8-0.7-1.8-0.3-2.6c0.4-0.9,1.3-1.4,2.2-1.4H225
	c1.4,0,2.5,1.1,2.5,2.5s-1.1,2.5-2.5,2.5h-96.4l62.7,81.3c0.8,1.1,0.6,2.7-0.5,3.5C190.3,280.2,189.8,280.4,189.3,280.4z"/>
<path fill="#A1A8BC" d="M209.5,329h-19.1c-1.4,0-2.5-1.1-2.5-2.5l-1-49.5c0-1.4,1.1-2.5,2.4-2.5c1.4-0.1,2.5,1.1,2.5,2.4l0.9,47H207
	v-47c0-1.4,1.1-2.5,2.5-2.5s2.5,1.1,2.5,2.5v49.5C212,327.9,210.9,329,209.5,329z"/>
<path fill="#A1A8BC" d="M192,214h-54c-1.4,0-2.5-1.1-2.5-2.5s1.1-2.5,2.5-2.5h54c1.4,0,2.5,1.1,2.5,2.5S193.4,214,192,214z"/>
<path fill="#A1A8BC" d="M183,229h-32c-1.4,0-2.5-1.1-2.5-2.5s1.1-2.5,2.5-2.5h32c1.4,0,2.5,1.1,2.5,2.5S184.4,229,183,229z"/>
<path fill="#A1A8BC" d="M175,244h-13c-1.4,0-2.5-1.1-2.5-2.5s1.1-2.5,2.5-2.5h13c1.4,0,2.5,1.1,2.5,2.5S176.4,244,175,244z"/>
</svg>
