<?xml version="1.0" encoding="utf-8"?>
<!-- Generator: Adobe Illustrator 17.1.0, SVG Export Plug-In . SVG Version: 6.00 Build 0)  -->
<!DOCTYPE svg PUBLIC "-//W3C//DTD SVG 1.1//EN" "http://www.w3.org/Graphics/SVG/1.1/DTD/svg11.dtd">
<svg version="1.1" id="Laag_1" xmlns="http://www.w3.org/2000/svg" xmlns:xlink="http://www.w3.org/1999/xlink" x="0px" y="0px"
	 viewBox="0 0 400 400" enable-background="new 0 0 400 400" xml:space="preserve">
<g>
	<g>
		<g>
			<path fill="#60BCA0" d="M123.7,123.5c-0.3,0-0.6-0.1-0.9-0.3c-17.9-10.7-29.1-30.5-29.1-51.9s11.1-41.2,29.1-51.9
				c0.9-0.5,2-0.2,2.5,0.6c0.5,0.9,0.2,2-0.6,2.5c-16.8,10-27.3,28.7-27.3,48.7s10.5,38.7,27.3,48.7c0.9,0.5,1.2,1.6,0.6,2.5
				C124.9,123.2,124.3,123.5,123.7,123.5z"/>
		</g>
		<g>
			<path fill="#60BCA0" d="M179.5,123.4c-0.6,0-1.2-0.3-1.6-0.9c-0.5-0.9-0.2-2,0.6-2.5c16.8-9.9,27.2-28.5,27.2-48.6
				c0-20-10.5-38.7-27.3-48.7c-0.9-0.5-1.2-1.6-0.6-2.5c0.5-0.9,1.6-1.1,2.5-0.6c17.9,10.7,29.1,30.6,29.1,51.9
				c0,21.4-11.1,41.2-29,51.8C180.2,123.3,179.8,123.4,179.5,123.4z"/>
		</g>
		<g>
			<path fill="#60BCA0" d="M179.4,81.8h-55.7c-1,0-1.8-0.8-1.8-1.8V21.1c0-1,0.8-1.8,1.8-1.8c1,0,1.8,0.8,1.8,1.8v57.1h52.1V21.1
				c0-1,0.8-1.8,1.8-1.8s1.8,0.8,1.8,1.8V80C181.2,81,180.4,81.8,179.4,81.8z"/>
		</g>
	</g>
	<g>
		<g>
			<path fill="#60BCA0" d="M123.8,381.6c-0.3,0-0.6-0.1-0.9-0.3c-17.9-10.7-29.1-30.5-29.1-51.9c0-21.5,11.2-41.4,29.3-52
				c0.9-0.5,2-0.2,2.5,0.7c0.5,0.9,0.2,2-0.7,2.5c-17,9.9-27.5,28.6-27.5,48.8c0,20.1,10.5,38.7,27.3,48.7c0.9,0.5,1.2,1.6,0.6,2.5
				C125,381.2,124.4,381.6,123.8,381.6z"/>
		</g>
		<g>
			<path fill="#60BCA0" d="M179.4,381.6c-0.6,0-1.2-0.3-1.6-0.9c-0.5-0.9-0.2-2,0.6-2.5c16.8-10.1,27.3-28.7,27.3-48.7
				c0-20.2-10.5-38.9-27.5-48.8c-0.9-0.5-1.2-1.6-0.7-2.5c0.5-0.9,1.6-1.2,2.5-0.7c18.1,10.6,29.3,30.5,29.3,52
				c0,21.3-11.1,41.2-29.1,51.9C180.1,381.5,179.7,381.6,179.4,381.6z"/>
		</g>
		<g>
			<path fill="#60BCA0" d="M179.4,381.6c-1,0-1.8-0.8-1.8-1.8v-57h-52.1v57c0,1-0.8,1.8-1.8,1.8c-1,0-1.8-0.8-1.8-1.8v-58.8
				c0-1,0.8-1.8,1.8-1.8h55.7c1,0,1.8,0.8,1.8,1.8v58.8C181.2,380.7,180.4,381.6,179.4,381.6z"/>
		</g>
	</g>
	<g>
		<path fill="#60BCA0" d="M124,280.8c-1,0-1.8-0.8-1.8-1.8l-0.3-157c0-1,0.8-1.8,1.8-1.8c0,0,0,0,0,0c1,0,1.8,0.8,1.8,1.8l0.3,157
			C125.8,280,125,280.8,124,280.8C124,280.8,124,280.8,124,280.8z"/>
	</g>
	<g>
		<path fill="none" stroke="#60BCA0" stroke-width="5" stroke-linecap="round" stroke-linejoin="round" stroke-miterlimit="10" d="
			M123.7,279.4"/>
	</g>
	<g>
		<path fill="#60BCA0" d="M179.1,280.9c-1,0-1.8-0.8-1.8-1.8V121.7c0-1,0.8-1.8,1.8-1.8s1.8,0.8,1.8,1.8v157.4
			C180.9,280.1,180.1,280.9,179.1,280.9z"/>
	</g>
	<g>
		<path fill="#49B0D2" d="M288.3,197.1h-24.5c-1,0-1.8-0.8-1.8-1.8V49.7l-5.3-11.3c-0.2-0.4-0.2-0.9-0.1-1.3l5.4-18.7
			c0.2-0.8,0.9-1.3,1.8-1.3h24.5c0.8,0,1.5,0.5,1.8,1.3l5.4,18.7c0.1,0.4,0.1,0.9-0.1,1.3l-5.3,11.3v145.6
			C290.1,196.3,289.3,197.1,288.3,197.1z M265.6,193.5h20.8V49.3c0-0.3,0.1-0.5,0.2-0.8l5.2-11l-4.9-16.7h-21.8l-4.9,16.7l5.2,11
			c0.1,0.2,0.2,0.5,0.2,0.8V193.5z"/>
	</g>
	<polyline fill="none" points="288.3,42.8 288.3,54.1 263.8,54.1 263.8,42.8 	"/>
	<g>
		<path fill="#49B0D2" d="M304.4,382h-56.6c-1,0-1.8-0.8-1.8-1.8V245.6c0-0.4,0.1-0.7,0.3-1l7-10l-7-9.6c-0.2-0.3-0.3-0.7-0.3-1.1
			v-28.5c0-1,0.8-1.8,1.8-1.8h56.6c1,0,1.8,0.8,1.8,1.8v28.5c0,0.4-0.1,0.8-0.3,1.1l-6.9,9.6l6.9,10.1c0.2,0.3,0.3,0.7,0.3,1v134.6
			C306.2,381.2,305.4,382,304.4,382z M249.6,378.3h53V246.2l-7.3-10.6c-0.4-0.6-0.4-1.5,0-2.1l7.3-10.2v-26.1h-53v26.1l7.4,10.2
			c0.5,0.6,0.5,1.5,0,2.1l-7.4,10.6V378.3z"/>
	</g>
	<g>
		<path fill="#49B0D2" d="M266.7,382c-1,0-1.8-0.8-1.8-1.8V270.6c0-1,0.8-1.8,1.8-1.8s1.8,0.8,1.8,1.8v109.5
			C268.6,381.2,267.7,382,266.7,382z"/>
	</g>
	<g>
		<path fill="#49B0D2" d="M285.6,382c-1,0-1.8-0.8-1.8-1.8V270.6c0-1,0.8-1.8,1.8-1.8s1.8,0.8,1.8,1.8v109.5
			C287.4,381.2,286.6,382,285.6,382z"/>
	</g>
</g>
</svg>
