<?xml version="1.0" encoding="utf-8"?>
<!-- Generator: Adobe Illustrator 17.1.0, SVG Export Plug-In . SVG Version: 6.00 Build 0)  -->
<!DOCTYPE svg PUBLIC "-//W3C//DTD SVG 1.1//EN" "http://www.w3.org/Graphics/SVG/1.1/DTD/svg11.dtd">
<svg version="1.1" id="Laag_1" xmlns="http://www.w3.org/2000/svg" xmlns:xlink="http://www.w3.org/1999/xlink" x="0px" y="0px"
	 viewBox="0 0 400 400" enable-background="new 0 0 400 400" xml:space="preserve">
<path fill="#4DBDD7" d="M216.5,157.7c-0.4,0-0.8-0.1-1.2-0.4L198,144.7l-17.3,12.5c-0.7,0.5-1.7,0.5-2.4,0c-0.7-0.5-1-1.4-0.7-2.2
	l6.6-20l-17.3-12.3c-0.7-0.5-1-1.4-0.7-2.2s1-1.4,1.9-1.4h21.4l6.6-20.4c0.3-0.8,1-1.4,1.9-1.4s1.6,0.6,1.9,1.4l6.6,20.4h21.4
	c0.9,0,1.6,0.6,1.9,1.4c0.3,0.8,0,1.7-0.7,2.2l-17.3,12.3l6.6,20.2c0.3,0.8,0,1.7-0.7,2.2C217.3,157.6,216.9,157.7,216.5,157.7z
	 M198,140.2c0.4,0,0.8,0.1,1.2,0.4l13.5,9.9l-5.1-15.7c-0.3-0.8,0-1.7,0.7-2.3l13.4-9.5h-16.6c-0.9,0-1.6-0.6-1.9-1.4l-5.2-15.9
	l-5.2,15.9c-0.3,0.8-1,1.4-1.9,1.4h-16.6l13.4,9.5c0.7,0.5,1,1.4,0.7,2.3l-5.1,15.6l13.5-9.8C197.2,140.3,197.6,140.2,198,140.2z"/>
<path fill="#4DBDD7" d="M228,184h-60c-1.1,0-2-0.9-2-2s0.9-2,2-2h60c1.1,0,2,0.9,2,2S229.1,184,228,184z"/>
<path fill="#6DC1AD" d="M239.4,216h-82.7c-0.7,0-1.4-0.4-1.7-1l-41.4-72c-0.4-0.6-0.4-1.4,0-2l41.4-72c0.4-0.6,1-1,1.7-1h82.7
	c0.7,0,1.4,0.4,1.7,1l41.4,72c0.4,0.6,0.4,1.4,0,2l-41.4,72C240.7,215.6,240.1,216,239.4,216z M157.8,212h80.4l40.2-70l-40.2-70
	h-80.4l-40.2,70L157.8,212z"/>
<path fill="#B99FCA" d="M141,299H81c-1.1,0-2-0.9-2-2s0.9-2,2-2h60c1.1,0,2,0.9,2,2S142.1,299,141,299z"/>
<path fill="#EC923F" d="M152.4,332H69.6c-0.7,0-1.4-0.4-1.7-1l-41.4-72c-0.4-0.6-0.4-1.4,0-2l41.4-72c0.4-0.6,1-1,1.7-1H125
	c1.1,0,2,0.9,2,2s-0.9,2-2,2H70.8l-40.2,70l40.2,70h80.4l40.2-70.1l-18.7-32.6c-0.5-1-0.2-2.2,0.7-2.7c1-0.5,2.2-0.2,2.7,0.7
	l19.2,33.6c0.4,0.6,0.4,1.4,0,2L154.1,331C153.8,331.6,153.1,332,152.4,332z"/>
<path fill="#EC923F" d="M316,299h-60c-1.1,0-2-0.9-2-2s0.9-2,2-2h60c1.1,0,2,0.9,2,2S317.1,299,316,299z"/>
<path fill="#EC923F" d="M296,251h-20c-1.1,0-2-0.9-2-2s0.9-2,2-2h20c1.1,0,2,0.9,2,2S297.1,251,296,251z"/>
<path fill="#E48482" d="M327.4,332h-82.7c-0.7,0-1.4-0.4-1.7-1l-41.4-72.2c-0.4-0.6-0.4-1.4,0-2l19.2-33.4c0.6-1,1.8-1.3,2.7-0.7
	c1,0.6,1.3,1.8,0.7,2.7l-18.7,32.4l40.2,70.2h80.4l40.2-70l-40.2-70H271c-1.1,0-2-0.9-2-2s0.9-2,2-2h56.4c0.7,0,1.4,0.4,1.7,1
	l41.4,72c0.4,0.6,0.4,1.4,0,2l-41.4,72C328.7,331.6,328.1,332,327.4,332z"/>
<path fill="#B99FCA" d="M111,284.3c-17.6,0-32-14.4-32-32s14.4-32,32-32s32,14.4,32,32S128.6,284.3,111,284.3z M111,224.3
	c-15.4,0-28,12.6-28,28s12.6,28,28,28s28-12.6,28-28S126.4,224.3,111,224.3z"/>
<path fill="#B99FCA" d="M111,274.6c-2.3,0-4.6-0.4-6.9-1.1c-1.1-0.3-1.6-1.5-1.3-2.5c0.3-1.1,1.5-1.6,2.5-1.3
	c3.6,1.2,7.7,1.2,11.3,0c1.1-0.3,2.2,0.2,2.5,1.3c0.3,1.1-0.2,2.2-1.3,2.5C115.7,274.2,113.4,274.6,111,274.6z M94.6,266.2
	c-0.6,0-1.2-0.3-1.6-0.8c-2.8-3.8-4.3-8.5-4.3-13.3c0-1.1,0.9-2.2,2-2.2c0,0,0,0,0,0c1.1,0,2,1.1,2,2.2c0,3.9,1.2,7.7,3.5,10.8
	c0.7,0.9,0.5,2.2-0.4,2.8C95.4,266.1,95,266.2,94.6,266.2z M127.4,266.2c-0.4,0-0.8-0.1-1.2-0.4c-0.9-0.6-1.1-1.9-0.4-2.8
	c2.3-3.1,3.5-6.8,3.5-10.7c0-1.1,0.8-2,1.9-2s1.9,0.9,1.9,2v0.1c0,4.7-1.3,9.3-4.1,13.1C128.5,265.9,128,266.2,127.4,266.2z
	 M94.6,242.4c-0.4,0-0.8-0.1-1.2-0.4c-0.9-0.6-1.1-1.9-0.4-2.8c2.7-3.8,6.7-6.7,11.1-8.1c1-0.3,2.2,0.2,2.5,1.3
	c0.3,1-0.2,2.2-1.3,2.5c-3.6,1.2-6.9,3.6-9.1,6.7C95.8,242.1,95.2,242.4,94.6,242.4z M127.4,242.3c-0.6,0-1.2-0.3-1.6-0.8
	c-2.3-3.1-5.5-5.4-9.2-6.6c-1.1-0.3-1.6-1.5-1.3-2.5c0.3-1.1,1.5-1.6,2.5-1.3c4.4,1.4,8.4,4.3,11.2,8.1c0.7,0.9,0.5,2.1-0.4,2.8
	C128.2,242.2,127.8,242.3,127.4,242.3z"/>
<path fill="#EC923F" d="M305.7,245c-0.7,0-1.4-0.4-1.7-1l-17.6-30.5L268.7,244c-0.6,1-1.8,1.3-2.7,0.7c-1-0.6-1.3-1.8-0.7-2.7
	l19.3-33.5c0.4-0.6,1-1,1.7-1s1.4,0.4,1.7,1l19.3,33.5c0.6,1,0.2,2.2-0.7,2.7C306.3,244.9,306,245,305.7,245z"/>
<path fill="#EC923F" d="M286.3,290c-0.7,0-1.4-0.4-1.7-1l-19.3-33.5c-0.6-1-0.2-2.2,0.7-2.7c1-0.6,2.2-0.2,2.7,0.7l17.6,30.5
	l17.6-30.5c0.6-1,1.8-1.3,2.7-0.7c1,0.6,1.3,1.8,0.7,2.7L288.1,289C287.7,289.6,287,290,286.3,290z"/>
</svg>
