<?xml version="1.0" encoding="utf-8"?>
<!-- Generator: Adobe Illustrator 17.1.0, SVG Export Plug-In . SVG Version: 6.00 Build 0)  -->
<!DOCTYPE svg PUBLIC "-//W3C//DTD SVG 1.1//EN" "http://www.w3.org/Graphics/SVG/1.1/DTD/svg11.dtd">
<svg version="1.1" id="Laag_1" xmlns="http://www.w3.org/2000/svg" xmlns:xlink="http://www.w3.org/1999/xlink" x="0px" y="0px"
	 viewBox="0 0 400 400" enable-background="new 0 0 400 400" xml:space="preserve">
<g>
	<path fill="#F6EC67" d="M273.5,156.9L273.5,156.9c-8,0-12.8-9.4-12.9-9.7L248.2,123c-0.6-1.1-0.4-2.4,0.4-3.3c0.7-1,2.1-1.3,3.2-1
		c3.3,1,31.7,9.6,35.5,21.7c0.7,2.3,1,5.8-2.2,9.6C281.4,154.7,277.5,156.9,273.5,156.9z M257,126.9l9,17.6c0.9,1.8,3.9,6.3,7.4,6.3
		c2.6,0,5.2-2.4,6.9-4.5c1.5-1.8,1.3-3,1.1-4C279.7,136.7,267.4,130.8,257,126.9z"/>
	<path fill="#9C9EB5" d="M352.3,281.3c-1.7,0-3-1.3-3-3v-65.2c0-4.1,2.2-9.6,5.1-12.5l15.7-16H204.1c-1.7,0-3,1.3-3,3v69.6
		c0,1.7-1.3,3-3,3c-1.7,0-3-1.3-3-3v-69.6c0-5,4.1-9.1,9.1-9.1h167.1c4.1,0,5.5,2.2,5.8,3.2c0.4,1,1,3.4-1.8,6.3l-16.5,16.9
		c-1.8,1.8-3.4,5.7-3.4,8.3v65.2C355.3,280,354,281.3,352.3,281.3z"/>
	<path fill="#F6EC67" d="M346.2,392.1H204.1c-5,0-9.1-4.1-9.1-9.1V260.1c0-1.7,1.3-3,3-3c1.7,0,3,1.3,3,3V383c0,1.7,1.3,3,3,3h142.1
		c1.7,0,3-1.3,3-3V279.9c0-1.7,1.3-3,3-3s3,1.3,3,3V383C355.3,388.1,351.2,392.1,346.2,392.1z"/>
	<path fill="#9C9EB5" d="M352.3,223.5h-10.2c-1.7,0-3-1.3-3-3s1.3-3,3-3h10.1c1.7,0,3,1.3,3,3S354,223.5,352.3,223.5z"/>
	<path fill="#9C9EB5" d="M352.3,236h-10.2c-1.7,0-3-1.3-3-3c0-1.7,1.3-3,3-3h10.1c1.7,0,3,1.3,3,3C355.2,234.7,354,236,352.3,236z"
		/>
	<path fill="#9C9EB5" d="M352.3,248.5h-10.2c-1.7,0-3-1.3-3-3s1.3-3,3-3h10.1c1.7,0,3,1.3,3,3S354,248.5,352.3,248.5z"/>
	<path fill="#F6EC67" d="M332.1,283.6c-16.4,0-38.6-2.2-56.8-14.6c-26.1-17.6-76-6.9-76.6-6.8c-1.7,0.4-3.3-0.7-3.6-2.3
		c-0.4-1.6,0.7-3.3,2.3-3.6c2.2-0.5,52.9-11.4,81.2,7.8c22.8,15.4,52.9,13.8,67.4,13.1c2.6-0.1,4.6-0.2,6.2-0.2c1.7,0,3,1.3,3,3
		c0,1.7-1.3,3-3,3c-1.5,0-3.5,0.1-5.8,0.2C342.6,283.4,337.7,283.6,332.1,283.6z"/>
	<path fill="#F6EC67" d="M323.9,372.9c-7.4,0-13.5-6.1-13.5-13.5s6.1-13.5,13.5-13.5s13.5,6.1,13.5,13.5S331.3,372.9,323.9,372.9z
		 M323.9,351.9c-4.1,0-7.4,3.3-7.4,7.4s3.3,7.4,7.4,7.4s7.4-3.3,7.4-7.4S328,351.9,323.9,351.9z"/>
	<path fill="#F6EC67" d="M293.9,349.1c-10.4,0-18.9-8.5-18.9-18.9s8.5-18.9,18.9-18.9s18.9,8.5,18.9,18.9S304.3,349.1,293.9,349.1z
		 M293.9,317.4c-7,0-12.9,5.7-12.9,12.9c0,7.2,5.7,12.9,12.9,12.9c7.2,0,12.9-5.7,12.9-12.9C306.7,323.1,300.9,317.4,293.9,317.4z"
		/>
	<path fill="#9C9EB5" d="M145.1,71.6c-0.6,0-1.2-0.2-1.7-0.6l-22.1-15.7c-1.3-1-1.7-2.9-0.7-4.3c1-1.3,2.9-1.7,4.3-0.7L146.9,66
		c1.3,1,1.7,2.9,0.7,4.3C146.9,71.3,146,71.6,145.1,71.6z"/>
	<path fill="#9C9EB5" d="M114,123.2c-1.2,0-2.4-0.7-2.9-2.1c-0.6-1.6,0.2-3.3,1.8-3.9l25.3-9c1.6-0.6,3.3,0.2,3.9,1.8
		c0.6,1.6-0.2,3.3-1.8,3.9l-25.3,9C114.8,123.2,114.4,123.2,114,123.2z"/>
	<path fill="#F6EC67" d="M43.7,146.5c-5.3,0-10.2-1.6-14-4.6c-6.4-5.2-9.2-14-7.8-24.7l11.7-86.7c1.5-10.7,6.4-18.3,14-21.6
		S64.1,7.4,73,13.6l50,35.6l-3.5,5l-50-35.6c-7-5-13.8-6.4-19.4-4s-9.2,8.4-10.3,16.9l-11.7,86.7c-1.1,8.5,0.9,15.3,5.6,19.2
		c4.7,3.9,11.8,4.4,19.9,1.5l57.4-20.5l2.1,5.7l-57.6,20.4C51.4,145.8,47.5,146.5,43.7,146.5z"/>
	<path fill="none" stroke="#9C9EB5" stroke-width="5" stroke-linecap="round" stroke-linejoin="round" stroke-miterlimit="10" d="
		M145.1,68.6"/>
	<path fill="#9C9EB5" d="M218,124.8c-0.1,0-0.2,0-0.4,0l-78.7-10.6c-1.7-0.2-2.8-1.7-2.6-3.4c0.2-1.7,1.7-2.8,3.4-2.6l75.7,10.2
		l5-36.6l-75.7-10.2c-1.7-0.2-2.8-1.7-2.6-3.4s1.7-2.8,3.4-2.6l78.7,10.6c0.9,0.1,1.6,0.5,2.1,1.2c0.5,0.6,0.7,1.5,0.6,2.2
		l-5.7,42.5C220.8,123.7,219.4,124.8,218,124.8z"/>
	<path fill="#9C9EB5" d="M228.5,133.3c-0.2,0-0.6,0-0.9,0l-7.4-1c-1.8-0.2-3.3-1.1-4.4-2.6c-1.1-1.5-1.6-3.2-1.3-5l6.7-49.7
		c0.5-3.6,3.8-6.2,7.5-5.7l7.4,1c3.6,0.5,6.2,3.9,5.7,7.5l-6.7,49.7C234.7,130.9,231.8,133.3,228.5,133.3z M227.9,75.4
		c-0.4,0-0.6,0.2-0.7,0.5l-6.7,49.7c0,0.2,0,0.4,0.1,0.5c0.1,0.1,0.2,0.2,0.4,0.2l7.4,1c0.2,0,0.6-0.2,0.6-0.5l6.7-49.7
		c0-0.4-0.2-0.6-0.5-0.7L227.9,75.4L227.9,75.4z"/>
	<path fill="#9C9EB5" d="M190.2,121c-0.1,0-0.2,0-0.4,0c-1.7-0.2-2.8-1.7-2.6-3.4l1.9-14.7c0.2-1.7,1.7-2.8,3.4-2.6
		c1.7,0.2,2.8,1.7,2.6,3.4l-1.9,14.7C193,120,191.6,121,190.2,121z"/>
	<path fill="#9C9EB5" d="M175,119c-0.1,0-0.2,0-0.4,0c-1.7-0.2-2.8-1.7-2.6-3.4l1.9-14.7c0.2-1.7,1.7-2.8,3.4-2.6
		c1.7,0.2,2.8,1.7,2.6,3.4l-1.9,14.7C177.8,117.9,176.6,119,175,119z"/>
	<path fill="#9C9EB5" d="M159.9,117c-0.1,0-0.2,0-0.4,0c-1.7-0.2-2.8-1.7-2.6-3.4l1.9-14.7c0.2-1.7,1.7-2.8,3.4-2.6
		c1.7,0.2,2.8,1.7,2.6,3.4l-1.9,14.7C162.7,115.8,161.4,117,159.9,117z"/>
	<path fill="#F6EC67" d="M113.1,123.6c-0.5,0-1-0.1-1.5-0.4c-1.5-0.7-2.1-2.7-1.2-4.1c0-0.1,3.5-6.9,3.5-13.8c0-1.9-0.6-4.5-1.1-7.2
		c-1.6-7-3.6-16.6,4.4-22.3c6-4.1,3.4-18,2.1-22.5c-0.5-1.6,0.5-3.3,2.1-3.8s3.3,0.5,3.8,2.1c0.1,0.2,1.6,5.2,1.9,11.2
		c0.5,8.5-1.7,14.7-6.2,18c-4.4,3.2-3.6,8.4-1.9,16c0.6,3,1.3,5.8,1.3,8.5c0,8.5-4.1,16.3-4.3,16.6
		C115.1,123,114.2,123.6,113.1,123.6z"/>
	<path fill="#F6EC67" d="M51.4,131.5c-0.7,0-1.5,0-2.2-0.1c-4.4-0.6-8.3-2.8-10.9-6.3c-2.7-3.5-3.9-7.9-3.3-12.3
		c1.1-8.1,8.1-14.3,16.4-14.3c0.7,0,1.5,0,2.2,0.1c4.4,0.6,8.3,2.8,10.9,6.3c2.7,3.5,3.9,7.9,3.3,12.3
		C66.7,125.3,59.6,131.5,51.4,131.5z M51.3,104.4c-5.2,0-9.7,3.9-10.3,9.1c-0.4,2.8,0.4,5.6,2.1,7.8c1.7,2.2,4.1,3.6,6.9,4
		c0.5,0.1,1,0.1,1.5,0.1c5.2,0,9.7-3.9,10.3-9.1c0.4-2.8-0.4-5.6-2.1-7.8c-1.7-2.2-4.1-3.6-6.9-4C52.2,104.4,51.7,104.4,51.3,104.4z
		"/>
	<path fill="none" stroke="#47B0D2" stroke-width="5" stroke-linecap="round" stroke-linejoin="round" stroke-miterlimit="10" d="
		M303.5,144.7"/>
	<path fill="none" stroke="#47B0D2" stroke-width="5" stroke-linecap="round" stroke-linejoin="round" stroke-miterlimit="10" d="
		M258.8,119.3"/>
</g>
</svg>
