<?xml version="1.0" encoding="utf-8"?>
<!-- Generator: Adobe Illustrator 17.1.0, SVG Export Plug-In . SVG Version: 6.00 Build 0)  -->
<!DOCTYPE svg PUBLIC "-//W3C//DTD SVG 1.1//EN" "http://www.w3.org/Graphics/SVG/1.1/DTD/svg11.dtd">
<svg version="1.1" id="Laag_1" xmlns="http://www.w3.org/2000/svg" xmlns:xlink="http://www.w3.org/1999/xlink" x="0px" y="0px"
	 viewBox="0 0 400 400" enable-background="new 0 0 400 400" xml:space="preserve">
<path fill="#E47923" d="M316.4,257.2c-1.5,0-3.4-0.6-5.7-2.7L277.8,225c-3.6-3.3-10.9-6-15.8-6h-19.5c-1.4,0-2.5-1.1-2.5-2.5
	s1.1-2.5,2.5-2.5H262c6.1,0,14.5,3.2,19.1,7.3l32.9,29.5c1.4,1.3,2.3,1.4,2.4,1.4c0.1-0.1,0.6-0.8,0.5-2.7l-0.8-22.9
	c-0.1-3.3,1.1-6.5,3.4-8.9c2.3-2.4,5.4-3.7,8.8-3.7h15.2c4.1,0,7.5-3.4,7.5-7.5V106.2c0-4.1-3.4-7.5-7.5-7.5H182.3
	c-4.1,0-7.5,3.4-7.5,7.5v23.2c0,1.4-1.1,2.5-2.5,2.5s-2.5-1.1-2.5-2.5v-23.2c0-6.9,5.6-12.5,12.5-12.5h161.2
	c6.9,0,12.5,5.6,12.5,12.5v100.3c0,6.9-5.6,12.5-12.5,12.5h-15.2c-2,0-3.8,0.8-5.2,2.2c-1.4,1.4-2.1,3.3-2,5.2l0.8,22.9
	c0.2,5-2,6.8-3.4,7.4C318,257,317.3,257.2,316.4,257.2z"/>
<path fill="#D2CB4C" d="M85.8,301.8C85.8,301.8,85.8,301.8,85.8,301.8c-1.4,0-2.7-0.5-3.6-1.5c-1.3-1.4-2-3.6-1.9-6.4l0.8-22.9
	c0.1-2-0.6-3.8-2-5.2c-1.4-1.4-3.2-2.2-5.2-2.2H58.7c-6.9,0-12.5-5.6-12.5-12.5V150.8c0-6.9,5.6-12.5,12.5-12.5H220
	c6.9,0,12.5,5.6,12.5,12.5v100.3c0,6.9-5.6,12.5-12.5,12.5h-79.8c-4.9,0-12.1,2.8-15.8,6l-32.9,29.5
	C89.6,300.9,87.7,301.8,85.8,301.8z M58.7,143.3c-4.1,0-7.5,3.4-7.5,7.5v100.3c0,4.1,3.4,7.5,7.5,7.5H74c3.3,0,6.5,1.3,8.8,3.7
	s3.5,5.5,3.4,8.9l-0.8,22.9c-0.1,1.9,0.4,2.7,0.5,2.8l0,0l0,0c0.1,0,0.9,0,2.4-1.4l32.9-29.5c4.6-4.1,13-7.3,19.1-7.3H220
	c4.1,0,7.5-3.4,7.5-7.5V150.8c0-4.1-3.4-7.5-7.5-7.5H58.7z"/>
<path fill="#D2CB4C" d="M332.2,120.2h-136c-1.4,0-2.5-1.1-2.5-2.5s1.1-2.5,2.5-2.5h136c1.4,0,2.5,1.1,2.5,2.5
	S333.5,120.2,332.2,120.2z"/>
<path fill="#D2CB4C" d="M332.2,152.3h-87.7c-1.4,0-2.5-1.1-2.5-2.5s1.1-2.5,2.5-2.5h87.7c1.4,0,2.5,1.1,2.5,2.5
	S333.5,152.3,332.2,152.3z"/>
<path fill="#D2CB4C" d="M332.2,184.5h-68c-1.4,0-2.5-1.1-2.5-2.5s1.1-2.5,2.5-2.5h68c1.4,0,2.5,1.1,2.5,2.5S333.5,184.5,332.2,184.5
	z"/>
<path fill="#E47923" d="M89.2,235.6c-4.8,0-8.7-3.9-8.7-8.7s3.9-8.7,8.7-8.7s8.7,3.9,8.7,8.7S94,235.6,89.2,235.6z M89.2,223.2
	c-2,0-3.7,1.6-3.7,3.7s1.6,3.7,3.7,3.7s3.7-1.6,3.7-3.7S91.2,223.2,89.2,223.2z"/>
<path fill="#E47923" d="M108.6,235.8c-4.8,0-8.7-3.9-8.7-8.7s3.9-8.7,8.7-8.7s8.7,3.9,8.7,8.7S113.4,235.8,108.6,235.8z
	 M108.6,223.4c-2,0-3.7,1.6-3.7,3.7s1.6,3.7,3.7,3.7s3.7-1.6,3.7-3.7S110.6,223.4,108.6,223.4z"/>
<path fill="#E47923" d="M128,235.4c-4.8,0-8.7-3.9-8.7-8.7s3.9-8.7,8.7-8.7s8.7,3.9,8.7,8.7S132.8,235.4,128,235.4z M128,223
	c-2,0-3.7,1.6-3.7,3.7s1.6,3.7,3.7,3.7s3.7-1.6,3.7-3.7S130,223,128,223z"/>
</svg>
