<?xml version="1.0" encoding="utf-8"?>
<!-- Generator: Adobe Illustrator 17.1.0, SVG Export Plug-In . SVG Version: 6.00 Build 0)  -->
<!DOCTYPE svg PUBLIC "-//W3C//DTD SVG 1.1//EN" "http://www.w3.org/Graphics/SVG/1.1/DTD/svg11.dtd">
<svg version="1.1" id="Laag_1" xmlns="http://www.w3.org/2000/svg" xmlns:xlink="http://www.w3.org/1999/xlink" x="0px" y="0px"
	 viewBox="0 0 210 210" enable-background="new 0 0 210 210" xml:space="preserve">
<g>
	<path fill="none" stroke="#D2CB4B" stroke-width="5" stroke-linecap="round" stroke-miterlimit="10" d="M87,128.6
		C75.7,122.1,68.5,111,68.5,97c0-20.7,16.8-37.5,37.5-37.5s37.5,16.8,37.5,37.5c0,13.8-6.3,25.1-17.5,31.6"/>
	<path fill="none" stroke="#D2CB4B" stroke-width="5" stroke-linecap="round" stroke-miterlimit="10" d="M82.1,84.3
		c3.3-7.3,10.4-12.5,18.7-13.1"/>
	<g>
		<path fill="none" stroke="#5CBBA0" stroke-width="5" stroke-linecap="round" stroke-linejoin="round" stroke-miterlimit="10" d="
			M126,143.4v24.1c0,4.4-3.6,8-8,8H95c-4.4,0-8-3.6-8-8v-24.1"/>
	</g>
	
		<line fill="none" stroke="#5CBBA0" stroke-width="5" stroke-linecap="round" stroke-linejoin="round" stroke-miterlimit="10" x1="87" y1="141.4" x2="126" y2="141.4"/>
	
		<line fill="none" stroke="#5CBBA0" stroke-width="5" stroke-linecap="round" stroke-linejoin="round" stroke-miterlimit="10" x1="105.5" y1="163.2" x2="126" y2="163.2"/>
	
		<line fill="none" stroke="#5CBBA0" stroke-width="5" stroke-linecap="round" stroke-linejoin="round" stroke-miterlimit="10" x1="87" y1="152.5" x2="106.5" y2="152.5"/>
	
		<polyline fill="none" stroke="#5CBBA0" stroke-width="5" stroke-linecap="round" stroke-linejoin="round" stroke-miterlimit="10" points="
		99.1,130.9 97.1,109 105.5,114.1 113.9,109 111.9,130.9 	"/>
	<polyline fill="none" stroke="#D2CB4B" stroke-width="5" stroke-linecap="round" stroke-miterlimit="10" points="126,128.6 
		126,141.4 87,141.4 87,128.6 	"/>
	
		<line fill="none" stroke="#5CBBA0" stroke-width="5" stroke-linecap="round" stroke-linejoin="round" stroke-miterlimit="10" x1="105.5" y1="34.2" x2="105.5" y2="49.4"/>
	
		<line fill="none" stroke="#5CBBA0" stroke-width="5" stroke-linecap="round" stroke-linejoin="round" stroke-miterlimit="10" x1="153.2" y1="54.1" x2="142.5" y2="64.9"/>
	
		<line fill="none" stroke="#5CBBA0" stroke-width="5" stroke-linecap="round" stroke-linejoin="round" stroke-miterlimit="10" x1="168.5" y1="94" x2="153.2" y2="94"/>
	
		<line fill="none" stroke="#5CBBA0" stroke-width="5" stroke-linecap="round" stroke-linejoin="round" stroke-miterlimit="10" x1="57.2" y1="94" x2="41.9" y2="94"/>
	
		<line fill="none" stroke="#5CBBA0" stroke-width="5" stroke-linecap="round" stroke-linejoin="round" stroke-miterlimit="10" x1="56.2" y1="54.1" x2="67" y2="64.9"/>
</g>
</svg>
