<?xml version="1.0" encoding="utf-8"?>
<!-- Generator: Adobe Illustrator 17.1.0, SVG Export Plug-In . SVG Version: 6.00 Build 0)  -->
<!DOCTYPE svg PUBLIC "-//W3C//DTD SVG 1.1//EN" "http://www.w3.org/Graphics/SVG/1.1/DTD/svg11.dtd">
<svg version="1.1" id="Laag_1" xmlns="http://www.w3.org/2000/svg" xmlns:xlink="http://www.w3.org/1999/xlink" x="0px" y="0px"
	 viewBox="0 0 400 400" enable-background="new 0 0 400 400" xml:space="preserve">
<g>
	<g>
		<path fill="#D4CD4D" d="M104.2,232.9c-0.2,0-0.5,0-0.7-0.1l-69.2-24.2c-1.1-0.4-1.7-1.6-1.3-2.7L46.2,168c0.2-0.5,0.6-1,1.1-1.2
			c0.5-0.2,1.1-0.3,1.6-0.1l57.7,20.3c1.1,0.4,1.7,1.6,1.3,2.7s-1.6,1.7-2.7,1.3l-55.7-19.6l-11.8,33.9l67.2,23.5
			c1.1,0.4,1.7,1.6,1.3,2.7C105.9,232.4,105.1,232.9,104.2,232.9z"/>
	</g>
	<g>
		<path fill="#D4CD4D" d="M213.4,269.9H145c-1.2,0-2.1-0.9-2.1-2.1c0-1.2,0.9-2.1,2.1-2.1h68.4c1.2,0,2.1,0.9,2.1,2.1
			C215.5,268.9,214.6,269.9,213.4,269.9z"/>
	</g>
	<g>
		<path fill="#D4CD4D" d="M213.4,308.5H145c-1.2,0-2.1-0.9-2.1-2.1c0-1.2,0.9-2.1,2.1-2.1h68.4c1.2,0,2.1,0.9,2.1,2.1
			C215.5,307.6,214.6,308.5,213.4,308.5z"/>
	</g>
	<g>
		<path fill="#D4CD4D" d="M190.9,289.3H145c-1.2,0-2.1-0.9-2.1-2.1s0.9-2.1,2.1-2.1h45.9c1.2,0,2.1,0.9,2.1,2.1
			S192,289.3,190.9,289.3z"/>
	</g>
	<g>
		<path fill="#6F7D81" d="M299.2,310.4c-12.8,0-23.3-10.4-23.3-23.3c0-12.8,10.4-23.3,23.3-23.3c12.8,0,23.3,10.4,23.3,23.3
			C322.5,300,312.1,310.4,299.2,310.4z M299.2,268.1c-10.5,0-19.1,8.5-19.1,19.1c0,10.5,8.5,19.1,19.1,19.1
			c10.5,0,19.1-8.5,19.1-19.1C318.3,276.6,309.7,268.1,299.2,268.1z"/>
	</g>
	<g>
		<path fill="#6F7D81" d="M325.6,310.4c-0.8,0-1.6,0-2.5-0.2c-1.2-0.2-1.9-1.3-1.7-2.4c0.2-1.2,1.3-1.9,2.4-1.7
			c0.6,0.1,1.1,0.1,1.8,0.1c10.5,0,19.1-8.5,19.1-19.1c0-10.5-8.5-19.1-19.1-19.1c-0.7,0-1.2,0-1.8,0.1c-1.2,0.2-2.2-0.6-2.4-1.7
			c-0.2-1.2,0.6-2.2,1.7-2.4c0.9-0.2,1.7-0.2,2.5-0.2c12.8,0,23.3,10.4,23.3,23.3C348.9,300,338.4,310.4,325.6,310.4z"/>
	</g>
	<g>
		<g>
			<path fill="#6F7D81" d="M107.3,265.6c-0.2,0-0.5,0-0.7-0.1L16,233.7c-3.7-1.3-6.8-4.1-8.5-7.6c-1.7-3.6-1.9-7.5-0.5-11.1
				L57.7,70.2c1.3-3.7,4.1-6.8,7.6-8.5c3.6-1.7,7.5-1.9,11.1-0.5l243.4,85.3c4.7,1.6,10.2,4.5,11.7,7.7c0.6,1.2,0.4,2.2,0.2,2.8
				c-0.6,2.1-1.3,3.6-1.3,3.7c-0.4,1.1-1.7,1.6-2.8,1.1c-1.1-0.4-1.6-1.7-1.1-2.8c0,0,0.6-1.4,1.1-3.2c-0.5-1-3.6-3.4-9.2-5.4
				L75,65.2c-2.6-1-5.3-0.8-7.9,0.4c-2.6,1.2-4.5,3.4-5.4,6L11.1,216.4c-1,2.6-0.8,5.4,0.4,7.9c1.2,2.6,3.4,4.5,6,5.4l90.6,31.8
				c1.1,0.4,1.7,1.6,1.3,2.7C109,265,108.2,265.6,107.3,265.6z"/>
		</g>
	</g>
	<g>
		<path fill="#6F7D81" d="M259.9,161.9c-0.2,0-0.5,0-0.7-0.1l-204-71.4l-9.6,27.1L158.2,157c1.1,0.4,1.7,1.6,1.3,2.7
			c-0.4,1.1-1.6,1.7-2.7,1.3L42.2,120.8c-0.5-0.2-1-0.6-1.2-1.1c-0.2-0.5-0.3-1.1-0.1-1.6l11-31.1c0.4-1.1,1.6-1.7,2.7-1.3l206,72.1
			c1.1,0.4,1.7,1.6,1.3,2.7C261.6,161.3,260.8,161.9,259.9,161.9z"/>
	</g>
	<g>
		<g>
			<path fill="#D4CD4D" d="M377.9,340.4H119.9c-8.1,0-14.7-6.6-14.7-14.7V172.4c0-8.1,6.6-14.7,14.7-14.7h257.9
				c8.1,0,14.7,6.6,14.7,14.7v153.3C392.6,333.8,386,340.4,377.9,340.4z M119.9,161.9c-5.8,0-10.5,4.7-10.5,10.5v153.3
				c0,5.8,4.7,10.5,10.5,10.5h257.9c5.8,0,10.5-4.7,10.5-10.5V172.4c0-5.8-4.7-10.5-10.5-10.5H119.9z"/>
		</g>
	</g>
	<g>
		<path fill="#D4CD4D" d="M390.5,225.4H107.3c-1.2,0-2.1-0.9-2.1-2.1v-33.1c0-1.2,0.9-2.1,2.1-2.1h283.1c1.2,0,2.1,0.9,2.1,2.1v33.1
			C392.6,224.4,391.6,225.4,390.5,225.4z M109.5,221.2h278.9v-28.9H109.5V221.2z"/>
	</g>
</g>
</svg>
