<?xml version="1.0" encoding="utf-8"?>
<!-- Generator: Adobe Illustrator 17.1.0, SVG Export Plug-In . SVG Version: 6.00 Build 0)  -->
<!DOCTYPE svg PUBLIC "-//W3C//DTD SVG 1.1//EN" "http://www.w3.org/Graphics/SVG/1.1/DTD/svg11.dtd">
<svg version="1.1" id="Laag_1" xmlns="http://www.w3.org/2000/svg" xmlns:xlink="http://www.w3.org/1999/xlink" x="0px" y="0px"
	 viewBox="0 0 400 400" enable-background="new 0 0 400 400" xml:space="preserve">
<g>
	<path fill="#60BA9E" d="M174.6,367.5c-7.4,0-13.8-5.6-15-12.9L112.8,52c-0.6-3.9,0.4-7.8,2.7-10.9c2.4-3.1,5.8-5.1,9.7-5.6l40.2-5
		c0.6-0.1,1.2-0.1,1.8-0.1c7.4,0,13.8,5.6,15,12.9l46.8,302.8c0.6,3.9-0.4,7.8-2.7,10.9c-2.4,3.1-5.8,5.1-9.7,5.6l-40.2,5
		C175.8,367.5,175.2,367.5,174.6,367.5z M167.3,36.4c-0.4,0-0.7,0-1.1,0.1l-40.2,5c-2.4,0.2-4.4,1.4-5.8,3.3c-1.4,1.9-2,4.1-1.7,6.4
		l46.8,302.8c0.7,4.5,4.6,7.8,9.2,7.8c0.4,0,0.7,0,1.1-0.1l40.2-5c2.4-0.2,4.4-1.4,5.8-3.3c1.4-1.9,2-4.1,1.7-6.4L176.4,44.2
		C175.8,39.7,171.7,36.4,167.3,36.4z"/>
	<g>
		<path fill="#B593C4" d="M242.7,368.9h-3.2c-5.6,0-10-4.5-10-10V44c0-5.6,4.5-10,10-10h3.2c5.6,0,10,4.5,10,10v314.9
			C252.7,364.4,248.2,368.9,242.7,368.9z M239.5,39.8c-2.2,0-4.1,1.9-4.1,4.1v314.9c0,2.2,1.9,4.1,4.1,4.1h3.2
			c2.2,0,4.1-1.9,4.1-4.1V44c0-2.2-1.9-4.1-4.1-4.1H239.5z"/>
		<path fill="#B593C4" d="M311.9,368.8h-3.2c-5.6,0-10-4.5-10-10V43.8c0-5.6,4.5-10,10-10h3.2c5.6,0,10,4.5,10,10v314.9
			C321.9,364.3,317.5,368.8,311.9,368.8z M308.8,39.7c-2.2,0-4.1,1.9-4.1,4.1v314.9c0,2.2,1.9,4.1,4.1,4.1h3.2
			c2.2,0,4.1-1.9,4.1-4.1V43.8c0-2.2-1.9-4.1-4.1-4.1H308.8z"/>
		<path fill="#B593C4" d="M267,360.1h-17.4c-1.7,0-3-1.3-3-3V45.5c0-1.7,1.3-3,3-3H267c1.7,0,3,1.3,3,3v311.7
			C269.9,358.8,268.6,360.1,267,360.1z M252.7,354.1h11.5V48.4h-11.5V354.1z"/>
		<path fill="#B593C4" d="M284.4,360.1H267c-1.7,0-3-1.3-3-3V45.5c0-1.7,1.3-3,3-3h17.4c1.7,0,3,1.3,3,3v311.7
			C287.3,358.8,286,360.1,284.4,360.1z M269.9,354.1h11.5V48.4h-11.5V354.1z"/>
		<path fill="#B593C4" d="M301.7,360.1h-17.4c-1.7,0-3-1.3-3-3V45.5c0-1.7,1.3-3,3-3h17.4c1.7,0,3,1.3,3,3v311.7
			C304.7,358.8,303.4,360.1,301.7,360.1z M287.3,354.1h11.5V48.4h-11.5V354.1z"/>
	</g>
	<g>
		<path fill="#B593C4" d="M98.7,366.6H20.3c-8.2,0-14.8-6.6-14.8-14.8V46.2c0-8.2,6.6-14.8,14.8-14.8h78.3c8.2,0,14.8,6.6,14.8,14.8
			v305.6C113.5,359.9,106.9,366.6,98.7,366.6z M20.3,37.3c-4.8,0-8.9,4-8.9,8.9v305.6c0,4.8,4,8.9,8.9,8.9h78.3c4.8,0,8.9-4,8.9-8.9
			V46.2c0-4.8-4-8.9-8.9-8.9H20.3z"/>
		<path fill="#B593C4" d="M91.7,71.7H25.6c-1.7,0-3-1.3-3-3s1.3-3,3-3h66.2c1.7,0,3,1.3,3,3S93.4,71.7,91.7,71.7z"/>
		<path fill="#B593C4" d="M91.7,99.8H25.6c-1.7,0-3-1.3-3-3c0-1.7,1.3-3,3-3h66.2c1.7,0,3,1.3,3,3C94.7,98.5,93.4,99.8,91.7,99.8z"
			/>
		<path fill="#B593C4" d="M92.9,311.4H26.8c-1.7,0-3-1.3-3-3c0-1.7,1.3-3,3-3h66.2c1.7,0,3,1.3,3,3
			C95.9,310.1,94.6,311.4,92.9,311.4z"/>
	</g>
	<path fill="#60BA9E" d="M131.9,75.4c-1.4,0-2.7-1.1-3-2.6c-0.2-1.7,0.9-3.1,2.6-3.3l38.3-4.7c1.7-0.2,3.1,0.9,3.3,2.6
		c0.2,1.7-0.9,3.1-2.6,3.3l-38.3,4.7C132.2,75.4,132,75.4,131.9,75.4z"/>
	<path fill="#60BA9E" d="M135.9,101.4c-1.4,0-2.7-1.1-3-2.6c-0.2-1.7,0.9-3.1,2.6-3.3l38.3-4.7c1.7-0.2,3.1,0.9,3.3,2.6
		c0.2,1.7-0.9,3.1-2.6,3.3l-38.3,4.7C136.2,101.4,136.1,101.4,135.9,101.4z"/>
	<path fill="#60BA9E" d="M171.3,330.5c-1.4,0-2.7-1.1-3-2.6c-0.2-1.7,0.9-3.1,2.6-3.3l38.3-4.7c1.7-0.2,3.1,0.9,3.3,2.6
		c0.2,1.7-0.9,3.1-2.6,3.3l-38.3,4.7C171.5,330.5,171.4,330.5,171.3,330.5z"/>
	<g>
		<path fill="#60BA9E" d="M342.2,368.2c-8,0-14.7-6.5-14.8-14.4l-6.5-259.7c-0.1-3.9,1.3-7.7,4.1-10.5c2.7-2.8,6.4-4.5,10.3-4.5
			l37.8-0.7c8,0,14.7,6.5,14.8,14.4l6.5,259.7c0.1,3.9-1.3,7.7-4.1,10.5c-2.7,2.8-6.4,4.5-10.3,4.5L342.2,368.2z M373.1,84.1H373
			l-37.6,0.7c-2.4,0-4.5,1.1-6.1,2.7s-2.5,3.9-2.5,6.3l6.5,259.7c0.1,4.8,4.1,8.7,8.9,8.7h0.2l37.6-0.7c2.4,0,4.5-1.1,6.1-2.7
			c1.7-1.7,2.5-3.9,2.5-6.3l-6.5-259.7C382,88,378,84.1,373.1,84.1z"/>
		<path fill="#60BA9E" d="M336.5,114.5c-1.7,0-3-1.3-3-3s1.3-3,2.8-3l36.8-0.7c1.7,0,3,1.3,3,2.8c0,1.7-1.3,3-2.8,3L336.5,114.5
			L336.5,114.5z"/>
		<path fill="#60BA9E" d="M337.1,137c-1.7,0-3-1.3-3-3s1.3-3,2.8-3l36.8-0.7c0,0,0,0,0.1,0c1.7,0,3,1.3,3,3s-1.3,3-2.8,3L337.1,137
			L337.1,137z"/>
		<path fill="#60BA9E" d="M342,336.2c-1.7,0-3-1.3-3-3c0-1.7,1.3-3,2.8-3l36.8-0.7c1.7,0,3,1.3,3,2.8c0,1.7-1.3,3-2.8,3L342,336.2
			L342,336.2z"/>
	</g>
</g>
</svg>
