<?xml version="1.0" encoding="utf-8"?>
<!-- Generator: Adobe Illustrator 17.1.0, SVG Export Plug-In . SVG Version: 6.00 Build 0)  -->
<!DOCTYPE svg PUBLIC "-//W3C//DTD SVG 1.1//EN" "http://www.w3.org/Graphics/SVG/1.1/DTD/svg11.dtd">
<svg version="1.1" xmlns="http://www.w3.org/2000/svg" xmlns:xlink="http://www.w3.org/1999/xlink" x="0px" y="0px"
	 viewBox="0 0 300 150" enable-background="new 0 0 300 150" xml:space="preserve">
<g id="Laag_1" display="none">
	<path display="inline" fill="#DC6E6E" d="M61.1,61L48.3,73.8L44,69.4l1.3-1.3c2.5-2.5-3.4-8.4-5.9-5.9L28.1,73.8l-4.3-4.3l23-22.9
		C52.5,40.8,66.9,55.2,61.1,61z"/>
	<path display="inline" fill="#57BFA1" d="M21.9,79.9l-1.3,1.3c-2.5,2.5,3.4,8.4,5.9,5.9l11.4-11.5l4.3,4.3l-23,23
		c-5.7,5.7-20.1-8.6-14.4-14.4l12.8-12.8L21.9,79.9z"/>
	<path display="inline" fill="#AB8BC0" d="M27.8,83.9l-23-23c-5.6-5.6,8.8-19.9,14.4-14.4L32,59.4l-4.2,4.3l-1.3-1.3
		c-2.5-2.5-8.4,3.4-5.9,5.9l11.5,11.4L27.8,83.9z"/>
	<path display="inline" fill="#3EB0CE" d="M46.8,102.9L34,90.1l4.3-4.3l1.3,1.3c2.5,2.5,8.4-3.4,5.9-5.9L34,69.8l4.3-4.3l22.9,23
		C66.9,94.3,52.5,108.6,46.8,102.9z"/>
	<g display="inline">
		<path fill="#2D3243" d="M105.7,48.8v1.8H75.9v23.9H101v1.8H75.9v24.7h29.9l-0.1,1.8H73.8V48.8H105.7z"/>
		<path fill="#2D3243" d="M160,75.8c0,4.2-0.7,8-1.8,11.4c-1.2,3.4-3,6.1-5.2,8.5c-2.2,2.4-5,4-8,5.4c-3,1.3-6.5,1.8-10.3,1.8h-19.5
			V48.8h19.5c3.8,0,7.2,0.7,10.3,1.8c3.1,1.2,5.7,3,8,5.4c2.2,2.4,3.9,5.1,5.2,8.5C159.5,67.9,160,71.7,160,75.8z M157.8,75.8
			c0-4-0.5-7.6-1.7-10.7c-1.2-3.1-2.7-5.7-4.7-8c-2.1-2.1-4.4-3.8-7.3-5c-2.9-1.2-6-1.7-9.4-1.7h-17.2v50.7h17.4
			c3.4,0,6.5-0.5,9.4-1.7c2.9-1.2,5.2-2.7,7.3-5c2.1-2.1,3.7-4.8,4.7-8C157.2,83.6,157.8,79.9,157.8,75.8z"/>
		<path fill="#2D3243" d="M189.6,101.7c2.7,0,5.2-0.5,7.4-1.4c2.2-1,4-2.4,5.6-4c1.6-1.7,2.7-3.8,3.5-6c0.8-2.2,1.2-4.8,1.2-7.4v-34
			h2.1v33.8c0,2.9-0.5,5.6-1.4,8.2c-0.9,2.6-2.2,4.8-3.9,6.7c-1.7,2-3.8,3.4-6.3,4.4c-2.5,1-5.2,1.7-8.2,1.7s-5.9-0.5-8.4-1.7
			c-2.5-1.2-4.6-2.6-6.3-4.4c-1.7-2-3-4.2-3.9-6.7c-0.9-2.5-1.4-5.2-1.4-8.2V48.8h2.1v33.7c0,2.6,0.4,5.2,1.2,7.4
			c0.8,2.4,2,4.3,3.5,6.1c1.6,1.7,3.4,3.1,5.6,4C184.4,101.2,186.9,101.7,189.6,101.7z"/>
		<path fill="#2D3243" d="M254.7,48.8v1.8h-29.8v24.8h26v1.8h-26v25.6h-2.1V48.8H254.7z"/>
		<path fill="#2D3243" d="M277.8,80.2v22.7h-2.2V80.2l-20.1-31.3h1.8c0.3,0,0.4,0,0.5,0.1c0.1,0.1,0.3,0.3,0.4,0.4l17.1,26.9
			c0.3,0.4,0.5,0.9,0.7,1.3c0.3,0.4,0.4,0.8,0.7,1.2c0.1-0.4,0.4-0.9,0.7-1.3s0.4-0.8,0.7-1.3l17.2-26.6c0.3-0.4,0.5-0.5,0.9-0.5
			h1.8L277.8,80.2z"/>
	</g>
</g>
<g id="Laag_2">
	<g>
		<polygon opacity="0.8" fill="#5FBA9E" points="49.8,112.1 90.1,91.9 90.1,36.4 49.8,56.6 		"/>
		<g>
			<g>
				<path fill="#5FBA9E" d="M118.6,52.4v39.1h-5V52.4H118.6z"/>
				<path fill="#5FBA9E" d="M133.2,91.5V52.4h5.5l12.5,19.8c2.9,4.6,5.2,8.7,7,12.7l0.1-0.1c-0.5-5.2-0.6-10-0.6-16.1V52.4h4.8v39.1
					h-5.1l-12.4-19.8c-2.7-4.4-5.3-8.8-7.3-13.1l-0.2,0.1c0.3,4.9,0.4,9.6,0.4,16.1v16.7H133.2z"/>
				<path fill="#5FBA9E" d="M184.6,56.7h-11.9v-4.3h29v4.3h-12v34.8h-5.1V56.7z"/>
				<path fill="#5FBA9E" d="M216.9,52.4v23.1c0,8.8,3.9,12.5,9.1,12.5c5.8,0,9.5-3.8,9.5-12.5V52.4h5.1v22.8
					c0,12-6.3,16.9-14.8,16.9c-8,0-14-4.6-14-16.7v-23H216.9z"/>
				<path fill="#5FBA9E" d="M288.6,71.5c0,13.5-8.2,20.6-18.2,20.6c-10.3,0-17.6-8-17.6-19.8c0-12.4,7.7-20.5,18.2-20.5
					C281.7,51.8,288.6,59.9,288.6,71.5z M258.2,72.2c0,8.4,4.5,15.8,12.5,15.8c8,0,12.5-7.4,12.5-16.2c0-7.8-4.1-15.9-12.5-15.9
					C262.4,55.9,258.2,63.6,258.2,72.2z"/>
			</g>
		</g>
		<polygon fill="#5FBA9E" points="49.8,112.1 9.4,91.9 9.4,36.4 49.8,56.6 		"/>
	</g>
</g>
</svg>
