<?xml version="1.0" encoding="utf-8"?>
<!-- Generator: Adobe Illustrator 17.1.0, SVG Export Plug-In . SVG Version: 6.00 Build 0)  -->
<!DOCTYPE svg PUBLIC "-//W3C//DTD SVG 1.1//EN" "http://www.w3.org/Graphics/SVG/1.1/DTD/svg11.dtd">
<svg version="1.1" id="Laag_1" xmlns="http://www.w3.org/2000/svg" xmlns:xlink="http://www.w3.org/1999/xlink" x="0px" y="0px"
	 viewBox="0 0 400 400" enable-background="new 0 0 400 400" xml:space="preserve">
<g>
	<rect x="183.9" y="260" fill="none" width="69.4" height="32.2"/>
	<path fill="none" d="M13,313.3h95.4V179.5H13V313.3z M58.5,303.6c1.1-1.1,3.2-1.1,4.3,0c0.6,0.6,0.9,1.4,0.9,2.2s-0.4,1.6-0.9,2.2
		c-0.6,0.6-1.4,0.9-2.2,0.9c-0.9,0-1.6-0.4-2.2-0.9c-0.6-0.6-0.9-1.4-0.9-2.2S58,304.2,58.5,303.6z"/>
	<circle fill="none" cx="219.2" cy="98.2" r="1.7"/>
	<path fill="none" d="M353.6,309.5h33.4v-59.5h-33.4V309.5z M368.1,302.4c1.1-1.1,3.2-1.1,4.3,0c0.6,0.6,0.9,1.4,0.9,2.2
		c0,0.9-0.4,1.6-0.9,2.2c-0.6,0.6-1.4,0.9-2.2,0.9c-0.9,0-1.6-0.4-2.2-0.9c-0.6-0.6-0.9-1.4-0.9-2.2
		C367.1,303.7,367.6,303,368.1,302.4z"/>
	<path fill="#51BED7" d="M338.1,80.4H100.3c-1.7,0-3.1,1.4-3.1,3.1v79.9c0,1.7,1.4,3.1,3.1,3.1s3.1-1.4,3.1-3.1V86.6H335v140H124.5
		c-1.7,0-3.1,1.4-3.1,3.1s1.4,3.1,3.1,3.1H335v21.1h-78.6h-75.6h-56.4c-1.7,0-3.1,1.4-3.1,3.1c0,1.7,1.4,3.1,3.1,3.1h53.3v32.2
		h-23.5c-1.7,0-3.1,1.4-3.1,3.1c0,1.7,1.4,3.1,3.1,3.1h26.6h75.6H283c1.7,0,3.1-1.4,3.1-3.1c0-1.7-1.4-3.1-3.1-3.1h-23.5V260h78.6
		c1.7,0,3.1-1.4,3.1-3.1V83.5C341.2,81.8,339.9,80.4,338.1,80.4z M253.3,292.2h-69.4V260h69.4V292.2z"/>
	<path fill="#51BED7" d="M227.2,98.2c0-4.3-3.6-7.9-7.9-7.9s-7.9,3.6-7.9,7.9c0,4.3,3.6,7.9,7.9,7.9S227.2,102.7,227.2,98.2z
		 M217.5,98.2c0-1,0.7-1.7,1.7-1.7c1,0,1.7,0.7,1.7,1.7c0,1-0.7,1.7-1.7,1.7C218.2,100,217.5,99.2,217.5,98.2z"/>
	<path fill="#6EC1AD" d="M111.5,173.3H9.9c-1.7,0-3.1,1.4-3.1,3.1v140c0,1.7,1.4,3.1,3.1,3.1h101.6c1.7,0,3.1-1.4,3.1-3.1v-140
		C114.6,174.7,113.2,173.3,111.5,173.3z M108.4,313.3H13V179.5h95.4V313.3z"/>
	<path fill="#6EC1AD" d="M390.2,243.9h-39.6c-1.7,0-3.1,1.4-3.1,3.1v65.6c0,1.7,1.4,3.1,3.1,3.1h39.6c1.7,0,3.1-1.4,3.1-3.1V247
		C393.2,245.3,391.9,243.9,390.2,243.9z M387.1,309.5h-33.4v-59.5h33.4V309.5z"/>
	<path fill="#6EC1AD" d="M60.7,308.9c0.9,0,1.6-0.4,2.2-0.9c0.6-0.6,0.9-1.4,0.9-2.2s-0.4-1.6-0.9-2.2c-1.1-1.1-3.2-1.1-4.3,0
		c-0.6,0.6-0.9,1.4-0.9,2.2s0.4,1.6,0.9,2.2C59.1,308.6,59.8,308.9,60.7,308.9z"/>
	<path fill="#6EC1AD" d="M370.3,307.7c0.9,0,1.6-0.4,2.2-0.9c0.6-0.6,0.9-1.4,0.9-2.2c0-0.9-0.4-1.6-0.9-2.2c-1.1-1.1-3.2-1.1-4.3,0
		c-0.6,0.6-0.9,1.4-0.9,2.2c0,0.9,0.4,1.6,0.9,2.2C368.7,307.3,369.5,307.7,370.3,307.7z"/>
</g>
</svg>
