<?xml version="1.0" encoding="utf-8"?>
<!-- Generator: Adobe Illustrator 17.1.0, SVG Export Plug-In . SVG Version: 6.00 Build 0)  -->
<!DOCTYPE svg PUBLIC "-//W3C//DTD SVG 1.1//EN" "http://www.w3.org/Graphics/SVG/1.1/DTD/svg11.dtd">
<svg version="1.1" id="Laag_1" xmlns="http://www.w3.org/2000/svg" xmlns:xlink="http://www.w3.org/1999/xlink" x="0px" y="0px"
	 viewBox="0 0 150 150" enable-background="new 0 0 150 150" xml:space="preserve">
<rect x="200" y="-86.5" fill="#010202" width="42.7" height="9.4"/>
<rect x="255.4" y="-86.5" fill="#3C4256" width="42.7" height="9.4"/>
<rect x="310.7" y="-86.5" fill="#6B707D" width="42.7" height="9.4"/>
<rect x="366" y="-86.5" fill="#7D8D91" width="42.7" height="9.4"/>
<rect x="421.3" y="-86.5" fill="#A2A9BD" width="42.7" height="9.4"/>
<rect x="200" y="-86.5" fill="none" stroke="#010202" stroke-miterlimit="10" width="42.7" height="29.8"/>
<line fill="none" x1="200" y1="-77.1" x2="242.8" y2="-77.1"/>
<line fill="none" x1="200" y1="-67.6" x2="242.8" y2="-67.6"/>
<line fill="none" x1="200" y1="-58.2" x2="242.8" y2="-58.2"/>
<line fill="none" stroke="#010202" stroke-miterlimit="10" x1="200" y1="-77.1" x2="242.8" y2="-77.1"/>
<line fill="none" stroke="#010202" stroke-miterlimit="10" x1="200" y1="-67.1" x2="242.8" y2="-67.1"/>
<rect x="255.4" y="-86.5" fill="none" stroke="#3C4256" stroke-miterlimit="10" width="42.7" height="29.8"/>
<line fill="none" stroke="#3C4256" stroke-miterlimit="10" x1="255.4" y1="-67.6" x2="298.1" y2="-67.6"/>
<line fill="none" x1="255.4" y1="-58.2" x2="298.1" y2="-58.2"/>
<rect x="310.7" y="-86.5" fill="none" stroke="#6B707D" stroke-miterlimit="10" width="42.7" height="29.8"/>
<line fill="none" x1="310.7" y1="-58.2" x2="353.4" y2="-58.2"/>
<line fill="none" stroke="#6B707D" stroke-miterlimit="10" x1="310.7" y1="-67.1" x2="353.4" y2="-67.1"/>
<rect x="366" y="-86.5" fill="none" stroke="#7D8D91" stroke-miterlimit="10" width="42.7" height="29.8"/>
<line fill="none" stroke="#7D8D91" stroke-miterlimit="10" x1="366" y1="-67.1" x2="408.7" y2="-67.1"/>
<rect x="421.3" y="-86.5" fill="none" stroke="#A2A9BD" stroke-miterlimit="10" width="42.7" height="29.8"/>
<line fill="none" stroke="#A2A9BD" stroke-miterlimit="10" x1="421.3" y1="-67.2" x2="464" y2="-67.2"/>
<line fill="none" x1="366" y1="-58.2" x2="408.7" y2="-58.2"/>
<line fill="none" x1="421.3" y1="-58.2" x2="464" y2="-58.2"/>
<text transform="matrix(1 0 0 1 205.834 -70.4005)" fill="#010202" font-family="'Lato-Regular'" font-size="5">HEX: 1C1C1B</text>
<text transform="matrix(1 0 0 1 261.584 -70.5568)" fill="#3C4256" font-family="'Lato-Regular'" font-size="5">HEX: 3B4256</text>
<text transform="matrix(1 0 0 1 316.209 -70.4005)" fill="#6B707D" font-family="'Lato-Regular'" font-size="5">HEX: 6B6F7D</text>
<text transform="matrix(1 0 0 1 371.834 -70.5568)" fill="#7D8D91" font-family="'Lato-Regular'" font-size="5">HEX: 7D8C90</text>
<text transform="matrix(1 0 0 1 427.209 -70.4005)" fill="#A2A9BD" font-family="'Lato-Regular'" font-size="5">HEX: A2A9BC</text>
<text transform="matrix(1 0 0 1 206.418 -60.4005)" fill="#010202" font-family="'Lato-Regular'" font-size="5">rgb(28,28,27)</text>
<text transform="matrix(1 0 0 1 261.751 -60.4005)" fill="#3C4256" font-family="'Lato-Regular'" font-size="5">rgb(59,66,86)</text>
<text transform="matrix(1 0 0 1 312.834 -60.4005)" fill="#6B707D" font-family="'Lato-Regular'" font-size="5">rgb(107,111,125)</text>
<text transform="matrix(1 0 0 1 368.668 -60.4005)" fill="#7D8D91" font-family="'Lato-Regular'" font-size="5">rgb(125,140,144)</text>
<text transform="matrix(1 0 0 1 423.209 -60.4005)" fill="#A2A9BD" font-family="'Lato-Regular'" font-size="5">rgb(162,169,188)</text>
<rect x="200" y="-40.1" fill="#40403D" width="42.7" height="9.4"/>
<rect x="255.4" y="-40.1" fill="#2C3140" width="42.7" height="9.4"/>
<rect x="310.7" y="-40.1" fill="#373940" width="42.7" height="9.4"/>
<rect x="366" y="-40.1" fill="#373E40" width="42.7" height="9.4"/>
<rect x="421.3" y="-40.1" fill="#373940" width="42.7" height="9.4"/>
<rect x="200" y="-40.1" fill="none" stroke="#40403D" stroke-miterlimit="10" width="42.7" height="29.8"/>
<line fill="none" x1="200" y1="-30.6" x2="242.8" y2="-30.6"/>
<line fill="none" x1="201.1" y1="-12.5" x2="243.8" y2="-12.5"/>
<line fill="none" stroke="#40403D" stroke-miterlimit="10" x1="200" y1="-20.7" x2="242.8" y2="-20.7"/>
<rect x="255.4" y="-40.1" fill="none" stroke="#2C3140" stroke-miterlimit="10" width="42.7" height="29.8"/>
<line fill="none" stroke="#2C3140" stroke-miterlimit="10" x1="255.4" y1="-21.2" x2="298.1" y2="-21.2"/>
<line fill="none" x1="256.4" y1="-12.5" x2="299.1" y2="-12.5"/>
<rect x="310.7" y="-40.1" fill="none" stroke="#373940" stroke-miterlimit="10" width="42.7" height="29.8"/>
<line fill="none" x1="311.7" y1="-12.5" x2="354.4" y2="-12.5"/>
<line fill="none" stroke="#373940" stroke-miterlimit="10" x1="310.7" y1="-20.7" x2="353.4" y2="-20.7"/>
<rect x="366" y="-40.1" fill="none" stroke="#373E40" stroke-miterlimit="10" width="42.7" height="29.8"/>
<line fill="none" stroke="#373E40" stroke-miterlimit="10" x1="366" y1="-20.7" x2="408.7" y2="-20.7"/>
<rect x="421.3" y="-40.1" fill="none" stroke="#373940" stroke-miterlimit="10" width="42.7" height="29.8"/>
<line fill="none" stroke="#373940" stroke-miterlimit="10" x1="421.3" y1="-20.8" x2="464" y2="-20.8"/>
<line fill="none" x1="367" y1="-12.5" x2="409.7" y2="-12.5"/>
<line fill="none" x1="422.3" y1="-12.5" x2="465.1" y2="-12.5"/>
<text transform="matrix(1 0 0 1 205.834 -23.9884)" fill="#40403D" font-family="'Lato-Regular'" font-size="5">HEX: 40403D</text>
<text transform="matrix(1 0 0 1 261.584 -24.1452)" fill="#2C3140" font-family="'Lato-Regular'" font-size="5">HEX: 2C3140</text>
<text transform="matrix(1 0 0 1 316.209 -23.9884)" fill="#373940" font-family="'Lato-Regular'" font-size="5">HEX: 373940</text>
<text transform="matrix(1 0 0 1 372.334 -24.1452)" fill="#373E40" font-family="'Lato-Regular'" font-size="5">HEX: 373E40</text>
<text transform="matrix(1 0 0 1 427.209 -23.9889)" fill="#373940" font-family="'Lato-Regular'" font-size="5">HEX: 373940</text>
<text transform="matrix(1 0 0 1 206.418 -13.9884)" fill="#40403D" font-family="'Lato-Regular'" font-size="5">rgb(64,64,61)</text>
<text transform="matrix(1 0 0 1 261.751 -13.9884)" fill="#2C3140" font-family="'Lato-Regular'" font-size="5">rgb(44,4964)</text>
<text transform="matrix(1 0 0 1 317.334 -13.9884)" fill="#373940" font-family="'Lato-Regular'" font-size="5">rgb(55,57,64)</text>
<text transform="matrix(1 0 0 1 372.668 -13.9884)" fill="#373E40" font-family="'Lato-Regular'" font-size="5">rgb(55,62,64)</text>
<text transform="matrix(1 0 0 1 428.209 -13.9884)" fill="#373940" font-family="'Lato-Regular'" font-size="5">rgb(55,57,64)</text>
<text transform="matrix(1 0 0 1 200.043 -93.3512)" fill="#A2A9BD" font-family="'Lato-Regular'" font-size="5">Standard dark colors</text>
<g>
	<text transform="matrix(1 0 0 1 200.459 -46.9005)" fill="#A2A9BD" font-family="'Lato-Regular'" font-size="5">Shades dark colors</text>
</g>
<rect x="201.1" y="8" fill="#4DBDD7" width="42.7" height="9.4"/>
<rect x="256.4" y="8" fill="#6DC1AD" width="42.7" height="9.4"/>
<rect x="311.7" y="8" fill="#B99FCA" width="42.7" height="9.4"/>
<rect x="367" y="8" fill="#EC923F" width="42.7" height="9.4"/>
<rect x="422.3" y="8" fill="#E48482" width="42.7" height="9.4"/>
<rect x="201.1" y="8" fill="none" stroke="#4DBDD7" stroke-miterlimit="10" width="42.7" height="29.8"/>
<line fill="none" x1="201.1" y1="17.5" x2="243.8" y2="17.5"/>
<line fill="none" stroke="#4DBDD7" stroke-miterlimit="10" x1="201.1" y1="27.4" x2="243.8" y2="27.4"/>
<rect x="256.4" y="8" fill="none" stroke="#6DC1AD" stroke-miterlimit="10" width="42.7" height="29.8"/>
<line fill="none" stroke="#6DC1AD" stroke-miterlimit="10" x1="256.4" y1="26.9" x2="299.1" y2="26.9"/>
<line fill="none" x1="256.4" y1="36.3" x2="299.1" y2="36.3"/>
<rect x="311.7" y="8" fill="none" stroke="#B99FCA" stroke-miterlimit="10" width="42.7" height="29.8"/>
<line fill="none" x1="311.7" y1="36.3" x2="354.4" y2="36.3"/>
<line fill="none" stroke="#B99FCA" stroke-miterlimit="10" x1="311.7" y1="27.4" x2="354.4" y2="27.4"/>
<rect x="367" y="8" fill="none" stroke="#EC923F" stroke-miterlimit="10" width="42.7" height="29.8"/>
<line fill="none" stroke="#EC923F" stroke-miterlimit="10" x1="367" y1="27.4" x2="409.7" y2="27.4"/>
<rect x="422.3" y="8" fill="none" stroke="#E48482" stroke-miterlimit="10" width="42.7" height="29.8"/>
<line fill="none" stroke="#E48482" stroke-miterlimit="10" x1="422.3" y1="27.3" x2="465.1" y2="27.3"/>
<line fill="none" x1="367" y1="36.3" x2="409.7" y2="36.3"/>
<line fill="none" x1="422.3" y1="36.3" x2="465.1" y2="36.3"/>
<text transform="matrix(1 0 0 1 205.8477 24.1107)" fill="#010202" font-family="'Lato-Regular'" font-size="5">HEX: 4DBCD7</text>
<text transform="matrix(1 0 0 1 261.5977 23.954)" fill="#6DC1AD" font-family="'Lato-Regular'" font-size="5">HEX: 6DC0AC</text>
<text transform="matrix(1 0 0 1 317.7227 24.1102)" fill="#B99FCA" font-family="'Lato-Regular'" font-size="5">HEX: B99FC9</text>
<text transform="matrix(1 0 0 1 373.3477 23.954)" fill="#E48482" font-family="'Lato-Regular'" font-size="5">HEX: EB913E</text>
<text transform="matrix(1 0 0 1 428.7227 24.1102)" fill="#E48482" font-family="'Lato-Regular'" font-size="5">HEX: E48482</text>
<text transform="matrix(1 0 0 1 204.4307 34.1107)" fill="#010202" font-family="'Lato-Regular'" font-size="5">rgb(77,188,215)</text>
<rect x="201" y="50.5" fill="#D2CB4B" width="42.7" height="9.4"/>
<rect x="201" y="50.5" fill="none" stroke="#D2CB4B" stroke-miterlimit="10" width="42.7" height="29.8"/>
<line fill="none" x1="201" y1="59.9" x2="243.7" y2="59.9"/>
<line fill="none" x1="201" y1="78.7" x2="243.7" y2="78.7"/>
<line fill="none" stroke="#D2CB4B" stroke-miterlimit="10" x1="201" y1="69.8" x2="243.7" y2="69.8"/>
<text transform="matrix(1 0 0 1 206.2852 66.5448)" fill="#D2CB4B" font-family="'Lato-Regular'" font-size="5">HEX: D2CA4A</text>
<text transform="matrix(1 0 0 1 204.3691 76.5448)" fill="#D2CB4B" font-family="'Lato-Regular'" font-size="5">rgb(210,202,74)</text>
<text transform="matrix(1 0 0 1 258.2637 34.1107)" fill="#6DC1AD" font-family="'Lato-Regular'" font-size="5">rgb(109,192,172)</text>
<text transform="matrix(1 0 0 1 313.8477 34.1107)" fill="#B99FCA" font-family="'Lato-Regular'" font-size="5">rgb(185,159,201)</text>
<text transform="matrix(1 0 0 1 370.6807 34.1107)" fill="#E48482" font-family="'Lato-Regular'" font-size="5">rgb(235,145,62)</text>
<text transform="matrix(1 0 0 1 424.2227 34.1107)" fill="#E48482" font-family="'Lato-Regular'" font-size="5">rgb(228,132,130)</text>
<text transform="matrix(1 0 0 1 201.0566 1.16)" fill="#A2A9BD" font-family="'Lato-Regular'" font-size="5">Standard bright colors</text>
<rect x="201.1" y="100.3" fill="#173840" width="42.7" height="9.4"/>
<rect x="256.4" y="100.3" fill="#244039" width="42.7" height="9.4"/>
<rect x="311.7" y="100.3" fill="#3B3240" width="42.7" height="9.4"/>
<rect x="367" y="100.3" fill="#402814" width="42.7" height="9.4"/>
<rect x="422.3" y="100.3" fill="#402524" width="42.7" height="9.4"/>
<rect x="201.1" y="100.3" fill="none" stroke="#173840" stroke-miterlimit="10" width="42.7" height="29.8"/>
<line fill="none" x1="201.1" y1="109.7" x2="243.8" y2="109.7"/>
<line fill="none" x1="201.1" y1="128.5" x2="243.8" y2="128.5"/>
<line fill="none" stroke="#173840" stroke-miterlimit="10" x1="201.1" y1="119.6" x2="243.8" y2="119.6"/>
<rect x="256.4" y="100.3" fill="none" stroke="#244039" stroke-miterlimit="10" width="42.7" height="29.8"/>
<line fill="none" stroke="#244039" stroke-miterlimit="10" x1="256.4" y1="119.1" x2="299.1" y2="119.1"/>
<line fill="none" x1="256.4" y1="128.5" x2="299.1" y2="128.5"/>
<rect x="311.7" y="100.3" fill="none" stroke="#3B3240" stroke-miterlimit="10" width="42.7" height="29.8"/>
<line fill="none" x1="311.7" y1="128.5" x2="354.5" y2="128.5"/>
<line fill="none" stroke="#3B3240" stroke-miterlimit="10" x1="311.7" y1="119.6" x2="354.5" y2="119.6"/>
<rect x="367" y="100.3" fill="none" stroke="#402814" stroke-miterlimit="10" width="42.7" height="29.8"/>
<line fill="none" stroke="#402814" stroke-miterlimit="10" x1="367" y1="119.6" x2="409.8" y2="119.6"/>
<rect x="422.3" y="100.2" fill="none" stroke="#402524" stroke-miterlimit="10" width="42.7" height="29.8"/>
<line fill="none" stroke="#402524" stroke-miterlimit="10" x1="422.3" y1="119.6" x2="465.1" y2="119.6"/>
<line fill="none" x1="367" y1="128.5" x2="409.8" y2="128.5"/>
<line fill="none" x1="422.3" y1="128.5" x2="465.1" y2="128.5"/>
<text transform="matrix(1 0 0 1 206.8789 116.3612)" fill="#010202" font-family="'Lato-Regular'" font-size="5">HEX: 1C1C1B</text>
<text transform="matrix(1 0 0 1 262.6289 116.204)" fill="#244039" font-family="'Lato-Regular'" font-size="5">HEX: 3B4256</text>
<text transform="matrix(1 0 0 1 317.2539 116.3602)" fill="#3B3240" font-family="'Lato-Regular'" font-size="5">HEX: 6B6F7D</text>
<text transform="matrix(1 0 0 1 372.8789 116.204)" fill="#402814" font-family="'Lato-Regular'" font-size="5">HEX: 7D8C90</text>
<text transform="matrix(1 0 0 1 428.2539 116.3602)" fill="#402524" font-family="'Lato-Regular'" font-size="5">HEX: A2A9BC</text>
<text transform="matrix(1 0 0 1 207.4619 126.3612)" fill="#010202" font-family="'Lato-Regular'" font-size="5">rgb(28,28,27)</text>
<rect x="201" y="142.7" fill="#403D1A" width="42.7" height="9.4"/>
<rect x="201" y="142.7" fill="none" stroke="#403D1A" stroke-miterlimit="10" width="42.7" height="29.8"/>
<line fill="none" x1="201" y1="152.1" x2="243.8" y2="152.1"/>
<line fill="none" x1="201" y1="171" x2="243.8" y2="171"/>
<line fill="none" stroke="#403D1A" stroke-miterlimit="10" x1="201" y1="162.1" x2="243.8" y2="162.1"/>
<text transform="matrix(1 0 0 1 206.8164 158.7948)" fill="#403D1A" font-family="'Lato-Regular'" font-size="5">HEX: 1C1C1B</text>
<text transform="matrix(1 0 0 1 207.4004 168.7948)" fill="#403D1A" font-family="'Lato-Regular'" font-size="5">rgb(28,28,27)</text>
<text transform="matrix(1 0 0 1 262.7949 126.3612)" fill="#244039" font-family="'Lato-Regular'" font-size="5">rgb(59,66,86)</text>
<text transform="matrix(1 0 0 1 313.8789 126.3612)" fill="#3B3240" font-family="'Lato-Regular'" font-size="5">rgb(107,111,125)</text>
<text transform="matrix(1 0 0 1 369.7119 126.3612)" fill="#402814" font-family="'Lato-Regular'" font-size="5">rgb(125,140,144)</text>
<text transform="matrix(1 0 0 1 424.2539 126.3612)" fill="#402524" font-family="'Lato-Regular'" font-size="5">rgb(162,169,188)</text>
<text transform="matrix(1 0 0 1 201.0869 93.41)" fill="#A2A9BD" font-family="'Lato-Regular'" font-size="5">Shades bright colors</text>
<rect x="201" y="188.9" fill="#E9E8E9" width="42.7" height="9.4"/>
<rect x="256.3" y="188.9" fill="#FFFFFF" width="42.7" height="9.4"/>
<rect x="201" y="188.9" fill="none" stroke="#E9E8E9" stroke-miterlimit="10" width="42.7" height="29.8"/>
<line fill="none" x1="201" y1="198.3" x2="243.7" y2="198.3"/>
<line fill="#E9E8E9" x1="201" y1="207.7" x2="243.7" y2="207.7"/>
<line fill="none" x1="201" y1="217.1" x2="243.7" y2="217.1"/>
<line fill="#E9E8E9" x1="201" y1="208.2" x2="243.7" y2="208.2"/>
<rect x="256.3" y="188.9" fill="none" stroke="#E9E8E9" stroke-miterlimit="10" width="42.7" height="29.8"/>
<line fill="none" stroke="#E9E8E9" stroke-miterlimit="10" x1="256.3" y1="207.7" x2="299" y2="207.7"/>
<line fill="none" x1="256.3" y1="217.1" x2="299" y2="217.1"/>
<text transform="matrix(1 0 0 1 206.7852 204.9432)" fill="#E9E8E9" font-family="'Lato-Regular'" font-size="5">HEX: E8E8E8</text>
<g>
	<text transform="matrix(1 0 0 1 262.5352 204.787)" fill="#E9E8E9" font-family="'Lato-Regular'" font-size="5">HEX: FFFFFF</text>
</g>
<text transform="matrix(1 0 0 1 203.3691 214.9432)" fill="#E9E8E9" font-family="'Lato-Regular'" font-size="5">rgb(232,232,232)</text>
<g>
	<text transform="matrix(1 0 0 1 258.7012 214.9432)" fill="#E9E8E9" font-family="'Lato-Regular'" font-size="5">rgb(255,255,255)</text>
</g>
<rect x="201" y="235.3" fill="#E5E5E4" width="42.7" height="9.4"/>
<rect x="201" y="235.3" fill="none" stroke="#E5E5E4" stroke-miterlimit="10" width="42.7" height="29.8"/>
<line fill="none" x1="201" y1="244.7" x2="243.7" y2="244.7"/>
<line fill="none" stroke="#E5E5E4" stroke-miterlimit="10" x1="201" y1="254.6" x2="243.7" y2="254.6"/>
<text transform="matrix(1 0 0 1 207.2852 251.3553)" fill="#E5E5E4" font-family="'Lato-Regular'" font-size="5">HEX: E5E5E5</text>
<text transform="matrix(1 0 0 1 203.3691 261.3553)" fill="#E5E5E4" font-family="'Lato-Regular'" font-size="5">rgb(229,229,229)</text>
<g>
	<text transform="matrix(1 0 0 1 201.4102 228.4432)" fill="#A2A9BD" font-family="'Lato-Regular'" font-size="5">Shades light colors</text>
</g>
<g>
	<text transform="matrix(1 0 0 1 201.4941 183.4432)" fill="#A2A9BD" font-family="'Lato-Regular'" font-size="5">Standard light colors</text>
</g>
<path fill="#E57A23" d="M363,210.2c-0.3,0-0.6-0.2-0.7-0.5l-3.9-10.9c-0.1-0.4,0.1-0.8,0.4-0.9s0.8,0.1,0.9,0.4l3.7,10.3l2.2-0.8
	l0.1-7.2c0-0.3,0.2-0.6,0.5-0.6s0.6,0,0.8,0.2l4.4,5.6l27.7-10l-3.7-10.3c-0.1-0.4,0.1-0.8,0.4-0.9s0.8,0.1,0.9,0.4l3.9,10.9
	c0.1,0.2,0.1,0.4,0,0.5s-0.2,0.3-0.4,0.4l-28.8,10.4c-0.3,0.1-0.6,0-0.8-0.2l-3.5-4.4l-0.1,5.7c0,0.3-0.2,0.6-0.5,0.6l-3.3,1.2
	C363.2,210.2,363.1,210.2,363,210.2z"/>
<path fill="#E57A23" d="M381.2,219.6L381.2,219.6c-1.7,0-2.5-1.8-2.7-2.8l-1.1-5.5c-0.1-0.3,0.1-0.6,0.3-0.7c0.2-0.2,0.5-0.2,0.8,0
	c0.1,0,1.4,0.9,2.8,2c2,1.7,3,3.1,3,4.3c0,0.5-0.1,1.3-1,1.9C382.5,219.3,381.8,219.6,381.2,219.6z M379.1,212.7l0.8,3.8
	c0,0,0.3,1.7,1.3,1.7l0,0c0.4,0,0.8-0.2,1.3-0.5c0.4-0.3,0.4-0.5,0.4-0.7C382.8,215.9,380.9,214.1,379.1,212.7z"/>
<path fill="#E57A23" d="M391.4,222.5L391.4,222.5c-1.7,0-2.5-1.8-2.7-2.8l-1.1-5.5c-0.1-0.3,0.1-0.6,0.3-0.7c0.2-0.2,0.5-0.2,0.8,0
	c0.1,0,1.4,0.9,2.8,2c2,1.7,3,3.1,3,4.3c0,0.5-0.1,1.3-1,1.9C392.8,222.2,392.1,222.5,391.4,222.5z M389.3,215.6l0.8,3.8
	c0,0,0.3,1.7,1.3,1.7l0,0c0.4,0,0.8-0.2,1.3-0.5c0.4-0.3,0.4-0.5,0.4-0.7C393.1,218.8,391.2,217,389.3,215.6z"/>
<path fill="#D4CD4D" d="M370,185.1c-0.2,0-0.4-0.1-0.6-0.3c-2.1-2.6-4-6.2-5.6-10.6c-1.6-4.4-2.5-8.8-2.5-12.3c0-3.8,1-6.2,2.8-6.9
	c1.9-0.7,4.2,0.6,6.6,3.5c2.2,2.7,4.3,6.6,5.9,11c1.6,4.3,2.4,8.3,2.5,11.7c0,0.4-0.3,0.7-0.7,0.7s-0.7-0.3-0.7-0.7
	c-0.1-3.2-0.9-7.1-2.4-11.2c-1.5-4.2-3.5-8-5.7-10.6c-1.9-2.3-3.8-3.4-5-3c-1.2,0.4-1.9,2.5-1.9,5.6c0,3.4,0.8,7.6,2.4,11.8
	c1.5,4.2,3.3,7.7,5.3,10.2c0.3,0.3,0.2,0.8-0.1,1C370.2,185,370.1,185.1,370,185.1z"/>
<path fill="#D4CD4D" d="M356.6,200c-0.3,0-0.6-0.2-0.7-0.5l-1.7-4.6c-0.1-0.4,0.1-0.8,0.4-0.9c0.4-0.1,0.8,0.1,0.9,0.4l1.4,4
	l40.4-14.6l-1.4-3.9c-0.1-0.4,0.1-0.8,0.4-0.9s0.8,0.1,0.9,0.4l1.7,4.6c0.1,0.4-0.1,0.8-0.4,0.9L356.9,200
	C356.8,200,356.7,200,356.6,200z"/>
<path fill="#D4CD4D" d="M378.4,182c-0.3,0-0.6-0.2-0.7-0.5c-0.1-0.4,0.1-0.8,0.4-0.9l11.4-4.1c1.5-0.5,3-0.8,4.2-0.7
	c1.5,0.1,2.4,0.6,2.7,1.5l0.8,2.2c0.1,0.4-0.1,0.8-0.4,0.9s-0.8-0.1-0.9-0.4l-0.8-2.2c-0.1-0.2-0.6-0.5-1.5-0.5
	c-1-0.1-2.4,0.2-3.7,0.7l-11.4,4.1C378.6,182,378.5,182,378.4,182z"/>
<path fill="#D4CD4D" d="M354.9,195.2c-0.3,0-0.6-0.2-0.7-0.5l-0.8-2.1c-0.2-0.5-0.3-1.5,1.2-2.8c0.9-0.8,2.2-1.5,3.7-2.1l11.2-4
	c0.4-0.1,0.8,0.1,0.9,0.4s-0.1,0.8-0.4,0.9l-11.2,4.1c-1.3,0.5-2.5,1.1-3.3,1.8c-0.8,0.7-0.9,1.1-0.8,1.3l0.7,2.1
	c0.1,0.4-0.1,0.8-0.4,0.9C355.1,195.2,355,195.2,354.9,195.2z"/>
<path fill="#D4CD4D" d="M366.6,164.5c-1.2,0-2.4-0.8-2.8-2c-0.6-1.6,0.2-3.3,1.6-3.8c0.3-0.1,0.6-0.2,0.9-0.2c1.2,0,2.4,0.8,2.8,2
	c0.6,1.6-0.2,3.3-1.6,3.8C367.2,164.4,366.9,164.5,366.6,164.5z M366.4,159.9c-0.1,0-0.3,0-0.4,0.1c-0.8,0.3-1.1,1.2-0.8,2
	c0.3,0.7,0.8,1.1,1.5,1.1c0.1,0,0.3,0,0.4-0.1c0.8-0.3,1.1-1.2,0.8-2C367.6,160.3,367,159.9,366.4,159.9z"/>
<path fill="#E57A23" d="M385.6,202c-0.3,0-0.6-0.2-0.7-0.5l-2.5-6.9c-0.1-0.4,0.1-0.8,0.4-0.9c0.4-0.1,0.8,0.1,0.9,0.4l2.5,6.9
	c0.1,0.4-0.1,0.8-0.4,0.9C385.8,202,385.7,202,385.6,202z"/>
<path fill="#E57A23" d="M388.4,201.1c-0.3,0-0.6-0.2-0.7-0.5l-2-5.5c-0.1-0.4,0.1-0.8,0.4-0.9s0.8,0.1,0.9,0.4l2,5.5
	c0.1,0.4-0.1,0.8-0.4,0.9C388.5,201.1,388.4,201.1,388.4,201.1z"/>
<path fill="#E57A23" d="M393.8,199.1c-0.3,0-0.6-0.2-0.7-0.5l-2-5.5c-0.1-0.4,0.1-0.8,0.4-0.9s0.8,0.1,0.9,0.4l2,5.5
	c0.1,0.4-0.1,0.8-0.4,0.9C394,199.1,393.9,199.1,393.8,199.1z"/>
<path fill="#E57A23" d="M391.1,200.1c-0.3,0-0.6-0.2-0.7-0.5l-2.5-6.9c-0.1-0.4,0.1-0.8,0.4-0.9s0.8,0.1,0.9,0.4l2.5,6.9
	c0.1,0.4-0.1,0.8-0.4,0.9C391.3,200.1,391.2,200.1,391.1,200.1z"/>
<path fill="#60BCA0" d="M425.2,214.6c-8.5,0-21.1-1.3-21.1-5.1s12.6-5.1,21.1-5.1c8.5,0,21.1,1.3,21.1,5.1S433.7,214.6,425.2,214.6z
	 M425.2,205.9c-12.9,0-19.7,2.4-19.7,3.7c0,1.3,6.8,3.7,19.7,3.7s19.7-2.4,19.7-3.7C444.9,208.2,438.1,205.9,425.2,205.9z"/>
<path fill="#60BCA0" d="M425.2,254.9c-8.5,0-21.1-1.3-21.1-5.1c0-0.4,0.3-0.7,0.7-0.7s0.7,0.3,0.7,0.7c0,1.3,6.8,3.7,19.7,3.7
	s19.7-2.4,19.7-3.7c0-0.4,0.3-0.7,0.7-0.7s0.7,0.3,0.7,0.7C446.3,253.6,433.7,254.9,425.2,254.9z"/>
<path fill="#E57A23" d="M415.8,219.1c-0.1,0-0.1,0-0.2,0c-1.9-0.5-3.1-1-3.7-1.8c-0.3-0.3-0.2-0.7,0.1-1c0.3-0.3,0.7-0.2,1,0.1
	c0.3,0.3,1,0.8,2.9,1.3c0.4,0.1,0.6,0.5,0.5,0.8C416.4,218.9,416.1,219.1,415.8,219.1z"/>
<path fill="#E57A23" d="M424.3,220C424.3,220,424.3,220,424.3,220L424.3,220c-0.8,0-0.8-0.7-0.8-0.7s0-0.7,0.7-0.7l0,0h0h0l0,0
	c1.4,0,2.6-0.1,4-0.1c0.4,0,0.7,0.3,0.8,0.6c0,0.4-0.3,0.7-0.6,0.8C427.1,219.9,425.8,220,424.3,220L424.3,220L424.3,220L424.3,220z
	"/>
<path fill="none" stroke="#D4CD4D" stroke-width="5" stroke-linecap="round" stroke-linejoin="round" stroke-miterlimit="10" d="
	M428.6,219.1"/>
<path fill="#E57A23" d="M437.2,218.6c-0.3,0-0.5-0.2-0.6-0.4c-0.1-0.4,0-0.8,0.4-0.9c0.5-0.2,0.6-0.3,0.9-0.6l0.5,0.5l0.5,0.5
	c-0.4,0.4-0.6,0.6-1.4,0.9C437.3,218.6,437.2,218.6,437.2,218.6z"/>
<path fill="#60BCA0" d="M404.8,250.6c-0.4,0-0.7-0.3-0.7-0.7v-40.4c0-0.4,0.3-0.7,0.7-0.7s0.7,0.3,0.7,0.7v40.4
	C405.5,250.3,405.2,250.6,404.8,250.6z"/>
<path fill="#60BCA0" d="M445.6,250.6c-0.4,0-0.7-0.3-0.7-0.7v-40.4c0-0.4,0.3-0.7,0.7-0.7s0.7,0.3,0.7,0.7v40.4
	C446.3,250.3,446,250.6,445.6,250.6z"/>
<path fill="#60BCA0" d="M445.6,210.2c-0.4,0-0.7-0.3-0.7-0.7v-8.8c0-4.4-8.7-8.1-18.9-8.1h-1.5c-10.3,0-18.9,3.7-18.9,8.1v8.8
	c0,0.4-0.3,0.7-0.7,0.7c-0.4,0-0.7-0.3-0.7-0.7v-8.8c0-5.3,8.9-9.5,20.3-9.5h1.5c11.4,0,20.3,4.2,20.3,9.5v8.8
	C446.3,209.9,446,210.2,445.6,210.2z"/>
<path fill="none" stroke="#D4CD4D" stroke-width="5" stroke-linecap="round" stroke-linejoin="round" stroke-miterlimit="10" d="
	M423.1,221.1"/>
<path fill="#E57A23" d="M419.9,232.6c-2.7,0-4.9-2.7-4.9-6v-8.2c0-0.4,0.3-0.7,0.7-0.7s0.7,0.3,0.7,0.7v8.2c0,2.5,1.6,4.6,3.5,4.6
	c1.9,0,3.5-2.1,3.6-4.6l0.1-7.3c0-0.4,0.3-0.7,0.7-0.7l0,0c0.4,0,0.7,0.3,0.7,0.7l-0.1,7.3C424.9,229.9,422.6,232.6,419.9,232.6z"/>
<path fill="#E57A23" d="M432.8,228.2c-2.8,0-5.1-2.1-5.1-4.8v-4.1c0-0.4,0.3-0.7,0.7-0.7s0.7,0.3,0.7,0.7v4.1c0,1.9,1.7,3.4,3.7,3.4
	c2,0,3.7-1.8,3.7-4v-4.7c0-0.4,0.3-0.7,0.7-0.7s0.7,0.3,0.7,0.7v4.7C437.9,225.8,435.6,228.2,432.8,228.2z"/>
<circle fill="none" stroke="#B99FCA" stroke-width="5" stroke-miterlimit="10" cx="-146.5" cy="74.9" r="57.1"/>
<path fill="none" stroke="#B99FCA" stroke-width="5" stroke-miterlimit="10" d="M-145.5,25.7c5.1-2.4,10.6-4.2,16.3-5.2"/>
<path fill="none" stroke="#B99FCA" stroke-width="5" stroke-miterlimit="10" d="M-183.7,86.4c0-0.2,0-0.4,0-0.7
	c0-20.6,9.3-38.9,24-51.1"/>
<path fill="none" stroke="#B99FCA" stroke-width="5" stroke-miterlimit="10" d="M-183.7,86.4"/>
<path fill="none" stroke="#B99FCA" stroke-width="5" stroke-miterlimit="10" d="M-169,127.4c-5.7-7.1-10-15.4-12.4-24.5"/>
<path fill="none" stroke="#B99FCA" stroke-width="5" stroke-miterlimit="10" d="M-111.1,103.1c-1.4,7.9-4.2,15.4-8.1,22"/>
<path fill="none" stroke="#B99FCA" stroke-width="5" stroke-miterlimit="10" d="M-144,33.6c19.1,10.8,32.4,30.8,33.8,54"/>
<path fill="none" stroke="#B99FCA" stroke-width="5" stroke-miterlimit="10" d="M-174.5,25.1c5.2,0.2,10.3,0.9,15.1,2.2"/>
<path fill="none" stroke="#B99FCA" stroke-width="5" stroke-miterlimit="10" d="M-103.8,100.5c1.7,1.9,3.3,3.9,4.7,6"/>
<path fill="none" stroke="#B99FCA" stroke-width="5" stroke-miterlimit="10" d="M-176.8,90c8.8-5.5,19.2-8.7,30.3-8.7
	c11.4,0,22,3.3,30.9,9.1"/>
<path fill="none" stroke="#B99FCA" stroke-width="5" stroke-miterlimit="10" d="M-194,106.7c1.4-2,2.9-4,4.5-5.8"/>
<path fill="none" stroke="#B99FCA" stroke-width="5" stroke-miterlimit="10" d="M-180.8,132.2"/>
<circle fill="none" stroke="#D2CB4B" stroke-width="5" stroke-miterlimit="10" cx="-110.1" cy="94.8" r="7.8"/>
<circle fill="none" stroke="#D2CB4B" stroke-width="5" stroke-miterlimit="10" cx="-183.7" cy="94.8" r="7.8"/>
<circle fill="none" stroke="#D2CB4B" stroke-width="5" stroke-miterlimit="10" cx="-151.9" cy="32.1" r="7.8"/>
<circle fill="none" stroke="#D2CB4B" stroke-width="5" stroke-linecap="round" stroke-linejoin="round" stroke-miterlimit="10" cx="74.6" cy="71.5" r="18.4"/>
<line fill="none" stroke="#D2CB4B" stroke-width="5" stroke-linecap="round" stroke-linejoin="round" stroke-miterlimit="10" x1="73.9" y1="104.6" x2="74" y2="90.1"/>
<line fill="none" stroke="#D2CB4B" stroke-width="5" stroke-linecap="round" stroke-linejoin="round" stroke-miterlimit="10" x1="103.9" y1="55.2" x2="91.3" y2="62.5"/>
<line fill="none" stroke="#D2CB4B" stroke-width="5" stroke-linecap="round" stroke-linejoin="round" stroke-miterlimit="10" x1="46.1" y1="54.9" x2="58.7" y2="62.2"/>
<circle fill="none" stroke="#D2CB4B" stroke-width="5" stroke-linecap="round" stroke-linejoin="round" stroke-miterlimit="10" cx="111.2" cy="51" r="7.4"/>
<circle fill="none" stroke="#D2CB4B" stroke-width="5" stroke-linecap="round" stroke-linejoin="round" stroke-miterlimit="10" cx="73.9" cy="112.7" r="7.4"/>
<circle fill="none" stroke="#D2CB4B" stroke-width="5" stroke-linecap="round" stroke-linejoin="round" stroke-miterlimit="10" cx="38.7" cy="51" r="7.4"/>
<circle fill="none" stroke="#B99FCA" stroke-width="5" stroke-miterlimit="10" cx="74.6" cy="29" r="7.4"/>
<circle fill="none" stroke="#B99FCA" stroke-width="5" stroke-miterlimit="10" cx="111.2" cy="92.7" r="7.4"/>
<circle fill="none" stroke="#B99FCA" stroke-width="5" stroke-miterlimit="10" cx="38.7" cy="92.7" r="7.4"/>
</svg>
