<?xml version="1.0" encoding="utf-8"?>
<!-- Generator: Adobe Illustrator 17.1.0, SVG Export Plug-In . SVG Version: 6.00 Build 0)  -->
<!DOCTYPE svg PUBLIC "-//W3C//DTD SVG 1.1//EN" "http://www.w3.org/Graphics/SVG/1.1/DTD/svg11.dtd">
<svg version="1.1" id="Laag_1" xmlns="http://www.w3.org/2000/svg" xmlns:xlink="http://www.w3.org/1999/xlink" x="0px" y="0px"
	 viewBox="0 0 400 400" enable-background="new 0 0 400 400" xml:space="preserve">
<g>
	<g>
		<g>
			<path fill="#B99FCA" d="M120.2,310.5c-2,0-4-0.6-5.7-1.6l-92.6-57.4c-5.1-3.2-6.7-9.9-3.5-15l58.1-93.7c2-3.2,5.6-5.2,9.3-5.2
				c2,0,4,0.6,5.7,1.6l92.6,57.4c5.1,3.2,6.7,9.9,3.5,15l-58.1,93.7C127.6,308.5,124,310.5,120.2,310.5z M85.8,144.1
				c-1.6,0-3,0.8-3.9,2.1l-58.1,93.7c-1.3,2-0.6,4.9,1.5,6.1l92.6,57.4c0.7,0.4,1.5,0.6,2.3,0.6c1.6,0,3.1-0.8,3.9-2.1l58.1-93.7
				c1.3-2,0.6-4.9-1.5-6.1l-92.6-57.4C87.4,144.3,86.6,144.1,85.8,144.1z"/>
		</g>
	</g>
	<g>
		<g>
			<path fill="#B99FCA" d="M177.6,197.6c-0.6,0-1.2-0.2-1.7-0.5c-1.5-0.9-2-2.9-1-4.5c0,0,8.3-13.3,18.3-29.4
				c9.1-14.7,2.7-35.2-14.2-45.8l-14.3-8.8c-16.9-10.5-38.1-7.1-47.3,7.6c-10,16-18.2,29.3-18.3,29.4c-0.9,1.5-2.9,2-4.4,1.1
				c-1.5-0.9-2-2.9-1.1-4.4c0.1-0.1,8.3-13.5,18.3-29.4c11.1-17.7,36.3-22.1,56.2-9.7l14.3,8.8c20,12.4,27.3,36.9,16.3,54.6
				c-10,16.2-18.3,29.4-18.3,29.4C179.7,197.1,178.6,197.6,177.6,197.6z"/>
		</g>
	</g>
	<g>
		<path fill="#6EC1AD" d="M106.7,234.5c-1.2,0-2.4-0.1-3.5-0.3c-1.8-0.3-2.9-2-2.6-3.8c0.3-1.8,2-2.9,3.8-2.6
			c4.8,0.9,9.6-1.2,12.2-5.3c3.4-5.5,1.7-12.8-3.7-16.1c-5.5-3.4-12.8-1.7-16.1,3.8c-2.4,3.9-2.4,8.7,0.1,12.5c1,1.5,0.5,3.5-1,4.5
			c-1.5,1-3.5,0.5-4.5-1c-3.8-6-3.8-13.4-0.1-19.4c5.2-8.5,16.5-11.1,25-5.9c8.5,5.2,11.1,16.5,5.9,25
			C118.8,231.3,113,234.5,106.7,234.5z"/>
	</g>
	<g>
		<g>
			<path fill="#6EC1AD" d="M87,256.9c-1.5,0-3-0.4-4.3-1.2l-1.7-1.1c-1.7-1.1-3-2.9-3.5-4.9c-0.5-2.1-0.1-4.3,1-6.1L91,223.5
				c0.9-1.5,2.9-2,4.4-1.1c1.5,0.9,2,2.9,1.1,4.4L84.1,247c-0.3,0.5-0.3,0.9-0.2,1.2c0.1,0.4,0.3,0.7,0.7,1l1.7,1.1
				c0.4,0.3,0.9,0.2,1.2,0.2c0.4-0.1,0.7-0.3,1-0.7l12.4-20.1c0.9-1.5,2.9-2,4.4-1.1c1.5,0.9,2,2.9,1.1,4.4l-12.4,20.1
				c-1.1,1.8-2.9,3.1-5,3.6C88.3,256.9,87.6,256.9,87,256.9z"/>
		</g>
	</g>
	<g>
		<g>
			<path fill="#6EC1AD" d="M312.8,279.8c-2.1,0-4.2-0.6-6-1.8l-92.2-60.4c-5-3.3-6.4-10.1-3.2-15.1l59.6-91.2c2-3.1,5.4-4.9,9.1-4.9
				c2.1,0,4.2,0.6,6,1.8l92.2,60.4c2.4,1.6,4.1,4,4.7,6.9c0.6,2.9,0,5.8-1.5,8.2l-59.6,91.2C319.9,277.9,316.5,279.8,312.8,279.8z
				 M280.2,112.8c-1.5,0-2.9,0.7-3.7,2L216.8,206c-1.3,2.1-0.8,4.9,1.3,6.2l92.2,60.4c0.7,0.5,1.6,0.7,2.5,0.7c1.5,0,2.9-0.7,3.7-2
				l59.6-91.2c0.6-1,0.9-2.2,0.6-3.4c-0.2-1.2-0.9-2.2-1.9-2.8l-92.2-60.4C281.9,113.1,281.1,112.8,280.2,112.8z"/>
		</g>
	</g>
	<g>
		<g>
			<path fill="#6EC1AD" d="M216.3,201c-0.6,0-1.2-0.2-1.8-0.5c0,0-13.1-8.6-29-18.9c-7.8-5-13.1-13.1-15.2-22.8
				c-2.3-11.3,0.1-23.5,6.8-33.6l9.2-14c12.8-19.7,37.5-26.4,55-15c16,10.4,29.1,19,29.1,19c1.5,1,1.9,3,0.9,4.5
				c-1,1.5-3,1.9-4.5,0.9c0,0-13.1-8.6-29-18.9c-14.6-9.5-35.2-3.6-46.1,13.1l-9.2,14.1c-5.7,8.7-7.9,19.2-5.9,28.8
				c1.7,7.9,6,14.6,12.3,18.7c16,10.4,29.1,19,29.1,19c1.5,1,1.9,3,0.9,4.5C218.4,200.5,217.4,201,216.3,201z"/>
		</g>
	</g>
	<g>
		<path fill="#B99FCA" d="M288.8,207.3c-3.5,0-6.9-1-10-3c-8.4-5.5-10.7-16.8-5.3-25.1c2.7-4.1,6.7-6.9,11.5-7.9
			c4.7-1,9.6-0.1,13.7,2.6c6.3,4.1,9.4,11.6,7.8,19.1c-0.4,1.7-2.1,2.9-3.8,2.5c-1.7-0.4-2.9-2.1-2.5-3.8c1-4.9-0.9-9.8-5-12.4
			c-2.6-1.7-5.8-2.3-8.8-1.7c-3.1,0.6-5.7,2.4-7.4,5.1c-3.5,5.4-2,12.7,3.4,16.2c3.8,2.5,8.6,2.6,12.5,0.2c1.5-0.9,3.5-0.4,4.4,1.1
			c0.9,1.5,0.4,3.5-1.1,4.4C295.3,206.4,292,207.3,288.8,207.3z"/>
	</g>
	<g>
		<g>
			<path fill="#B99FCA" d="M319.8,219.3c-1.6,0-3.1-0.5-4.5-1.4L295.6,205c-1.5-1-1.9-3-0.9-4.5c1-1.5,3-1.9,4.5-0.9l19.8,13
				c0.5,0.3,0.9,0.3,1.2,0.3c0.4-0.1,0.8-0.3,1-0.7l1.1-1.6c0.3-0.5,0.3-0.9,0.3-1.2c-0.1-0.4-0.3-0.8-0.7-1l-19.8-13
				c-1.5-1-1.9-3-0.9-4.5s3-1.9,4.5-0.9l19.8,13c1.8,1.2,3.1,3.1,3.5,5.2c0.4,2.1,0,4.2-1.3,6l-1,1.5c-1.2,1.8-3.1,3.1-5.2,3.5
				C320.9,219.3,320.3,219.3,319.8,219.3z"/>
		</g>
	</g>
	<g>
		<path fill="#B99FCA" d="M183.8,187.6c-0.6,0-1.2-0.2-1.7-0.5c-1.5-0.9-2-2.9-1-4.4l6.6-10.7c0.9-1.5,2.9-2,4.4-1
			c1.5,0.9,2,2.9,1,4.4l-6.6,10.7C186,187.1,184.9,187.6,183.8,187.6z"/>
	</g>
</g>
</svg>
