<?xml version="1.0" encoding="utf-8"?>
<!-- Generator: Adobe Illustrator 17.1.0, SVG Export Plug-In . SVG Version: 6.00 Build 0)  -->
<!DOCTYPE svg PUBLIC "-//W3C//DTD SVG 1.1//EN" "http://www.w3.org/Graphics/SVG/1.1/DTD/svg11.dtd">
<svg version="1.1" id="Laag_1" xmlns="http://www.w3.org/2000/svg" xmlns:xlink="http://www.w3.org/1999/xlink" x="0px" y="0px"
	 viewBox="0 0 400 400" enable-background="new 0 0 400 400" xml:space="preserve">
<g>
	<path fill="#60BCA0" d="M287.1,293.2c-51.5,0-93.3-41.8-93.3-93.3s41.8-93.3,93.3-93.3c29.6,0,57.8,14.3,75.3,38.2
		c1,1.4,0.8,3.5-0.6,4.5c-1.4,1-3.5,0.8-4.5-0.6c-16.3-22.3-42.5-35.5-70.1-35.5c-47.9,0-86.9,39-86.9,86.9s39,86.9,86.9,86.9
		c17.4,0,34.2-5.1,48.5-14.8c1.4-1,3.5-0.6,4.5,0.9c1,1.4,0.6,3.5-0.9,4.5C323.7,287.7,305.7,293.2,287.1,293.2z"/>
	<path fill="#49B0D2" d="M287.1,304.7c-57.8,0-104.7-47-104.7-104.7s47-104.7,104.7-104.7c1.8,0,3.2,1.4,3.2,3.2
		c0,1.8-1.4,3.2-3.2,3.2c-54.2,0-98.3,44.1-98.3,98.3s44.1,98.3,98.3,98.3c1.8,0,3.2,1.4,3.2,3.2
		C290.3,303.3,288.7,304.7,287.1,304.7z"/>
	<path fill="#60BCA0" d="M295.9,304.3c-1.7,0-3.1-1.3-3.2-3c-0.1-1.8,1.2-3.3,3-3.5c24.4-2.1,47.2-13.1,64-31.3
		c16.9-18.3,26.1-42,26.1-66.8c0-1.8,1.4-3.2,3.2-3.2c1.8,0,3.2,1.4,3.2,3.2c0,26.4-9.9,51.7-27.8,71.2
		c-17.9,19.3-42,31.1-68.1,33.3C296.1,304.3,296.1,304.3,295.9,304.3z"/>
	<path fill="#49B0D2" d="M362.2,203.2c-1.8,0-3.2-1.4-3.2-3.2c0-39.8-32.3-72.1-72.1-72.1c-1.8,0-3.2-1.4-3.2-3.2
		c0-1.8,1.4-3.2,3.2-3.2c43.2,0,78.5,35.1,78.5,78.5C365.4,201.7,364,203.2,362.2,203.2z"/>
	<g>
		<path fill="#49B0D2" d="M267.2,218.7c-1.8,0-3.2-1.4-3.2-3.2v-31.1c0-1.8,1.4-3.2,3.2-3.2c1.8,0,3.2,1.4,3.2,3.2v31.1
			C270.5,217.3,268.9,218.7,267.2,218.7z"/>
		<path fill="#49B0D2" d="M282.8,203.2h-31.1c-1.8,0-3.2-1.4-3.2-3.2s1.4-3.2,3.2-3.2h31.1c1.8,0,3.2,1.4,3.2,3.2
			S284.5,203.2,282.8,203.2z"/>
	</g>
	<path fill="#49B0D2" d="M313.6,220.8c-6.9,0-12.1-9-12.1-20.8s5.1-20.8,12.1-20.8c6.9,0,12.1,9,12.1,20.8S320.4,220.8,313.6,220.8z
		 M313.6,185.5c-2.2,0-5.7,5.8-5.7,14.4s3.3,14.4,5.7,14.4s5.7-5.8,5.7-14.4C319.2,191.2,315.8,185.5,313.6,185.5z"/>
	<path fill="#49B0D2" d="M295.9,220.8c-1.8,0-3.2-1.4-3.2-3.2v-35.3c0-1.8,1.4-3.2,3.2-3.2c1.8,0,3.2,1.4,3.2,3.2v35.3
		C299.2,219.4,297.7,220.8,295.9,220.8z"/>
	<path fill="#60BCA0" d="M27.4,177.9c-10.9,0-19.8-8.9-19.8-19.8c0-10.9,8.9-19.8,19.8-19.8s19.8,8.9,19.8,19.8
		C47.2,169.1,38.3,177.9,27.4,177.9z M27.4,144.9c-7.3,0-13.4,5.9-13.4,13.4c0,7.5,5.9,13.4,13.4,13.4s13.4-5.9,13.4-13.4
		C40.8,150.8,34.7,144.9,27.4,144.9z"/>
	<path fill="#49B0D2" d="M107.9,177.9c-10.9,0-19.8-8.9-19.8-19.8c0-10.9,8.9-19.8,19.8-19.8s19.8,8.9,19.8,19.8
		C127.8,169.1,118.9,177.9,107.9,177.9z M107.9,144.9c-7.3,0-13.4,5.9-13.4,13.4c0,7.5,5.9,13.4,13.4,13.4s13.4-6,13.4-13.4
		S115.3,144.9,107.9,144.9z"/>
	<path fill="#49B0D2" d="M27.4,252.4c-10.9,0-19.8-8.9-19.8-19.8c0-10.9,8.9-19.8,19.8-19.8s19.8,8.9,19.8,19.8
		C47.2,243.6,38.3,252.4,27.4,252.4z M27.4,219.2c-7.3,0-13.4,5.9-13.4,13.4c0,7.3,5.9,13.4,13.4,13.4s13.4-5.9,13.4-13.4
		C40.8,225.3,34.7,219.2,27.4,219.2z"/>
	<path fill="#60BCA0" d="M107.9,252.4c-10.9,0-19.8-8.9-19.8-19.8c0-10.9,8.9-19.8,19.8-19.8s19.8,8.9,19.8,19.8
		C127.8,243.6,118.9,252.4,107.9,252.4z M107.9,219.2c-7.3,0-13.4,5.9-13.4,13.4c0,7.3,5.9,13.4,13.4,13.4s13.4-5.9,13.4-13.4
		C121.3,225.3,115.3,219.2,107.9,219.2z"/>
</g>
</svg>
