<?xml version="1.0" encoding="utf-8"?>
<!-- Generator: Adobe Illustrator 17.1.0, SVG Export Plug-In . SVG Version: 6.00 Build 0)  -->
<!DOCTYPE svg PUBLIC "-//W3C//DTD SVG 1.1//EN" "http://www.w3.org/Graphics/SVG/1.1/DTD/svg11.dtd">
<svg version="1.1" id="Laag_1" xmlns="http://www.w3.org/2000/svg" xmlns:xlink="http://www.w3.org/1999/xlink" x="0px" y="0px"
	 viewBox="0 0 400 400" enable-background="new 0 0 400 400" xml:space="preserve">
<g>
	<path fill="none" stroke="#B99FCA" stroke-width="5" stroke-linecap="round" stroke-linejoin="round" stroke-miterlimit="10" d="
		M123.9,312.8c-2.3,3.7-7.3,4.9-11,2.6l-96.3-59.7c-3.7-2.3-4.9-7.3-2.6-11l60.4-97.4c2.3-3.7,7.3-4.9,11-2.6l96.3,59.7
		c3.7,2.3,4.9,7.3,2.6,11L123.9,312.8z"/>
</g>
<g>
	<path fill="none" stroke="#B99FCA" stroke-width="5" stroke-linecap="round" stroke-linejoin="round" stroke-miterlimit="10" d="
		M92.1,146.8c0,0,8.5-13.8,19-30.6s34.7-20.9,53.8-9l14.9,9.2c19.2,11.9,26.3,35.4,15.9,52.2s-19,30.6-19,30.6"/>
</g>
<path fill="none" stroke="#EC923F" stroke-width="5" stroke-linecap="round" stroke-linejoin="round" stroke-miterlimit="10" d="
	M89.9,230.3c-3.1-4.9-3.4-11.3-0.1-16.6c4.5-7.3,14.1-9.5,21.4-5s9.5,14.1,5,21.4c-3.5,5.7-10,8.3-16.2,7.1"/>
<g>
	<path fill="none" stroke="#EC923F" stroke-width="5" stroke-linecap="round" stroke-linejoin="round" stroke-miterlimit="10" d="
		M99.7,237.6l-12.9,20.9c-1.4,2.3-4.5,3.1-6.9,1.6l-1.7-1.1c-2.3-1.4-3.1-4.5-1.6-6.9l12.9-20.9"/>
</g>
<g>
	<path fill="none" stroke="#6DC1AD" stroke-width="5" stroke-linecap="round" stroke-linejoin="round" stroke-miterlimit="10" d="
		M383.7,175.1c3.7,2.4,4.7,7.4,2.3,11.1l-62,94.8c-2.4,3.7-7.4,4.7-11.1,2.3L217,220.5c-3.7-2.4-4.7-7.4-2.3-11.1l62-94.8
		c2.4-3.7,7.4-4.7,11.1-2.3L383.7,175.1z"/>
</g>
<g>
	<path fill="none" stroke="#6DC1AD" stroke-width="5" stroke-linecap="round" stroke-linejoin="round" stroke-miterlimit="10" d="
		M217,202.7c0,0-13.6-8.9-30.2-19.7s-20.1-35.2-7.7-54l9.6-14.6c12.3-18.9,36-25.4,52.6-14.6s30.2,19.7,30.2,19.7"/>
</g>
<path fill="none" stroke="#EC923F" stroke-width="5" stroke-linecap="round" stroke-linejoin="round" stroke-miterlimit="10" d="
	M300.4,207c-5,3-11.4,3.1-16.6-0.3c-7.2-4.7-9.2-14.3-4.5-21.5c4.7-7.2,14.3-9.2,21.5-4.5c5.6,3.6,8,10.2,6.7,16.4"/>
<g>
	<path fill="none" stroke="#EC923F" stroke-width="5" stroke-linecap="round" stroke-linejoin="round" stroke-miterlimit="10" d="
		M307.9,197.4l20.6,13.5c2.3,1.5,3,4.6,1.4,6.9l-1.1,1.7c-1.5,2.3-4.6,3-6.9,1.4l-20.6-13.5"/>
</g>
<line fill="none" stroke="#B99FCA" stroke-width="5" stroke-linecap="round" stroke-linejoin="round" stroke-miterlimit="10" x1="183.2" y1="188.8" x2="190.1" y2="177.7"/>
</svg>
