<?xml version="1.0" encoding="utf-8"?>
<!-- Generator: Adobe Illustrator 17.1.0, SVG Export Plug-In . SVG Version: 6.00 Build 0)  -->
<!DOCTYPE svg PUBLIC "-//W3C//DTD SVG 1.1//EN" "http://www.w3.org/Graphics/SVG/1.1/DTD/svg11.dtd">
<svg version="1.1" id="Laag_1" xmlns="http://www.w3.org/2000/svg" xmlns:xlink="http://www.w3.org/1999/xlink" x="0px" y="0px"
	 viewBox="0 0 400 400" enable-background="new 0 0 400 400" xml:space="preserve">
<path fill="#E9E8E9" d="M265.5,338H146c-1.4,0-2.5-1.1-2.5-2.5s1.1-2.5,2.5-2.5h117V162c0-1.4,1.1-2.5,2.5-2.5s2.5,1.1,2.5,2.5
	v173.5C268,336.9,266.9,338,265.5,338z"/>
<path fill="#E9E8E9" d="M148,338H64.5c-1.4,0-2.5-1.1-2.5-2.5v-253c0-1.4,1.1-2.5,2.5-2.5h201c1.4,0,2.5,1.1,2.5,2.5V103
	c0,1.4-1.1,2.5-2.5,2.5s-2.5-1.1-2.5-2.5V85H67v248h81c1.4,0,2.5,1.1,2.5,2.5S149.4,338,148,338z"/>
<path fill="#D2CB4B" d="M99.6,308.7c-5.1,0-7.7-2.3-9-4.3c-2.6-3.9-2.3-9.9,0.9-17.3l14.2-33c4.1-9.4,11.5-15,20-15
	c6,0,11.9,2.7,17.1,7.9l7.8,7.8c6.2,6.2,8.9,13.6,7.6,20.7c-1.4,7.1-6.6,12.9-14.7,16.4l-33,14.2
	C106.4,307.8,102.7,308.7,99.6,308.7z M125.7,244c-6.5,0-12.1,4.4-15.4,12l-14.2,33c-2.4,5.6-2.9,10.2-1.3,12.6c0.9,1.4,2.5,2,4.9,2
	c2.4,0,5.5-0.8,8.9-2.2l33-14.2c6.5-2.8,10.7-7.4,11.8-12.8c1-5.4-1.2-11.2-6.2-16.2l-7.8-7.8C135.1,246.2,130.4,244,125.7,244z"/>
<path fill="#D2CB4B" d="M94.6,306.1c-0.6,0-1.3-0.2-1.8-0.7c-1-1-1-2.6,0-3.5l19.1-19.1c1-1,2.6-1,3.5,0c1,1,1,2.6,0,3.5l-19.1,19.1
	C95.9,305.8,95.3,306.1,94.6,306.1z"/>
<path fill="#4DBDD7" d="M165.7,263.3c-0.6,0-1.3-0.2-1.8-0.7l-29-29c-1-1-1-2.6,0-3.5L301.8,63.1c1-1,2.6-1,3.5,0l29,29
	c0.5,0.5,0.7,1.1,0.7,1.8s-0.3,1.3-0.7,1.8L167.5,262.6C167,263,166.3,263.3,165.7,263.3z M140.2,231.8l25.5,25.5L329,93.9
	l-25.5-25.5L140.2,231.8z"/>
<path fill="#4DBDD7" d="M266.5,176.7c-0.6,0-1.3-0.2-1.8-0.7c-1-1-1-2.6,0-3.5l67.2-67.2l-4.2-4.2c-1-1-1-2.6,0-3.5c1-1,2.6-1,3.5,0
	l6,6c0.5,0.5,0.7,1.1,0.7,1.8s-0.3,1.3-0.7,1.8l-68.9,68.9C267.7,176.4,267.1,176.7,266.5,176.7z"/>
<path fill="#4DBDD7" d="M287,141.3c-0.6,0-1.3-0.2-1.8-0.7l-28.3-28.3c-1-1-1-2.6,0-3.5c1-1,2.6-1,3.5,0l28.3,28.3c1,1,1,2.6,0,3.5
	C288.3,141.1,287.6,141.3,287,141.3z"/>
<path fill="#E9E8E9" d="M193,142H91c-1.4,0-2.5-1.1-2.5-2.5s1.1-2.5,2.5-2.5h102c1.4,0,2.5,1.1,2.5,2.5S194.4,142,193,142z"/>
<path fill="#E9E8E9" d="M146,164H91c-1.4,0-2.5-1.1-2.5-2.5s1.1-2.5,2.5-2.5h55c1.4,0,2.5,1.1,2.5,2.5S147.4,164,146,164z"/>
<path fill="#E9E8E9" d="M161,186H91c-1.4,0-2.5-1.1-2.5-2.5s1.1-2.5,2.5-2.5h70c1.4,0,2.5,1.1,2.5,2.5S162.4,186,161,186z"/>
</svg>
