<?xml version="1.0" encoding="utf-8"?>
<!-- Generator: Adobe Illustrator 17.1.0, SVG Export Plug-In . SVG Version: 6.00 Build 0)  -->
<!DOCTYPE svg PUBLIC "-//W3C//DTD SVG 1.1//EN" "http://www.w3.org/Graphics/SVG/1.1/DTD/svg11.dtd">
<svg version="1.1" id="Laag_1" xmlns="http://www.w3.org/2000/svg" xmlns:xlink="http://www.w3.org/1999/xlink" x="0px" y="0px"
	 viewBox="0 0 150 150" enable-background="new 0 0 150 150" xml:space="preserve">
<g>
	<path fill="#D2CB4B" d="M26.9,54.3c-0.2,0-0.4-0.1-0.5-0.2c-0.3-0.3-0.3-0.8,0-1.1l16.3-16.3c0.3-0.3,0.8-0.3,1.1,0
		c0.3,0.3,0.3,0.8,0,1.1L27.4,54.1C27.3,54.2,27.1,54.3,26.9,54.3z"/>
	<path fill="#D2CB4B" d="M76.6,38H43.2c-0.4,0-0.8-0.3-0.8-0.8s0.3-0.8,0.8-0.8h33.5c0.4,0,0.8,0.3,0.8,0.8S77.1,38,76.6,38z"/>
	<path fill="#D2CB4B" d="M75.4,111c-0.2,0-0.4-0.1-0.6-0.3L26.3,54c-0.3-0.3-0.2-0.8,0.1-1.1c0.3-0.3,0.8-0.2,1.1,0.1L76,109.7
		c0.3,0.3,0.2,0.8-0.1,1.1C75.8,111,75.6,111,75.4,111z"/>
</g>
<g>
	<path fill="#D2CB4B" d="M124,54.3c-0.2,0-0.4-0.1-0.5-0.2l-16.3-16.3c-0.3-0.3-0.3-0.8,0-1.1c0.3-0.3,0.8-0.3,1.1,0L124.5,53
		c0.3,0.3,0.3,0.8,0,1.1C124.4,54.2,124.2,54.3,124,54.3z"/>
	<path fill="#D2CB4B" d="M107.7,38H74.2c-0.4,0-0.8-0.3-0.8-0.8s0.3-0.8,0.8-0.8h33.5c0.4,0,0.8,0.3,0.8,0.8S108.1,38,107.7,38z"/>
	<path fill="#D2CB4B" d="M75.4,111c-0.2,0-0.4-0.1-0.5-0.2c-0.3-0.3-0.4-0.8-0.1-1.1L123.4,53c0.3-0.3,0.8-0.4,1.1-0.1
		c0.3,0.3,0.4,0.8,0.1,1.1L76,110.8C75.8,110.9,75.6,111,75.4,111z"/>
</g>
<path fill="#D2CB4B" d="M105.7,56.2c-0.4,0-0.8-0.3-0.8-0.8v-9.3c0-0.4,0.3-0.8,0.8-0.8c0.4,0,0.8,0.3,0.8,0.8v9.3
	C106.5,55.9,106.2,56.2,105.7,56.2z"/>
<path fill="#D2CB4B" d="M114.7,54.8c-0.2,0-0.4-0.1-0.5-0.2l-8.9-7.8c-0.3-0.3-0.4-0.8-0.1-1.1c0.3-0.3,0.8-0.4,1.1-0.1l8.9,7.8
	c0.3,0.3,0.4,0.8,0.1,1.1C115.1,54.7,114.9,54.8,114.7,54.8z"/>
<path fill="#D2CB4B" d="M104,66.8c0,0-0.1,0-0.1,0c-0.3,0-0.5-0.2-0.6-0.4c0-0.1-4.1-8.3-22.3-7.7c-0.5,0-12,0-19-1.6
	c-0.5-0.1-4-0.7-5.6-4.7c-0.1-0.2-0.4-0.9-0.3-2c0.1-1.1,0.5-2.6,2.4-4.2c0.4-0.4,3.7-3.3,12.1-3.9c0.5-0.1,6.5-0.7,12.5,1.6
	c0,0,0,0,0.1,0c0.2,0.1,5.8,2.8,6.8,6.5l1.6,4.2h14.2c0.4,0,0.8,0.3,0.8,0.8c0,0.4-0.3,0.8-0.8,0.8H91c-0.3,0-0.6-0.2-0.7-0.5
	L88.4,51c0,0,0-0.1,0-0.1c-0.6-2.5-4.5-4.8-5.9-5.5c-5.7-2.2-11.7-1.5-11.7-1.5c0,0,0,0,0,0c-8.2,0.6-11.1,3.5-11.2,3.5
	c0,0,0,0-0.1,0c-2.6,2.2-1.7,4.3-1.7,4.4c0,0,0,0,0,0c1.4,3.3,4.4,3.7,4.4,3.7c0,0,0.1,0,0.1,0c6.8,1.5,18.3,1.5,18.6,1.5
	c0,0,0,0,0,0c15.7-0.6,21.5,5.2,23.1,7.6l10-11.2c0.3-0.3,0.8-0.4,1.1-0.1c0.3,0.3,0.4,0.8,0.1,1.1l-10.7,12
	C104.5,66.7,104.2,66.8,104,66.8z"/>
<path fill="#D2CB4B" d="M78.3,81.8c-0.9,0-3.1-0.2-5.2-1.9c-0.8-0.5-2.8-1.9-3.4-2.3c0,0,0,0-0.1,0l0,0c0,0-1.2-0.7-5-1
	c0,0-0.5,0-1.2,0c-1.9,0-3.4,0.3-3.9,0.9L58.1,79c-0.1,0.2-0.4,0.3-0.6,0.3c0,0,0,0,0,0c-0.2,0-0.4-0.1-0.6-0.3l-8.4-9.5
	c-0.2-0.3-0.3-0.7,0-1c0.2-0.3,0.6-0.4,0.9-0.3c0,0,5.1,2.1,21.9,2.3c0.6,0,14.8,0.4,18.4,1.6c0.6,0.2,3.9,1.4,4.7,3
	c0,0.1,0.4,0.9-0.1,2c-1,1.9-4.3,3.2-9.9,4c-0.2,0-3.9,0.5-5.4,0.5c-0.1,0-0.1,0-0.2,0C78.7,81.7,78.5,81.8,78.3,81.8z M70.5,76.2
	c0.8,0.5,3.4,2.3,3.5,2.3c0,0,0,0,0.1,0c2.2,1.8,4.6,1.6,4.6,1.6c0,0,0.1,0,0.1,0c0,0,0.1,0,0.2,0c1.4,0,5.1-0.5,5.2-0.5
	c6.7-0.9,8.3-2.5,8.7-3.1c0.2-0.4,0.2-0.7,0.1-0.7c-0.4-0.8-2.4-1.8-3.7-2.2c-3.4-1.1-17.8-1.6-17.9-1.6c-10.8-0.1-16.8-1-19.8-1.7
	l6.1,6.9l0.8-0.9c0.8-1,2.6-1.4,5.1-1.4c0.8,0,1.3,0.1,1.4,0.1C68.8,75.3,70.2,76.1,70.5,76.2z"/>
<path fill="#D2CB4B" d="M75.5,99c-0.2,0-0.4-0.1-0.6-0.2L63.4,87.1c-0.2-0.2-0.3-0.6-0.1-0.9c0.2-0.3,0.5-0.5,0.9-0.4
	c0,0,4.8,1.1,11.6,1.1c3.4,0,6.8-0.3,10-0.8c0.3-0.1,0.7,0.1,0.8,0.4c0.2,0.3,0.1,0.7-0.1,0.9L76.1,98.8C76,98.9,75.8,99,75.5,99
	C75.5,99,75.5,99,75.5,99z M66.2,87.8l9.3,9.3l8.3-9.1c-2.7,0.3-5.4,0.5-8.1,0.5C71.6,88.5,68.3,88.2,66.2,87.8z"/>
<path fill="#D2CB4B" d="M41.7,62c-0.2,0-0.5-0.1-0.6-0.3L35.7,55c-0.2-0.3-0.2-0.7,0-1l11.1-11.5c0.1-0.2,0.3-0.2,0.6-0.2h6.5
	c0.4,0,0.7,0.3,0.8,0.6c0.1,0.4-0.1,0.7-0.4,0.9c-0.1,0-9.2,4.2-11.8,17.6c-0.1,0.3-0.3,0.5-0.6,0.6C41.8,62,41.7,62,41.7,62z
	 M37.3,54.6l4,4.9c2.1-8.8,6.9-13.5,9.9-15.6h-3.4L37.3,54.6z"/>
<path fill="#D2CB4B" d="M95.7,47.3c-0.2,0-0.4-0.1-0.6-0.2l-3.5-3.5c-0.2-0.2-0.3-0.6-0.2-0.8c0.1-0.3,0.4-0.5,0.7-0.5h5.3
	c0.2,0,0.4,0.1,0.6,0.2c0.1,0.2,0.2,0.4,0.2,0.6c0,0.1-0.2,2.4-2.1,4C96,47.2,95.8,47.3,95.7,47.3z M94.1,43.8l1.6,1.6
	c0.5-0.5,0.7-1.1,0.9-1.6H94.1z"/>
</svg>
