<?xml version="1.0" encoding="utf-8"?>
<!-- Generator: Adobe Illustrator 17.1.0, SVG Export Plug-In . SVG Version: 6.00 Build 0)  -->
<!DOCTYPE svg PUBLIC "-//W3C//DTD SVG 1.1//EN" "http://www.w3.org/Graphics/SVG/1.1/DTD/svg11.dtd">
<svg version="1.1" id="Laag_1" xmlns="http://www.w3.org/2000/svg" xmlns:xlink="http://www.w3.org/1999/xlink" x="0px" y="0px"
	 viewBox="0 0 400 400" enable-background="new 0 0 400 400" xml:space="preserve">
<g>
	<path fill="#49B0D2" d="M378.9,301.6h-359c-4.4,0-7.9-3.5-7.9-7.9V51.1c0-4.4,3.5-7.9,7.9-7.9h359c4.4,0,7.9,3.5,7.9,7.9v242.5
		C386.8,298,383.1,301.6,378.9,301.6z M19.9,49.3c-1,0-1.8,0.9-1.8,1.8v242.5c0,1,0.9,1.8,1.8,1.8h359c1,0,1.8-0.9,1.8-1.8V51.1
		c0-1-0.9-1.8-1.8-1.8H19.9z"/>
	<path fill="#49B0D2" d="M383.7,266.9H15c-1.7,0-3-1.3-3-3c0-1.7,1.3-3,3-3h368.7c1.7,0,3,1.3,3,3
		C386.8,265.5,385.3,266.9,383.7,266.9z"/>
	<path fill="#49B0D2" d="M236.4,355.8h-74.8c-1.7,0-3-1.3-3-3v-54.3c0-1.7,1.3-3,3-3h74.8c1.7,0,3,1.3,3,3v54.3
		C239.4,354.5,238.1,355.8,236.4,355.8z M164.6,349.7h68.7v-48.2h-68.7V349.7z"/>
	<path fill="#49B0D2" d="M265,355.8h-132c-1.7,0-3-1.3-3-3s1.3-3,3-3h132c1.7,0,3,1.3,3,3S266.7,355.8,265,355.8z"/>
	<path fill="#D2CB4C" d="M68.5,169.4c-0.6,0-1.2-0.2-1.8-0.6c-1.3-1-1.7-2.9-0.6-4.3l43.1-58.8c1-1.3,2.9-1.7,4.3-0.6
		c1.3,1,1.7,2.9,0.6,4.3l-43.1,58.8C70.3,169,69.4,169.4,68.5,169.4z"/>
	<path fill="#D2CB4C" d="M163.7,143.9c-0.7,0-1.3-0.2-1.9-0.7l-42-34.4c-1.3-1.1-1.5-2.9-0.5-4.3c1.1-1.3,2.9-1.5,4.3-0.5l42,34.4
		c1.3,1.1,1.5,2.9,0.5,4.3C165.6,143.5,164.6,143.9,163.7,143.9z"/>
	<path fill="#D2CB4C" d="M215.6,172.1c-0.5,0-1-0.1-1.3-0.4l-39.1-20c-1.5-0.7-2.1-2.6-1.3-4.1c0.7-1.5,2.6-2.1,4.1-1.3l39.1,20
		c1.5,0.7,2.1,2.6,1.3,4.1C217.8,171.5,216.7,172.1,215.6,172.1z"/>
	<path fill="#D2CB4C" d="M229.4,173.4c-1.3,0-2.6-0.9-2.9-2.2c-0.5-1.6,0.5-3.3,2.1-3.8l41.6-11.8c1.6-0.5,3.3,0.5,3.8,2.1
		c0.5,1.6-0.5,3.3-2.1,3.8l-41.6,11.8C229.9,173.4,229.7,173.4,229.4,173.4z"/>
	<path fill="none" stroke="#49B0D2" stroke-width="5" stroke-linecap="round" stroke-linejoin="round" stroke-miterlimit="10" d="
		M229.4,170.4"/>
	<path fill="#D2CB4C" d="M325.1,183c-0.5,0-1-0.1-1.3-0.4l-40.3-20.1c-1.5-0.7-2.1-2.6-1.3-4.1c0.7-1.5,2.6-2.1,4.1-1.3l40.3,20.1
		c1.5,0.7,2.1,2.6,1.3,4.1C327.3,182.4,326.2,183,325.1,183z"/>
	<path fill="#D2CB4C" d="M69.4,206.3c-0.7,0-1.5-0.2-2.1-0.7c-1.2-1.1-1.3-3-0.2-4.3l41.6-46.4c1.1-1.2,3-1.3,4.3-0.2
		c1.2,1.1,1.3,3,0.2,4.3l-41.6,46.4C71,205.9,70.3,206.3,69.4,206.3z"/>
	<path fill="#D2CB4C" d="M164.5,206c-0.9,0-1.6-0.4-2.2-1l-43.1-45.9c-1.1-1.2-1.1-3.2,0.1-4.3c1.2-1.1,3.2-1.1,4.3,0.1l43.1,45.9
		c1.1,1.2,1.1,3.2-0.1,4.3C165.9,205.7,165.2,206,164.5,206z"/>
	<path fill="#D2CB4C" d="M174.3,205.7c-0.6,0-1.2-0.2-1.8-0.6c-1.3-1-1.7-2.9-0.7-4.3l49.8-69.1c1-1.3,2.9-1.7,4.3-0.7
		c1.3,1,1.7,2.9,0.7,4.3l-49.8,69.1C176.1,205.3,175.2,205.7,174.3,205.7z"/>
	<path fill="#D2CB4C" d="M235,127.9c-1.1,0-2.1-0.6-2.7-1.6c-0.9-1.5-0.2-3.3,1.2-4.1l36.5-19.8c1.5-0.9,3.3-0.2,4.1,1.2
		c0.9,1.5,0.2,3.3-1.2,4.1l-36.5,19.8C236,127.8,235.5,127.9,235,127.9z"/>
	<path fill="#D2CB4C" d="M285.7,104.8c-1.7,0-3-1.3-3-3s1.3-3,3-3l42.7-0.2l0,0c1.7,0,3,1.3,3,3s-1.3,3-3,3L285.7,104.8L285.7,104.8
		z"/>
	<path fill="#D2CB4C" d="M64.1,182.9c-5.8,0-10.5-4.7-10.5-10.5c0-5.7,4.7-10.5,10.5-10.5s10.5,4.7,10.5,10.5
		C74.5,178.2,69.8,182.9,64.1,182.9z M64.1,168c-2.4,0-4.4,1.9-4.4,4.4s1.9,4.4,4.4,4.4c2.4,0,4.4-1.9,4.4-4.4S66.5,168,64.1,168z"
		/>
	<path fill="#D2CB4C" d="M115.9,112.2c-5.8,0-10.5-4.7-10.5-10.5s4.7-10.5,10.5-10.5s10.5,4.7,10.5,10.5c0,2.4-0.9,4.7-2.3,6.7
		C122.1,110.8,119.1,112.2,115.9,112.2z M115.9,97.3c-2.4,0-4.4,1.9-4.4,4.4c0,2.4,1.9,4.4,4.4,4.4c1.3,0,2.6-0.6,3.4-1.6
		c0.6-0.9,1-1.7,1-2.8C120.4,99.3,118.3,97.3,115.9,97.3z"/>
	<path fill="#D2CB4C" d="M169.4,156c-5.8,0-10.5-4.7-10.5-10.5s4.7-10.5,10.5-10.5s10.5,4.7,10.5,10.5S175.3,156,169.4,156z
		 M169.4,141.1c-2.4,0-4.4,1.9-4.4,4.4s1.9,4.4,4.4,4.4s4.4-1.9,4.4-4.4S171.9,141.1,169.4,141.1z"/>
	<path fill="#D2CB4C" d="M222.3,182.9h-0.1c-2.8,0-5.5-1.2-7.4-3.2s-3-4.6-2.9-7.4c0.1-5.7,4.7-10.3,10.5-10.3h0.1
		c4.6,0.1,8.6,3.2,10,7.7c0.2,1,0.4,1.9,0.4,3C232.6,178.3,228,182.9,222.3,182.9z M222.3,168c-2.4,0-4.4,1.9-4.5,4.4
		c0,1.2,0.4,2.3,1.2,3.2c0.9,0.9,1.9,1.3,3,1.3h0.1c2.4,0,4.4-1.9,4.4-4.4c0-0.5,0-0.9-0.1-1.3C225.9,169.4,224.2,168.1,222.3,168
		L222.3,168z"/>
	<path fill="#D2CB4C" d="M278.2,167h-0.1c-2.8,0-5.5-1.2-7.4-3.2s-3-4.6-2.9-7.4c0.1-5.7,4.7-10.3,10.5-10.3h0.1
		c2.8,0,5.5,1.2,7.4,3.2c1.9,1.9,3,4.6,2.9,7.4C288.6,162.4,283.9,167,278.2,167z M278.2,152.1c-2.4,0-4.4,1.9-4.5,4.4
		c0,1.2,0.4,2.3,1.2,3.2c0.9,0.9,1.9,1.3,3,1.3h0.1c2.4,0,4.4-1.9,4.4-4.4c0-1.2-0.4-2.3-1.2-3.2
		C280.5,152.6,279.4,152.1,278.2,152.1L278.2,152.1z"/>
	<path fill="#D2CB4C" d="M331.8,193.7h-0.1c-2.8,0-5.5-1.2-7.4-3.2s-3-4.6-2.9-7.4c0.1-5.7,4.7-10.3,10.5-10.3h0.1
		c2.8,0,5.5,1.2,7.4,3.2c1.9,1.9,3,4.6,2.9,7.4C342.1,189.1,337.5,193.7,331.8,193.7z M331.8,178.9c-2.4,0-4.4,1.9-4.5,4.4
		c0,1.2,0.4,2.3,1.2,3.2c0.9,0.9,1.9,1.3,3,1.3h0.1c2.4,0,4.4-1.9,4.4-4.4c0-1.2-0.4-2.3-1.2-3.2C334.1,179.4,333,178.9,331.8,178.9
		L331.8,178.9z"/>
	<path fill="#D2CB4C" d="M335.8,112.2h-0.1c-2.8,0-5.5-1.2-7.4-3.2c-1.9-2.1-3-4.6-2.9-7.4c0.1-5.7,4.7-10.3,10.5-10.3h0.1
		c2.8,0,5.5,1.2,7.4,3.2s3,4.6,2.9,7.4C346.1,107.6,341.5,112.2,335.8,112.2z M335.9,97.3c-2.4,0-4.4,1.9-4.5,4.4
		c0,1.2,0.4,2.3,1.2,3.2c0.9,0.9,1.9,1.3,3,1.3h0.1c2.4,0,4.4-1.9,4.4-4.4c0-1.2-0.4-2.3-1.2-3.2C338.1,97.7,337,97.3,335.9,97.3
		L335.9,97.3z"/>
	<path fill="#D2CB4C" d="M278.2,112.2h-0.1c-2.8,0-5.5-1.2-7.4-3.2s-3-4.6-2.9-7.4c0.1-5.7,4.7-10.3,10.5-10.3h0.1
		c2.8,0,5.5,1.2,7.4,3.2c1.9,1.9,3,4.6,2.9,7.4C288.6,107.6,283.9,112.2,278.2,112.2z M278.2,97.3c-2.4,0-4.4,1.9-4.5,4.4
		c0,1.2,0.4,2.3,1.2,3.2c0.9,0.9,1.9,1.3,3,1.3h0.1c2.4,0,4.4-1.9,4.4-4.4c0-1.2-0.4-2.3-1.2-3.2C280.5,97.7,279.4,97.3,278.2,97.3
		L278.2,97.3z"/>
	<path fill="#D2CB4C" d="M227.9,137.7h-0.1c-2.8,0-5.5-1.2-7.4-3.2c-1.9-1.9-3-4.6-2.9-7.4c0.1-5.7,4.7-10.3,10.5-10.3h0.1
		c5.8,0.1,10.5,4.9,10.3,10.7C238.3,133,233.6,137.7,227.9,137.7z M228,122.7c-2.4,0-4.4,1.9-4.5,4.4c0,1.2,0.4,2.3,1.2,3.2
		c0.9,0.9,1.9,1.3,3,1.3h0.1c2.4,0,4.4-1.9,4.4-4.4C232.4,124.8,230.4,122.8,228,122.7L228,122.7z"/>
	<path fill="#D2CB4C" d="M169.4,218.8h-0.1c-5.8-0.1-10.5-4.9-10.3-10.7c0.1-5.7,4.7-10.3,10.5-10.3h0.1c5.8,0.1,10.5,4.9,10.3,10.7
		C179.9,214.2,175.2,218.8,169.4,218.8z M169.6,204c-2.4,0-4.4,1.9-4.5,4.4c0,2.4,1.9,4.4,4.4,4.5h0.1c2.4,0,4.4-1.9,4.4-4.4
		C174,206,172,204,169.6,204L169.6,204z"/>
	<path fill="#D2CB4C" d="M115.9,161.9h-0.1c-2.8,0-5.5-1.2-7.4-3.2c-1.9-2.1-3-4.6-2.9-7.4c0.1-5.7,4.7-10.3,10.5-10.3h0.1
		c5.8,0.1,10.5,4.9,10.3,10.7C126.4,157.2,121.6,161.9,115.9,161.9z M116,146.9c-2.4,0-4.4,1.9-4.5,4.4c0,1.2,0.4,2.3,1.2,3.2
		c0.9,0.9,1.9,1.3,3,1.3h0.1c2.4,0,4.4-1.9,4.4-4.4C120.4,149,118.5,147,116,146.9L116,146.9z"/>
	<path fill="#D2CB4C" d="M64.1,218.8H64c-5.8-0.1-10.5-4.9-10.3-10.7c0.1-5.7,4.7-10.3,10.5-10.3h0.1c2.8,0,5.4,1.2,7.4,3.2
		c1.9,2.1,3,4.6,2.9,7.4C74.4,214.2,69.8,218.8,64.1,218.8z M64.1,204c-2.4,0-4.4,1.9-4.5,4.4c0,2.4,1.9,4.4,4.4,4.5h0.1
		c2.4,0,4.4-1.9,4.4-4.4c0-1.2-0.4-2.3-1.2-3.2C66.4,204.5,65.3,204,64.1,204L64.1,204z"/>
	<path fill="#49B0D2" d="M199,290.5c-5.2,0-9.4-4.3-9.4-9.4c0-5.2,4.3-9.4,9.4-9.4c5.2,0,9.4,4.3,9.4,9.4
		C208.4,286.3,204.1,290.5,199,290.5z M199,277.8c-1.8,0-3.3,1.5-3.3,3.3c0,1.8,1.5,3.3,3.3,3.3c1.8,0,3.3-1.5,3.3-3.3
		C202.3,279.3,200.8,277.8,199,277.8z"/>
</g>
</svg>
