<?xml version="1.0" encoding="utf-8"?>
<!-- Generator: Adobe Illustrator 17.1.0, SVG Export Plug-In . SVG Version: 6.00 Build 0)  -->
<!DOCTYPE svg PUBLIC "-//W3C//DTD SVG 1.1//EN" "http://www.w3.org/Graphics/SVG/1.1/DTD/svg11.dtd">
<svg version="1.1" id="Laag_1" xmlns="http://www.w3.org/2000/svg" xmlns:xlink="http://www.w3.org/1999/xlink" x="0px" y="0px"
	 viewBox="0 0 400 400" enable-background="new 0 0 400 400" xml:space="preserve">
<g>
	<path fill="#4DBAD6" d="M44.9,244.8c-0.5,0-0.9-0.1-1.3-0.4c-0.7-0.5-1.2-1.3-1.2-2.1v-24.7c0-0.9,0.4-1.7,1.2-2.1
		c0.7-0.5,1.7-0.5,2.4-0.1l24.8,12.3c0.8,0.4,1.4,1.3,1.4,2.2s-0.5,1.8-1.4,2.2l-24.7,12.4C45.7,244.7,45.3,244.8,44.9,244.8z
		 M47.4,221.7v16.5l16.5-8.2L47.4,221.7z"/>
	<path fill="#4DBAD6" d="M263.2,185.9c-0.5,0-0.9-0.1-1.3-0.4c-0.7-0.5-1.2-1.3-1.2-2.1v-24.7c0-0.9,0.4-1.7,1.2-2.1
		c0.7-0.5,1.7-0.5,2.4-0.1l24.7,12.4c0.8,0.4,1.4,1.3,1.4,2.2s-0.5,1.8-1.4,2.2l-24.7,12.4C264.1,185.8,263.6,185.9,263.2,185.9z
		 M265.8,162.8v16.5l16.5-8.2L265.8,162.8z"/>
	<path fill="#A1A8BC" d="M77.2,216.2c-0.7,0-1.4-0.3-1.9-0.9c-0.9-1.1-0.7-2.6,0.4-3.6l28-23c1.1-0.9,2.6-0.7,3.6,0.4
		c0.9,1.1,0.7,2.6-0.4,3.6l-28,23C78.4,216,77.8,216.2,77.2,216.2z"/>
	<path fill="#A1A8BC" d="M176.1,212.5c-0.6,0-1.2-0.2-1.6-0.6l-27.4-23.7c-1-0.9-1.2-2.5-0.3-3.6s2.5-1.2,3.6-0.3l27.4,23.7
		c1,0.9,1.2,2.5,0.3,3.6C177.5,212.2,176.8,212.5,176.1,212.5z"/>
	<path fill="#A1A8BC" d="M36,212.5c-0.6,0-1.2-0.2-1.6-0.6L6.9,188.3c-1-0.9-1.2-2.5-0.3-3.6s2.5-1.2,3.6-0.3l27.4,23.7
		c1,0.9,1.2,2.5,0.3,3.6C37.4,212.2,36.7,212.5,36,212.5z"/>
	<path fill="#A1A8BC" d="M323.4,212.5c-0.6,0-1.2-0.2-1.6-0.6l-27.4-23.7c-1-0.9-1.2-2.5-0.3-3.6c0.9-1,2.5-1.2,3.6-0.3l27.4,23.7
		c1,0.9,1.2,2.5,0.3,3.6C324.8,212.2,324.1,212.5,323.4,212.5z"/>
	<path fill="#A1A8BC" d="M221.7,214.6c-0.7,0-1.4-0.3-1.9-0.9c-0.9-1-0.8-2.6,0.3-3.6l27.4-23.7c1-0.9,2.6-0.8,3.6,0.3
		c0.9,1,0.8,2.6-0.3,3.6l-27.4,23.7C222.9,214.4,222.3,214.6,221.7,214.6z"/>
	<path fill="#A1A8BC" d="M363.9,208.5c-0.7,0-1.4-0.3-1.9-0.9c-0.9-1-0.8-2.6,0.3-3.6l27.4-23.7c1-0.9,2.6-0.8,3.6,0.3
		c0.9,1,0.8,2.6-0.3,3.6l-27.4,23.7C365.1,208.3,364.5,208.5,363.9,208.5z"/>
	<path fill="#4DBAD6" d="M336.4,239.5c-1.4,0-2.5-1.1-2.5-2.5v-23.4c0-1.4,1.1-2.5,2.5-2.5c1.4,0,2.5,1.1,2.5,2.5V237
		C338.9,238.4,337.8,239.5,336.4,239.5z"/>
	<path fill="#4DBAD6" d="M345.5,239.5c-1.4,0-2.5-1.1-2.5-2.5v-15.2c0-1.4,1.1-2.5,2.5-2.5c1.4,0,2.5,1.1,2.5,2.5V237
		C348,238.4,346.9,239.5,345.5,239.5z"/>
	<path fill="#4DBAD6" d="M353.6,239.5c-1.4,0-2.5-1.1-2.5-2.5v-10.2c0-1.4,1.1-2.5,2.5-2.5s2.5,1.1,2.5,2.5V237
		C356.2,238.4,355,239.5,353.6,239.5z"/>
	<path fill="#4DBAD6" d="M356.2,246.1h-22.3c-1.4,0-2.5-1.1-2.5-2.5s1.1-2.5,2.5-2.5h22.3c1.4,0,2.5,1.1,2.5,2.5
		S357.6,246.1,356.2,246.1z"/>
	<path fill="#4DBAD6" d="M210.9,223.8h-26.4c-1.4,0-2.5-1.1-2.5-2.5c0-1.4,1.1-2.5,2.5-2.5h26.4c1.4,0,2.5,1.1,2.5,2.5
		C213.5,222.7,212.4,223.8,210.9,223.8z"/>
	<path fill="#4DBAD6" d="M214,232.9h-29.5c-1.4,0-2.5-1.1-2.5-2.5s1.1-2.5,2.5-2.5H214c1.4,0,2.5,1.1,2.5,2.5S215.4,232.9,214,232.9
		z"/>
	<path fill="#4DBAD6" d="M206.9,242.1h-22.3c-1.4,0-2.5-1.1-2.5-2.5c0-1.4,1.1-2.5,2.5-2.5h22.3c1.4,0,2.5,1.1,2.5,2.5
		C209.4,241,208.3,242.1,206.9,242.1z"/>
	<path fill="#4DBAD6" d="M127.3,198.9c-16.6,0-30-13.4-30-30s13.4-30,30-30s30,13.4,30,30S143.7,198.9,127.3,198.9z M127.3,144.1
		c-13.7,0-24.9,11.2-24.9,24.9c0,13.7,11.2,24.9,24.9,24.9s24.9-11.2,24.9-24.9C152.1,155.3,141,144.1,127.3,144.1z"/>
	<path fill="#4DBAD6" d="M199.4,259.9c-16.6,0-30-13.4-30-30s13.4-30,30-30s30,13.4,30,30S215.8,259.9,199.4,259.9z M199.4,205
		c-13.7,0-24.9,11.2-24.9,24.9s11.2,24.9,24.9,24.9s24.9-11.2,24.9-24.9S213.1,205,199.4,205z"/>
	<path fill="#4DBAD6" d="M344.6,258.8c-16.6,0-30-13.4-30-30s13.4-30,30-30s30,13.4,30,30S361,258.8,344.6,258.8z M344.6,204
		c-13.7,0-24.9,11.2-24.9,24.9s11.2,24.9,24.9,24.9s24.9-11.2,24.9-24.9S358.3,204,344.6,204z"/>
	<path fill="#4DBAD6" d="M273.5,201c-16.6,0-30-13.4-30-30s13.4-30,30-30s30,13.4,30,30S289.9,201,273.5,201z M273.5,146.1
		c-13.7,0-24.9,11.2-24.9,24.9c0,13.7,11.2,24.9,24.9,24.9s24.9-11.2,24.9-24.9C298.4,157.3,287.2,146.1,273.5,146.1z"/>
	<path fill="#4DBAD6" d="M54.1,260.9c-16.6,0-30-13.4-30-30s13.4-30,30-30s30,13.4,30,30S70.6,260.9,54.1,260.9z M54.1,206
		c-13.7,0-24.9,11.2-24.9,24.9s11.2,24.9,24.9,24.9S79,244.6,79,230.9S67.8,206,54.1,206z"/>
	<path fill="#4DBAD6" d="M127.2,185.7c-0.7,0-1.3-0.3-1.8-0.7c-0.5-0.5-0.7-1.1-0.7-1.8c0-0.7,0.3-1.3,0.7-1.8
		c0.9-0.9,2.6-0.9,3.6,0c0.5,0.5,0.7,1.1,0.7,1.8c0,0.7-0.3,1.3-0.7,1.8C128.5,185.4,127.9,185.7,127.2,185.7z"/>
	<path fill="#4DBAD6" d="M126.8,178.9c-1.3,0-2.4-1.1-2.5-2.4v-0.2c-0.1-2.7-0.3-8.4,2.8-12c1.5-1.7,2.9-4.3,2.6-5.8
		c-0.1-0.4-0.3-1-1.3-1.6c-2.7-1.5-4.5,0.8-5,1.5c-0.7,1.2-2.3,1.5-3.5,0.8c-1.2-0.7-1.5-2.3-0.8-3.5c1.8-2.9,6.4-6.2,11.7-3.2
		c2.7,1.5,3.7,3.7,3.9,5.2c0.6,3.6-1.6,7.5-3.9,10.1c-1.8,2-1.6,6.5-1.6,8.3v0.2C129.4,177.7,128.3,178.9,126.8,178.9
		C126.9,178.9,126.9,178.9,126.8,178.9z"/>
</g>
</svg>
