<?xml version="1.0" encoding="utf-8"?>
<!-- Generator: Adobe Illustrator 17.1.0, SVG Export Plug-In . SVG Version: 6.00 Build 0)  -->
<!DOCTYPE svg PUBLIC "-//W3C//DTD SVG 1.1//EN" "http://www.w3.org/Graphics/SVG/1.1/DTD/svg11.dtd">
<svg version="1.1" id="Laag_1" xmlns="http://www.w3.org/2000/svg" xmlns:xlink="http://www.w3.org/1999/xlink" x="0px" y="0px"
	 viewBox="0 0 400 400" enable-background="new 0 0 400 400" xml:space="preserve">
<path fill="#E9E8E9" d="M109.7,163.5c-15.1,0-27.4-12.3-27.4-27.4s12.3-27.4,27.4-27.4c15.1,0,27.4,12.3,27.4,27.4
	S124.8,163.5,109.7,163.5z M109.7,113.6c-12.4,0-22.4,10.1-22.4,22.4s10.1,22.4,22.4,22.4c12.4,0,22.4-10.1,22.4-22.4
	S122,113.6,109.7,113.6z"/>
<path fill="#E9E8E9" d="M340.5,192h-280c-1.4,0-2.5-1.1-2.5-2.5s1.1-2.5,2.5-2.5h280c1.4,0,2.5,1.1,2.5,2.5S341.9,192,340.5,192z"/>
<rect x="36" y="71" fill="#E9E8E9" width="329" height="5"/>
<path fill="#E9E8E9" d="M208,134h-56c-1.4,0-2.5-1.1-2.5-2.5s1.1-2.5,2.5-2.5h56c1.4,0,2.5,1.1,2.5,2.5S209.4,134,208,134z"/>
<path fill="#E9E8E9" d="M180,143h-28c-1.4,0-2.5-1.1-2.5-2.5s1.1-2.5,2.5-2.5h28c1.4,0,2.5,1.1,2.5,2.5S181.4,143,180,143z"/>
<g>
	<path fill="#6DC1AD" d="M255.6,133.7c-2.2,0-4-1.8-4-4c0-2.2,1.8-4,4-4s4,1.8,4,4C259.6,131.9,257.8,133.7,255.6,133.7z
		 M255.6,128.7c-0.6,0-1,0.5-1,1s0.5,1,1,1c0.6,0,1-0.5,1-1S256.2,128.7,255.6,128.7z"/>
	<path fill="#4DBDD7" d="M255.6,121.5c-2.2,0-4-1.8-4-4c0-2.2,1.8-4,4-4s4,1.8,4,4C259.6,119.7,257.8,121.5,255.6,121.5z
		 M255.6,116.5c-0.6,0-1,0.5-1,1s0.5,1,1,1c0.6,0,1-0.5,1-1S256.2,116.5,255.6,116.5z"/>
	<path fill="#EC923F" d="M255.5,146c-2.2,0-4-1.8-4-4c0-2.2,1.8-4,4-4s4,1.8,4,4C259.5,144.2,257.7,146,255.5,146z M255.5,141
		c-0.6,0-1,0.5-1,1s0.5,1,1,1c0.6,0,1-0.5,1-1S256.1,141,255.5,141z"/>
	<path fill="#B99FCA" d="M255.5,158.2c-2.2,0-4-1.8-4-4s1.8-4,4-4s4,1.8,4,4S257.7,158.2,255.5,158.2z M255.5,153.2
		c-0.6,0-1,0.5-1,1s0.5,1,1,1c0.6,0,1-0.5,1-1S256.1,153.2,255.5,153.2z"/>
	<path fill="#B99FCA" d="M301.3,158.2c-12.2,0-22.1-9.9-22.1-22.1s9.9-22.1,22.1-22.1c12.2,0,22.1,9.9,22.1,22.1
		S313.5,158.2,301.3,158.2z M301.3,118.9c-9.5,0-17.1,7.7-17.1,17.1s7.7,17.1,17.1,17.1c9.5,0,17.1-7.7,17.1-17.1
		S310.7,118.9,301.3,118.9z"/>
	<path fill="#4DBDD7" d="M301.3,158.2c-12.2,0-22.1-9.9-22.1-22.1s9.9-22.1,22.1-22.1c1.4,0,2.5,1.1,2.5,2.5s-1.1,2.5-2.5,2.5
		c-9.5,0-17.1,7.7-17.1,17.1s7.7,17.1,17.1,17.1c9.5,0,17.1-7.7,17.1-17.1c0-3.1-0.9-6.2-2.5-8.9c-0.7-1.2-0.3-2.7,0.8-3.4
		c1.2-0.7,2.7-0.3,3.4,0.8c2.1,3.4,3.2,7.4,3.2,11.4C323.4,148.3,313.5,158.2,301.3,158.2z"/>
	<path fill="#6DC1AD" d="M281.6,138.5c-1.4,0-2.5-1.1-2.5-2.5c0-12.2,9.9-22.1,22.1-22.1c1.4,0,2.5,1.1,2.5,2.5s-1.1,2.5-2.5,2.5
		c-9.5,0-17.1,7.7-17.1,17.1C284.1,137.4,283,138.5,281.6,138.5z"/>
</g>
<path fill="#EC923F" d="M319.1,146.9c-0.4,0-0.7-0.1-1.1-0.2c-1.2-0.6-1.8-2.1-1.2-3.3c1.1-2.3,1.6-4.7,1.6-7.3
	c0-3.1-0.9-6.2-2.5-8.9c-0.7-1.2-0.3-2.7,0.8-3.4c1.2-0.7,2.7-0.3,3.4,0.8c2.1,3.4,3.2,7.4,3.2,11.4c0,3.3-0.7,6.4-2.1,9.4
	C320.9,146.4,320,146.9,319.1,146.9z"/>
<path fill="#7D8D91" d="M180.5,304h-115c-1.4,0-2.5-1.1-2.5-2.5v-64c0-1.4,1.1-2.5,2.5-2.5h115c1.4,0,2.5,1.1,2.5,2.5v64
	C183,302.9,181.9,304,180.5,304z M68,299h110v-59H68V299z"/>
<path fill="#E9E8E9" d="M364.5,362h-329c-1.4,0-2.5-1.1-2.5-2.5v-319c0-1.4,1.1-2.5,2.5-2.5h329c1.4,0,2.5,1.1,2.5,2.5v319
	C367,360.9,365.9,362,364.5,362z M38,357h324V43H38V357z"/>
<rect x="147" y="238" fill="#7D8D91" width="5" height="64"/>
<path fill="#7D8D91" d="M335.5,304h-115c-1.4,0-2.5-1.1-2.5-2.5v-64c0-1.4,1.1-2.5,2.5-2.5h115c1.4,0,2.5,1.1,2.5,2.5v64
	C338,302.9,336.9,304,335.5,304z M223,299h110v-59H223V299z"/>
<rect x="302" y="238" fill="#7D8D91" width="5" height="64"/>
<path fill="#D2CB4B" d="M60.5,64.5c-4.1,0-7.5-3.4-7.5-7.5s3.4-7.5,7.5-7.5S68,52.9,68,57S64.6,64.5,60.5,64.5z M60.5,54.5
	c-1.4,0-2.5,1.1-2.5,2.5s1.1,2.5,2.5,2.5S63,58.4,63,57S61.9,54.5,60.5,54.5z"/>
<path fill="#D2CB4B" d="M79.5,64.5c-4.1,0-7.5-3.4-7.5-7.5s3.4-7.5,7.5-7.5S87,52.9,87,57S83.6,64.5,79.5,64.5z M79.5,54.5
	c-1.4,0-2.5,1.1-2.5,2.5s1.1,2.5,2.5,2.5S82,58.4,82,57S80.9,54.5,79.5,54.5z"/>
<path fill="#D2CB4B" d="M97.5,64.5c-4.1,0-7.5-3.4-7.5-7.5s3.4-7.5,7.5-7.5s7.5,3.4,7.5,7.5S101.6,64.5,97.5,64.5z M97.5,54.5
	c-1.4,0-2.5,1.1-2.5,2.5s1.1,2.5,2.5,2.5s2.5-1.1,2.5-2.5S98.9,54.5,97.5,54.5z"/>
</svg>
