<?xml version="1.0" encoding="utf-8"?>
<!-- Generator: Adobe Illustrator 17.1.0, SVG Export Plug-In . SVG Version: 6.00 Build 0)  -->
<!DOCTYPE svg PUBLIC "-//W3C//DTD SVG 1.1//EN" "http://www.w3.org/Graphics/SVG/1.1/DTD/svg11.dtd">
<svg version="1.1" id="Laag_1" xmlns="http://www.w3.org/2000/svg" xmlns:xlink="http://www.w3.org/1999/xlink" x="0px" y="0px"
	 viewBox="0 0 400 400" enable-background="new 0 0 400 400" xml:space="preserve">
<g>
	<path fill="none" stroke="#B693C4" stroke-width="5" stroke-linecap="round" stroke-linejoin="round" stroke-miterlimit="10" d="
		M288.2,191.3"/>
	<path fill="#B693C4" d="M349.3,309.8c-0.4,0-0.7-0.1-1.1-0.2l-71.2-33c-1.3-0.6-1.8-2.1-1.2-3.3s2.1-1.8,3.3-1.2l67.7,31.4V167.8
		l-67.7,31.4c-1.3,0.6-2.7,0-3.3-1.2c-0.6-1.3,0-2.7,1.2-3.3l71.2-33c0.8-0.4,1.7-0.3,2.4,0.2c0.7,0.5,1.2,1.3,1.2,2.1v143.4
		c0,0.9-0.4,1.6-1.2,2.1C350.3,309.7,349.8,309.8,349.3,309.8z"/>
	<path fill="#B693C4" d="M278.1,199.4c-1.4,0-2.5-1.1-2.5-2.5v-29h-33.1c-1.4,0-2.5-1.1-2.5-2.5s1.1-2.5,2.5-2.5h35.6
		c1.4,0,2.5,1.1,2.5,2.5v31.5C280.6,198.3,279.5,199.4,278.1,199.4z"/>
	<path fill="#B693C4" d="M194.8,167.9H153c-1.4,0-2.5-1.1-2.5-2.5s1.1-2.5,2.5-2.5h41.8c1.4,0,2.5,1.1,2.5,2.5
		S196.2,167.9,194.8,167.9z"/>
	<path fill="#B693C4" d="M278.1,306.3H80.7c-1.4,0-2.5-1.1-2.5-2.5V165.4c0-1.4,1.1-2.5,2.5-2.5h27.9c1.4,0,2.5,1.1,2.5,2.5
		s-1.1,2.5-2.5,2.5H83.2v133.4h192.4v-27c0-1.4,1.1-2.5,2.5-2.5s2.5,1.1,2.5,2.5v29.5C280.6,305.2,279.5,306.3,278.1,306.3z"/>
	<path fill="#B693C4" d="M108.3,167.9c-0.5,0-0.9-0.1-1.3-0.4c-12.7-8.1-20.3-22-20.3-37.1c0-24.3,19.7-44,44-44
		c24.3,0,44,19.7,44,44c0,15.1-7.6,29-20.3,37.1c-1.2,0.7-2.7,0.4-3.5-0.8c-0.7-1.2-0.4-2.7,0.8-3.5c11.3-7.2,18-19.5,18-32.9
		c0-21.5-17.5-39-39-39s-39,17.5-39,39c0,13.4,6.7,25.7,18,32.9c1.2,0.7,1.5,2.3,0.8,3.5C109.9,167.5,109.1,167.9,108.3,167.9z"/>
	<path fill="#B693C4" d="M194.6,167.9c-0.5,0-1-0.1-1.4-0.5c-11.6-8.2-18.6-21.7-18.6-35.9c0-24.3,19.7-44,44-44s44,19.7,44,44
		c0,14.2-6.9,27.7-18.6,35.9c-1.1,0.8-2.7,0.5-3.5-0.6s-0.5-2.7,0.6-3.5c10.3-7.3,16.5-19.2,16.5-31.8c0-21.5-17.5-39-39-39
		c-21.5,0-39,17.5-39,39c0,12.6,6.2,24.5,16.5,31.8c1.1,0.8,1.4,2.4,0.6,3.5C196.1,167.6,195.3,167.9,194.6,167.9z"/>
</g>
<path fill="#47B0D2" d="M223.1,246.8h-98.3c-1.4,0-2.5-1.1-2.5-2.5v-51.2c0-1.4,1.1-2.5,2.5-2.5h98.3c1.4,0,2.5,1.1,2.5,2.5v51.2
	C225.6,245.7,224.4,246.8,223.1,246.8z M127.2,241.8h93.3v-46.2h-93.3V241.8z"/>
<path fill="#5FBC9F" d="M147.2,283.7c-6.7,0-12.1-5.4-12.1-12.1s5.4-12.1,12.1-12.1c6.7,0,12.1,5.4,12.1,12.1
	S153.9,283.7,147.2,283.7z M147.2,264.4c-3.9,0-7.1,3.2-7.1,7.1s3.2,7.1,7.1,7.1s7.1-3.2,7.1-7.1S151.1,264.4,147.2,264.4z"/>
<path fill="#5FBC9F" d="M171.8,283.7c-0.4,0-0.9-0.1-1.3-0.3c-0.8-0.4-1.2-1.3-1.2-2.2l0-19.4c0-0.9,0.5-1.7,1.3-2.2
	c0.8-0.4,1.7-0.4,2.5,0l16.8,9.7c0.8,0.4,1.2,1.3,1.2,2.2c0,0.9-0.5,1.7-1.3,2.2l-16.8,9.7C172.7,283.6,172.2,283.7,171.8,283.7z
	 M174.3,266.2l0,10.7l9.3-5.3L174.3,266.2z"/>
<path fill="#5FBC9F" d="M202.9,282.7c-1.4,0-2.5-1.1-2.5-2.5v-15.3c0-1.4,1.1-2.5,2.5-2.5s2.5,1.1,2.5,2.5v15.3
	C205.4,281.6,204.3,282.7,202.9,282.7z"/>
<path fill="#5FBC9F" d="M210.2,282.7c-1.4,0-2.5-1.1-2.5-2.5v-15.3c0-1.4,1.1-2.5,2.5-2.5s2.5,1.1,2.5,2.5v15.3
	C212.7,281.6,211.6,282.7,210.2,282.7z"/>
</svg>
